<?xml version="1.0" encoding="UTF-8" standalone="no"?>
<!DOCTYPE svg PUBLIC "-//W3C//DTD SVG 1.1//EN" "http://www.w3.org/Graphics/SVG/1.1/DTD/svg11.dtd">
<svg width="100%" height="100%" viewBox="0 0 1326 1784" version="1.1" xmlns="http://www.w3.org/2000/svg" xmlns:xlink="http://www.w3.org/1999/xlink" xml:space="preserve" xmlns:affinity="https://www.affinity.studio/" style="fill-rule:evenodd;clip-rule:evenodd;stroke-linecap:round;stroke-miterlimit:1;">
    <g transform="matrix(1,0,0,1,-0.002878,-0.000714)">
        <g transform="matrix(1,0,0,1,-28732.397424,-28795.492235)">
            <g transform="matrix(1.016774,0,0,1.016774,28960.364858,30046.247356)">
                <path d="M374.753,-8.582l0,8.582l-43.306,0l0,-10.217l25.726,-29.27l-23.977,0l0,-10.677l40.683,0l0,10.907l-25.45,28.487l25.894,0c-0.105,-0.821 -0.158,-1.68 -0.158,-2.577c0,-6.167 2.378,-10.631 7.133,-13.392c2.608,-1.503 6.443,-2.577 11.505,-3.222l4.464,-0.552c2.424,-0.307 4.157,-0.69 5.2,-1.151c1.872,-0.798 2.807,-2.04 2.807,-3.728c0,-2.056 -0.713,-3.475 -2.14,-4.257c-1.427,-0.782 -3.521,-1.174 -6.282,-1.174c-3.099,0 -5.292,0.767 -6.581,2.301c-0.92,1.135 -1.534,2.669 -1.841,4.602l-12.656,0c0.276,-4.387 1.503,-7.992 3.682,-10.815c3.467,-4.418 9.419,-6.627 17.856,-6.627c5.492,0 10.37,1.089 14.635,3.268c4.265,2.178 6.397,6.29 6.397,12.334l0,23.011c0,1.595 0.031,3.528 0.092,5.799c0.092,1.718 0.353,2.884 0.782,3.498c0.43,0.614 1.074,1.12 1.933,1.519l0,1.933l-14.267,0c-0.399,-1.012 -0.675,-1.964 -0.828,-2.853c-0.153,-0.89 -0.276,-1.902 -0.368,-3.037c-1.81,1.964 -3.896,3.636 -6.259,5.016c-2.823,1.626 -6.013,2.439 -9.572,2.439c-4.541,0 -8.292,-1.296 -11.252,-3.889c-1.883,-1.649 -3.167,-3.735 -3.852,-6.258Zm14.46,-0.898c1.227,1.012 2.731,1.519 4.51,1.519c2.823,0 5.423,-0.828 7.801,-2.485c2.378,-1.657 3.613,-4.679 3.705,-9.066l0,-4.878c-0.828,0.522 -1.664,0.943 -2.508,1.266c-0.844,0.322 -2.002,0.621 -3.475,0.897l-2.945,0.552c-2.761,0.491 -4.74,1.089 -5.937,1.795c-2.025,1.197 -3.037,3.053 -3.037,5.569c0,2.24 0.629,3.85 1.887,4.832Zm125.142,-12.889c-1.309,7.059 -4.395,12.828 -9.26,17.307c-5.062,4.633 -11.536,6.949 -19.421,6.949c-9.757,0 -17.427,-3.129 -23.011,-9.388c-5.584,-6.29 -8.376,-14.911 -8.376,-25.864c0,-11.843 3.175,-20.97 9.526,-27.383c5.523,-5.584 12.549,-8.376 21.078,-8.376c11.413,0 19.759,3.743 25.036,11.229c2.915,4.203 4.479,8.422 4.694,12.656l-14.175,0c-0.92,-3.252 -2.102,-5.707 -3.544,-7.363c-2.577,-2.945 -6.397,-4.418 -11.459,-4.418c-5.154,0 -9.22,2.079 -12.196,6.236c-2.976,4.157 -4.464,10.04 -4.464,17.649c0,7.609 1.572,13.308 4.717,17.097c3.145,3.789 7.141,5.684 11.989,5.684c4.97,0 8.759,-1.626 11.367,-4.878c1.442,-1.749 2.639,-4.372 3.59,-7.87l13.863,0c-0.032,-0.621 -0.048,-1.25 -0.048,-1.887c0,-7.241 2.117,-13.515 6.351,-18.823c4.234,-5.308 10.662,-7.962 19.283,-7.962c8.621,0 15.049,2.654 19.283,7.962c4.234,5.308 6.351,11.582 6.351,18.823c0,7.363 -2.117,13.661 -6.351,18.892c-4.234,5.231 -10.662,7.847 -19.283,7.847c-8.621,0 -15.049,-2.616 -19.283,-7.847c-3.723,-4.6 -5.809,-10.023 -6.258,-16.272Zm25.495,-18.314c-3.835,0 -6.788,1.358 -8.859,4.073c-2.071,2.715 -3.106,6.589 -3.106,11.62c0,5.032 1.035,8.913 3.106,11.643c2.071,2.731 5.024,4.096 8.859,4.096c3.835,0 6.78,-1.365 8.836,-4.096c2.056,-2.731 3.083,-6.612 3.083,-11.643c0,-5.032 -1.028,-8.905 -3.083,-11.62c-2.056,-2.715 -5.001,-4.073 -8.836,-4.073Zm-483.382,-27.153l0,12.012l-20.295,0l0,55.824l-14.267,0l0,-55.824l-20.388,0l0,-12.012l54.95,0Zm52.557,38.382l0,29.454l-13.392,0l0,-30.512c0,-2.7 -0.46,-4.878 -1.381,-6.535c-1.197,-2.332 -3.467,-3.498 -6.811,-3.498c-3.467,0 -6.098,1.158 -7.893,3.475c-1.795,2.316 -2.692,5.622 -2.692,9.918l0,27.153l-13.07,0l0,-67.606l13.07,0l0,23.977c1.902,-2.915 4.104,-4.947 6.604,-6.098c2.501,-1.151 5.131,-1.726 7.893,-1.726c3.099,0 5.914,0.537 8.445,1.611c2.531,1.074 4.61,2.715 6.236,4.924c1.381,1.872 2.224,3.797 2.531,5.776c0.307,1.979 0.46,5.208 0.46,9.688Zm55.18,14.727c-0.337,2.976 -1.887,5.998 -4.648,9.066c-4.295,4.878 -10.309,7.317 -18.04,7.317c-6.382,0 -12.012,-2.056 -16.89,-6.167c-4.878,-4.111 -7.317,-10.8 -7.317,-20.065c0,-8.683 2.201,-15.34 6.604,-19.973c4.403,-4.633 10.117,-6.949 17.143,-6.949c4.173,0 7.931,0.782 11.275,2.347c3.344,1.565 6.106,4.035 8.284,7.409c1.964,2.976 3.237,6.428 3.82,10.355c0.337,2.301 0.476,5.615 0.414,9.941l-34.332,0c0.184,5.032 1.764,8.56 4.74,10.585c1.81,1.258 3.989,1.887 6.535,1.887c2.7,0 4.894,-0.767 6.581,-2.301c0.92,-0.828 1.733,-1.979 2.439,-3.452l13.392,0Zm-12.978,-15.371c-0.215,-3.467 -1.266,-6.098 -3.152,-7.893c-1.887,-1.795 -4.226,-2.692 -7.018,-2.692c-3.037,0 -5.392,0.951 -7.064,2.853c-1.672,1.902 -2.723,4.479 -3.152,7.732l20.388,0Zm78.513,5.707l-14.405,0l0,24.391l-14.083,0l0,-67.836l29.546,0c6.811,0 12.242,1.749 16.292,5.246c4.05,3.498 6.075,8.913 6.075,16.246c0,8.008 -2.025,13.668 -6.075,16.982c-4.05,3.314 -9.833,4.97 -17.35,4.97Zm6.627,-14.129c1.841,-1.626 2.761,-4.203 2.761,-7.732c0,-3.528 -0.928,-6.044 -2.784,-7.548c-1.856,-1.503 -4.456,-2.255 -7.801,-2.255l-13.208,0l0,19.973l13.208,0c3.344,0 5.952,-0.813 7.824,-2.439Zm39.855,-11.643l0,50.163l-13.3,0l0,-50.163l13.3,0Zm0,-18.086l0,12.104l-13.3,0l0,-12.104l13.3,0Zm51.406,68.25l-43.306,0l0,-10.217l25.726,-29.27l-23.977,0l0,-10.677l40.683,0l0,10.907l-25.45,28.487l26.324,0l0,10.769Zm275.457,-36.357c-1.105,-2.424 -3.268,-3.636 -6.489,-3.636c-3.743,0 -6.259,1.212 -7.548,3.636c-0.706,1.381 -1.058,3.436 -1.058,6.167l0,30.19l-13.3,0l0,-50.071l12.748,0l0,7.317c1.626,-2.608 3.16,-4.464 4.602,-5.569c2.547,-1.964 5.845,-2.945 9.895,-2.945c3.835,0 6.934,0.844 9.296,2.531c1.902,1.565 3.344,3.574 4.326,6.029c1.718,-2.945 3.85,-5.108 6.397,-6.489c2.7,-1.381 5.707,-2.071 9.02,-2.071c2.209,0 4.387,0.43 6.535,1.289c2.148,0.859 4.096,2.362 5.845,4.51c1.411,1.749 2.362,3.896 2.853,6.443c0.307,1.687 0.46,4.157 0.46,7.409l-0.092,31.617l-13.438,0l0,-31.939c0,-1.902 -0.307,-3.467 -0.92,-4.694c-1.166,-2.332 -3.314,-3.498 -6.443,-3.498c-3.62,0 -6.121,1.503 -7.502,4.51c-0.706,1.595 -1.058,3.513 -1.058,5.753l0,29.868l-13.208,0l0,-29.868c0,-2.976 -0.307,-5.139 -0.92,-6.489Zm97.658,-8.422c4.05,4.326 6.075,10.677 6.075,19.053c0,8.836 -1.987,15.571 -5.96,20.203c-3.973,4.633 -9.089,6.949 -15.348,6.949c-3.989,0 -7.302,-0.997 -9.941,-2.991c-1.442,-1.105 -2.853,-2.715 -4.234,-4.832l0,26.14l-12.978,0l0,-69.907l12.564,0l0,7.409c1.411,-2.178 2.915,-3.896 4.51,-5.154c2.915,-2.24 6.382,-3.36 10.401,-3.36c5.86,0 10.83,2.163 14.911,6.489Zm-7.455,19.697c0,-3.866 -0.882,-7.287 -2.646,-10.263c-1.764,-2.976 -4.625,-4.464 -8.583,-4.464c-4.756,0 -8.023,2.255 -9.803,6.765c-0.92,2.393 -1.381,5.431 -1.381,9.112c0,5.829 1.549,9.925 4.648,12.288c1.841,1.381 4.019,2.071 6.535,2.071c3.651,0 6.435,-1.411 8.353,-4.234c1.918,-2.823 2.876,-6.581 2.876,-11.275Zm24.898,-19.651c3.467,-4.418 9.419,-6.627 17.856,-6.627c5.492,0 10.37,1.089 14.635,3.268c4.265,2.178 6.397,6.29 6.397,12.334l0,23.011c0,1.595 0.031,3.528 0.092,5.799c0.092,1.718 0.353,2.884 0.782,3.498c0.43,0.614 1.074,1.12 1.933,1.519l0,1.933l-14.267,0c-0.399,-1.012 -0.675,-1.964 -0.828,-2.853c-0.153,-0.89 -0.276,-1.902 -0.368,-3.037c-1.81,1.964 -3.896,3.636 -6.259,5.016c-2.823,1.626 -6.013,2.439 -9.572,2.439c-4.541,0 -8.292,-1.296 -11.252,-3.889c-2.961,-2.593 -4.441,-6.267 -4.441,-11.022c0,-6.167 2.378,-10.631 7.133,-13.392c2.608,-1.503 6.443,-2.577 11.505,-3.222l4.464,-0.552c2.424,-0.307 4.157,-0.69 5.2,-1.151c1.872,-0.798 2.807,-2.04 2.807,-3.728c0,-2.056 -0.713,-3.475 -2.14,-4.257c-1.427,-0.782 -3.521,-1.174 -6.282,-1.174c-3.099,0 -5.292,0.767 -6.581,2.301c-0.92,1.135 -1.534,2.669 -1.841,4.602l-12.656,0c0.276,-4.387 1.503,-7.992 3.682,-10.815Zm9.757,35.252c1.227,1.012 2.731,1.519 4.51,1.519c2.823,0 5.423,-0.828 7.801,-2.485c2.378,-1.657 3.613,-4.679 3.705,-9.066l0,-4.878c-0.828,0.522 -1.664,0.943 -2.508,1.266c-0.844,0.322 -2.002,0.621 -3.475,0.897l-2.945,0.552c-2.761,0.491 -4.74,1.089 -5.937,1.795c-2.025,1.197 -3.037,3.053 -3.037,5.569c0,2.24 0.629,3.85 1.887,4.832Zm64.384,-30.972c-4.449,0 -7.502,1.887 -9.158,5.661c-0.859,1.994 -1.289,4.541 -1.289,7.64l0,27.153l-13.07,0l0,-50.071l12.656,0l0,7.317c1.687,-2.577 3.283,-4.433 4.786,-5.569c2.7,-2.025 6.121,-3.037 10.263,-3.037c5.185,0 9.427,1.358 12.725,4.073c3.298,2.715 4.947,7.218 4.947,13.507l0,33.78l-13.438,0l0,-30.512c0,-2.639 -0.353,-4.664 -1.058,-6.075c-1.289,-2.577 -3.743,-3.866 -7.363,-3.866Zm50.315,27.291l10.355,-37.001l13.945,0l-17.212,49.335c-3.314,9.511 -5.937,15.41 -7.87,17.695c-1.933,2.286 -5.799,3.429 -11.597,3.429c-1.166,0 -2.102,-0.008 -2.807,-0.023c-0.706,-0.015 -1.764,-0.069 -3.175,-0.161l0,-10.493l1.657,0.092c1.289,0.061 2.516,0.015 3.682,-0.138c1.166,-0.153 2.148,-0.506 2.945,-1.058c0.767,-0.522 1.48,-1.611 2.14,-3.268c0.66,-1.657 0.928,-2.669 0.805,-3.037l-18.409,-52.372l14.589,0l10.953,37.001Zm-558.384,118.102c3.344,0 6.059,-0.368 8.146,-1.105c3.958,-1.411 5.937,-4.035 5.937,-7.87c0,-2.24 -0.982,-3.973 -2.945,-5.2c-1.964,-1.197 -5.047,-2.255 -9.25,-3.175l-7.179,-1.611c-7.057,-1.595 -11.935,-3.329 -14.635,-5.2c-4.571,-3.129 -6.857,-8.023 -6.857,-14.681c0,-6.075 2.209,-11.122 6.627,-15.141c4.418,-4.019 10.907,-6.029 19.467,-6.029c7.149,0 13.247,1.895 18.294,5.684c5.047,3.789 7.693,9.289 7.939,16.499l-13.622,0c-0.245,-4.081 -2.025,-6.98 -5.338,-8.698c-2.209,-1.135 -4.955,-1.703 -8.238,-1.703c-3.651,0 -6.566,0.736 -8.744,2.209c-2.178,1.473 -3.268,3.528 -3.268,6.167c0,2.424 1.074,4.234 3.222,5.431c1.381,0.798 4.326,1.733 8.836,2.807l11.689,2.807c5.124,1.227 8.99,2.869 11.597,4.924c4.05,3.191 6.075,7.808 6.075,13.852c0,6.198 -2.37,11.344 -7.11,15.44c-4.74,4.096 -11.436,6.144 -20.088,6.144c-8.836,0 -15.785,-2.017 -20.848,-6.052c-5.062,-4.035 -7.594,-9.58 -7.594,-16.637l13.53,0c0.43,3.099 1.273,5.415 2.531,6.949c2.301,2.792 6.244,4.188 11.828,4.188Zm50.67,-40.361l0,50.163l-13.3,0l0,-50.163l13.3,0Zm0,-18.086l0,12.104l-13.3,0l0,-12.104l13.3,0Zm58.033,38.796l0,29.454l-13.392,0l0,-30.512c0,-2.7 -0.46,-4.878 -1.381,-6.535c-1.197,-2.332 -3.467,-3.498 -6.811,-3.498c-3.467,0 -6.098,1.158 -7.893,3.475c-1.795,2.316 -2.692,5.622 -2.692,9.918l0,27.153l-13.07,0l0,-67.606l13.07,0l0,23.977c1.902,-2.915 4.104,-4.947 6.604,-6.098c2.501,-1.151 5.131,-1.726 7.893,-1.726c3.099,0 5.914,0.537 8.445,1.611c2.531,1.074 4.61,2.715 6.236,4.924c1.381,1.872 2.224,3.797 2.531,5.776c0.307,1.979 0.46,5.208 0.46,9.688Zm14.129,-15.279c3.467,-4.418 9.419,-6.627 17.856,-6.627c5.492,0 10.37,1.089 14.635,3.268c4.265,2.178 6.397,6.29 6.397,12.334l0,23.011c0,1.595 0.031,3.528 0.092,5.799c0.092,1.718 0.353,2.884 0.782,3.498c0.43,0.614 1.074,1.12 1.933,1.519l0,1.933l-14.267,0c-0.399,-1.012 -0.675,-1.964 -0.828,-2.853c-0.153,-0.89 -0.276,-1.902 -0.368,-3.037c-1.81,1.964 -3.896,3.636 -6.259,5.016c-2.823,1.626 -6.013,2.439 -9.572,2.439c-4.541,0 -8.292,-1.296 -11.252,-3.889c-2.961,-2.593 -4.441,-6.267 -4.441,-11.022c0,-6.167 2.378,-10.631 7.133,-13.392c2.608,-1.503 6.443,-2.577 11.505,-3.222l4.464,-0.552c2.424,-0.307 4.157,-0.69 5.2,-1.151c1.872,-0.798 2.807,-2.04 2.807,-3.728c0,-2.056 -0.713,-3.475 -2.14,-4.257c-1.427,-0.782 -3.521,-1.174 -6.282,-1.174c-3.099,0 -5.292,0.767 -6.581,2.301c-0.92,1.135 -1.534,2.669 -1.841,4.602l-12.656,0c0.276,-4.387 1.503,-7.992 3.682,-10.815Zm9.757,35.252c1.227,1.012 2.731,1.519 4.51,1.519c2.823,0 5.423,-0.828 7.801,-2.485c2.378,-1.657 3.613,-4.679 3.705,-9.066l0,-4.878c-0.828,0.522 -1.664,0.943 -2.508,1.266c-0.844,0.322 -2.002,0.621 -3.475,0.897l-2.945,0.552c-2.761,0.491 -4.74,1.089 -5.937,1.795c-2.025,1.197 -3.037,3.053 -3.037,5.569c0,2.24 0.629,3.85 1.887,4.832Zm64.384,-30.972c-4.449,0 -7.502,1.887 -9.158,5.661c-0.859,1.994 -1.289,4.541 -1.289,7.64l0,27.153l-13.07,0l0,-50.071l12.656,0l0,7.317c1.687,-2.577 3.283,-4.433 4.786,-5.569c2.7,-2.025 6.121,-3.037 10.263,-3.037c5.185,0 9.427,1.358 12.725,4.073c3.298,2.715 4.947,7.218 4.947,13.507l0,33.78l-13.438,0l0,-30.512c0,-2.639 -0.353,-4.664 -1.058,-6.075c-1.289,-2.577 -3.743,-3.866 -7.363,-3.866Zm75.797,-3.36c4.234,5.308 6.351,11.582 6.351,18.823c0,7.363 -2.117,13.661 -6.351,18.892c-4.234,5.231 -10.662,7.847 -19.283,7.847c-8.621,0 -15.049,-2.616 -19.283,-7.847c-4.234,-5.231 -6.351,-11.528 -6.351,-18.892c0,-7.241 2.117,-13.515 6.351,-18.823c4.234,-5.308 10.662,-7.962 19.283,-7.962c8.621,0 15.049,2.654 19.283,7.962Zm-19.329,3.129c-3.835,0 -6.788,1.358 -8.859,4.073c-2.071,2.715 -3.106,6.589 -3.106,11.62c0,5.032 1.035,8.913 3.106,11.643c2.071,2.731 5.024,4.096 8.859,4.096c3.835,0 6.78,-1.365 8.836,-4.096c2.056,-2.731 3.083,-6.612 3.083,-11.643c0,-5.032 -1.028,-8.905 -3.083,-11.62c-2.056,-2.715 -5.001,-4.073 -8.836,-4.073Zm67.237,33.596c-0.123,0.153 -0.43,0.614 -0.92,1.381c-0.491,0.767 -1.074,1.442 -1.749,2.025c-2.056,1.841 -4.042,3.099 -5.96,3.774c-1.918,0.675 -4.165,1.012 -6.742,1.012c-7.425,0 -12.426,-2.669 -15.003,-8.008c-1.442,-2.945 -2.163,-7.287 -2.163,-13.024l0,-30.236l13.438,0l0,30.236c0,2.853 0.337,5.001 1.012,6.443c1.197,2.547 3.544,3.82 7.041,3.82c4.479,0 7.548,-1.81 9.204,-5.431c0.859,-1.964 1.289,-4.556 1.289,-7.778l0,-27.291l13.3,0l0,50.163l-12.748,0l0,-7.087Z"/>
            </g>
            <g transform="matrix(1.003883,0,0,1.003883,29159.584435,30263.449027)">
                <g>
                    <g transform="matrix(41.506,0,0,41.506,0,0)">
                        <path d="M0.074,-0.717l0.139,0l0.206,0.606l0.205,-0.606l0.138,0l0,0.717l-0.092,-0l0,-0.423c0,-0.015 0,-0.039 0.001,-0.073c0.001,-0.034 0.001,-0.07 0.001,-0.109l-0.205,0.605l-0.096,-0l-0.206,-0.605l0,0.022c0,0.018 0,0.044 0.001,0.08c0.001,0.036 0.001,0.062 0.001,0.079l0,0.423l-0.093,-0l0,-0.717Z" style="fill:#080605;fill-rule:nonzero;"/>
                    </g>
                    <g transform="matrix(41.506,0,0,41.506,34.574822,0)">
                        <rect x="0.098" y="-0.717" width="0.098" height="0.717" style="fill:#080605;fill-rule:nonzero;"/>
                    </g>
                    <g transform="matrix(41.506,0,0,41.506,46.106519,0)">
                        <path d="M0.352,-0.083c0.033,0 0.06,-0.003 0.081,-0.01c0.038,-0.013 0.069,-0.037 0.093,-0.073c0.019,-0.029 0.033,-0.066 0.042,-0.111c0.005,-0.027 0.007,-0.052 0.007,-0.075c0,-0.089 -0.018,-0.158 -0.053,-0.207c-0.035,-0.049 -0.092,-0.074 -0.171,-0.074l-0.172,0l0,0.551l0.173,0Zm-0.271,-0.634l0.291,0c0.099,0 0.175,0.035 0.229,0.105c0.049,0.063 0.073,0.144 0.073,0.243c0,0.076 -0.014,0.145 -0.043,0.207c-0.05,0.109 -0.137,0.163 -0.26,0.163l-0.29,-0l0,-0.717Z" style="fill:#080605;fill-rule:nonzero;"/>
                    </g>
                    <g transform="matrix(41.506,0,0,41.506,76.080822,0)">
                        <path d="M0.111,-0.516l0.102,0l0,0.106l-0.102,0l0,-0.106Zm0,0.41l0.102,0l0,0.106l-0.102,-0l0,-0.106Z" style="fill:#080605;fill-rule:nonzero;"/>
                    </g>
                    <g transform="matrix(41.506,0,0,41.506,99.144215,0)">
                        <path d="M0.096,-0.495l0,-0.067c0.063,-0.006 0.108,-0.017 0.133,-0.031c0.025,-0.014 0.044,-0.049 0.056,-0.103l0.069,0l0,0.696l-0.094,-0l0,-0.495l-0.165,0Z" style="fill:#080605;fill-rule:nonzero;"/>
                    </g>
                    <g transform="matrix(41.506,0,0,41.506,122.227874,0)">
                        <path d="M0.031,-0c0.003,-0.06 0.016,-0.113 0.037,-0.157c0.022,-0.045 0.064,-0.085 0.127,-0.122l0.094,-0.054c0.042,-0.024 0.071,-0.045 0.088,-0.062c0.027,-0.027 0.04,-0.058 0.04,-0.093c0,-0.041 -0.012,-0.073 -0.037,-0.097c-0.024,-0.024 -0.057,-0.036 -0.098,-0.036c-0.06,0 -0.102,0.023 -0.125,0.068c-0.012,0.024 -0.019,0.058 -0.021,0.102l-0.089,0c0.001,-0.061 0.012,-0.111 0.034,-0.149c0.038,-0.068 0.105,-0.102 0.202,-0.102c0.08,0 0.139,0.022 0.176,0.065c0.037,0.043 0.055,0.091 0.055,0.145c0,0.056 -0.02,0.104 -0.059,0.144c-0.023,0.023 -0.064,0.051 -0.123,0.084l-0.067,0.037c-0.032,0.018 -0.057,0.034 -0.075,0.05c-0.033,0.028 -0.053,0.06 -0.062,0.094l0.382,0l0,0.083l-0.48,-0Z" style="fill:#080605;fill-rule:nonzero;"/>
                    </g>
                    <g transform="matrix(41.506,0,0,41.506,145.311533,0)">
                        <path d="M0.331,-0.248l0,-0.317l-0.224,0.317l0.224,0Zm0.001,0.248l0,-0.171l-0.307,0l0,-0.086l0.32,-0.444l0.074,0l0,0.454l0.103,0l0,0.077l-0.103,0l0,0.171l-0.088,-0Z" style="fill:#080605;fill-rule:nonzero;"/>
                    </g>
                    <g transform="matrix(41.506,0,0,41.506,168.395192,0)">
                        <path d="M0.271,-0.699c0.09,0 0.156,0.037 0.196,0.112c0.031,0.058 0.047,0.137 0.047,0.237c0,0.095 -0.014,0.174 -0.042,0.236c-0.041,0.089 -0.108,0.134 -0.201,0.134c-0.084,0 -0.146,-0.036 -0.188,-0.109c-0.034,-0.061 -0.051,-0.143 -0.051,-0.245c0,-0.079 0.01,-0.148 0.031,-0.205c0.038,-0.106 0.108,-0.159 0.208,-0.159Zm-0.001,0.638c0.046,0 0.082,-0.02 0.109,-0.061c0.027,-0.04 0.041,-0.116 0.041,-0.226c0,-0.079 -0.01,-0.145 -0.029,-0.196c-0.02,-0.051 -0.057,-0.077 -0.114,-0.077c-0.052,0 -0.09,0.024 -0.114,0.073c-0.024,0.049 -0.036,0.12 -0.036,0.215c0,0.071 0.008,0.129 0.023,0.172c0.023,0.066 0.063,0.099 0.12,0.099Z" style="fill:#080605;fill-rule:nonzero;"/>
                    </g>
                    <g transform="matrix(41.506,0,0,41.506,191.478852,0)">
                        <path d="M0.133,-0.169c0.003,0.049 0.021,0.082 0.056,0.101c0.018,0.01 0.038,0.015 0.061,0.015c0.042,0 0.078,-0.017 0.107,-0.052c0.03,-0.035 0.051,-0.106 0.063,-0.213c-0.02,0.031 -0.044,0.053 -0.073,0.065c-0.029,0.013 -0.06,0.019 -0.093,0.019c-0.067,0 -0.121,-0.021 -0.16,-0.063c-0.039,-0.042 -0.059,-0.096 -0.059,-0.162c0,-0.063 0.019,-0.119 0.058,-0.167c0.039,-0.048 0.096,-0.072 0.171,-0.072c0.102,0 0.172,0.046 0.211,0.138c0.021,0.05 0.032,0.114 0.032,0.189c0,0.086 -0.013,0.161 -0.039,0.228c-0.043,0.11 -0.115,0.165 -0.217,0.165c-0.068,0 -0.12,-0.018 -0.156,-0.054c-0.035,-0.036 -0.053,-0.081 -0.053,-0.135l0.089,0Zm0.133,-0.144c0.035,0 0.067,-0.011 0.095,-0.034c0.029,-0.023 0.043,-0.063 0.043,-0.12c0,-0.051 -0.013,-0.09 -0.039,-0.115c-0.026,-0.025 -0.059,-0.038 -0.099,-0.038c-0.043,0 -0.077,0.014 -0.102,0.043c-0.025,0.029 -0.038,0.067 -0.038,0.115c0,0.046 0.011,0.082 0.033,0.109c0.022,0.027 0.057,0.04 0.106,0.04Z" style="fill:#080605;fill-rule:nonzero;"/>
                    </g>
                    <g transform="matrix(41.506,0,0,41.506,214.562511,0)">
                        <path d="M0.031,-0c0.003,-0.06 0.016,-0.113 0.037,-0.157c0.022,-0.045 0.064,-0.085 0.127,-0.122l0.094,-0.054c0.042,-0.024 0.071,-0.045 0.088,-0.062c0.027,-0.027 0.04,-0.058 0.04,-0.093c0,-0.041 -0.012,-0.073 -0.037,-0.097c-0.024,-0.024 -0.057,-0.036 -0.098,-0.036c-0.06,0 -0.102,0.023 -0.125,0.068c-0.012,0.024 -0.019,0.058 -0.021,0.102l-0.089,0c0.001,-0.061 0.012,-0.111 0.034,-0.149c0.038,-0.068 0.105,-0.102 0.202,-0.102c0.08,0 0.139,0.022 0.176,0.065c0.037,0.043 0.055,0.091 0.055,0.145c0,0.056 -0.02,0.104 -0.059,0.144c-0.023,0.023 -0.064,0.051 -0.123,0.084l-0.067,0.037c-0.032,0.018 -0.057,0.034 -0.075,0.05c-0.033,0.028 -0.053,0.06 -0.062,0.094l0.382,0l0,0.083l-0.48,-0Z" style="fill:#080605;fill-rule:nonzero;"/>
                    </g>
                    <g transform="matrix(41.506,0,0,41.506,237.64617,0)">
                        <path d="M0.292,-0.702c0.078,0 0.133,0.02 0.163,0.061c0.031,0.041 0.046,0.082 0.046,0.125l-0.087,0c-0.005,-0.028 -0.014,-0.049 -0.025,-0.065c-0.021,-0.029 -0.053,-0.044 -0.096,-0.044c-0.049,0 -0.088,0.023 -0.117,0.068c-0.029,0.045 -0.045,0.11 -0.048,0.195c0.02,-0.03 0.046,-0.052 0.076,-0.066c0.028,-0.013 0.059,-0.02 0.094,-0.02c0.059,0 0.11,0.019 0.153,0.056c0.044,0.037 0.065,0.093 0.065,0.167c0,0.063 -0.021,0.12 -0.062,0.169c-0.041,0.049 -0.1,0.073 -0.177,0.073c-0.065,0 -0.122,-0.025 -0.169,-0.074c-0.048,-0.05 -0.071,-0.133 -0.071,-0.251c0,-0.087 0.011,-0.161 0.032,-0.221c0.041,-0.116 0.115,-0.174 0.223,-0.174Zm-0.006,0.642c0.046,0 0.081,-0.016 0.104,-0.047c0.023,-0.031 0.034,-0.068 0.034,-0.11c0,-0.036 -0.01,-0.07 -0.031,-0.102c-0.021,-0.032 -0.058,-0.049 -0.112,-0.049c-0.038,0 -0.071,0.013 -0.099,0.038c-0.028,0.025 -0.043,0.063 -0.043,0.113c0,0.044 0.013,0.081 0.039,0.112c0.026,0.03 0.062,0.045 0.108,0.045Z" style="fill:#080605;fill-rule:nonzero;"/>
                    </g>
                    <g transform="matrix(41.506,0,0,41.506,260.729829,0)">
                        <path d="M0.031,-0c0.003,-0.06 0.016,-0.113 0.037,-0.157c0.022,-0.045 0.064,-0.085 0.127,-0.122l0.094,-0.054c0.042,-0.024 0.071,-0.045 0.088,-0.062c0.027,-0.027 0.04,-0.058 0.04,-0.093c0,-0.041 -0.012,-0.073 -0.037,-0.097c-0.024,-0.024 -0.057,-0.036 -0.098,-0.036c-0.06,0 -0.102,0.023 -0.125,0.068c-0.012,0.024 -0.019,0.058 -0.021,0.102l-0.089,0c0.001,-0.061 0.012,-0.111 0.034,-0.149c0.038,-0.068 0.105,-0.102 0.202,-0.102c0.08,0 0.139,0.022 0.176,0.065c0.037,0.043 0.055,0.091 0.055,0.145c0,0.056 -0.02,0.104 -0.059,0.144c-0.023,0.023 -0.064,0.051 -0.123,0.084l-0.067,0.037c-0.032,0.018 -0.057,0.034 -0.075,0.05c-0.033,0.028 -0.053,0.06 -0.062,0.094l0.382,0l0,0.083l-0.48,-0Z" style="fill:#080605;fill-rule:nonzero;"/>
                    </g>
                    <g transform="matrix(41.506,0,0,41.506,283.813488,0)">
                        <path d="M0.271,-0.699c0.09,0 0.156,0.037 0.196,0.112c0.031,0.058 0.047,0.137 0.047,0.237c0,0.095 -0.014,0.174 -0.042,0.236c-0.041,0.089 -0.108,0.134 -0.201,0.134c-0.084,0 -0.146,-0.036 -0.188,-0.109c-0.034,-0.061 -0.051,-0.143 -0.051,-0.245c0,-0.079 0.01,-0.148 0.031,-0.205c0.038,-0.106 0.108,-0.159 0.208,-0.159Zm-0.001,0.638c0.046,0 0.082,-0.02 0.109,-0.061c0.027,-0.04 0.041,-0.116 0.041,-0.226c0,-0.079 -0.01,-0.145 -0.029,-0.196c-0.02,-0.051 -0.057,-0.077 -0.114,-0.077c-0.052,0 -0.09,0.024 -0.114,0.073c-0.024,0.049 -0.036,0.12 -0.036,0.215c0,0.071 0.008,0.129 0.023,0.172c0.023,0.066 0.063,0.099 0.12,0.099Z" style="fill:#080605;fill-rule:nonzero;"/>
                    </g>
                    <g transform="matrix(41.506,0,0,41.506,306.897147,0)">
                        <path d="M0.031,-0c0.003,-0.06 0.016,-0.113 0.037,-0.157c0.022,-0.045 0.064,-0.085 0.127,-0.122l0.094,-0.054c0.042,-0.024 0.071,-0.045 0.088,-0.062c0.027,-0.027 0.04,-0.058 0.04,-0.093c0,-0.041 -0.012,-0.073 -0.037,-0.097c-0.024,-0.024 -0.057,-0.036 -0.098,-0.036c-0.06,0 -0.102,0.023 -0.125,0.068c-0.012,0.024 -0.019,0.058 -0.021,0.102l-0.089,0c0.001,-0.061 0.012,-0.111 0.034,-0.149c0.038,-0.068 0.105,-0.102 0.202,-0.102c0.08,0 0.139,0.022 0.176,0.065c0.037,0.043 0.055,0.091 0.055,0.145c0,0.056 -0.02,0.104 -0.059,0.144c-0.023,0.023 -0.064,0.051 -0.123,0.084l-0.067,0.037c-0.032,0.018 -0.057,0.034 -0.075,0.05c-0.033,0.028 -0.053,0.06 -0.062,0.094l0.382,0l0,0.083l-0.48,-0Z" style="fill:#080605;fill-rule:nonzero;"/>
                    </g>
                    <g transform="matrix(41.506,0,0,41.506,329.980807,0)">
                        <path d="M0.133,-0.169c0.003,0.049 0.021,0.082 0.056,0.101c0.018,0.01 0.038,0.015 0.061,0.015c0.042,0 0.078,-0.017 0.107,-0.052c0.03,-0.035 0.051,-0.106 0.063,-0.213c-0.02,0.031 -0.044,0.053 -0.073,0.065c-0.029,0.013 -0.06,0.019 -0.093,0.019c-0.067,0 -0.121,-0.021 -0.16,-0.063c-0.039,-0.042 -0.059,-0.096 -0.059,-0.162c0,-0.063 0.019,-0.119 0.058,-0.167c0.039,-0.048 0.096,-0.072 0.171,-0.072c0.102,0 0.172,0.046 0.211,0.138c0.021,0.05 0.032,0.114 0.032,0.189c0,0.086 -0.013,0.161 -0.039,0.228c-0.043,0.11 -0.115,0.165 -0.217,0.165c-0.068,0 -0.12,-0.018 -0.156,-0.054c-0.035,-0.036 -0.053,-0.081 -0.053,-0.135l0.089,0Zm0.133,-0.144c0.035,0 0.067,-0.011 0.095,-0.034c0.029,-0.023 0.043,-0.063 0.043,-0.12c0,-0.051 -0.013,-0.09 -0.039,-0.115c-0.026,-0.025 -0.059,-0.038 -0.099,-0.038c-0.043,0 -0.077,0.014 -0.102,0.043c-0.025,0.029 -0.038,0.067 -0.038,0.115c0,0.046 0.011,0.082 0.033,0.109c0.022,0.027 0.057,0.04 0.106,0.04Z" style="fill:#080605;fill-rule:nonzero;"/>
                    </g>
                    <g transform="matrix(41.506,0,0,41.506,353.064466,0)">
                        <path d="M0.096,-0.495l0,-0.067c0.063,-0.006 0.108,-0.017 0.133,-0.031c0.025,-0.014 0.044,-0.049 0.056,-0.103l0.069,0l0,0.696l-0.094,-0l0,-0.495l-0.165,0Z" style="fill:#080605;fill-rule:nonzero;"/>
                    </g>
                    <g transform="matrix(41.506,0,0,41.506,376.148125,0)">
                        <path d="M0.133,-0.169c0.003,0.049 0.021,0.082 0.056,0.101c0.018,0.01 0.038,0.015 0.061,0.015c0.042,0 0.078,-0.017 0.107,-0.052c0.03,-0.035 0.051,-0.106 0.063,-0.213c-0.02,0.031 -0.044,0.053 -0.073,0.065c-0.029,0.013 -0.06,0.019 -0.093,0.019c-0.067,0 -0.121,-0.021 -0.16,-0.063c-0.039,-0.042 -0.059,-0.096 -0.059,-0.162c0,-0.063 0.019,-0.119 0.058,-0.167c0.039,-0.048 0.096,-0.072 0.171,-0.072c0.102,0 0.172,0.046 0.211,0.138c0.021,0.05 0.032,0.114 0.032,0.189c0,0.086 -0.013,0.161 -0.039,0.228c-0.043,0.11 -0.115,0.165 -0.217,0.165c-0.068,0 -0.12,-0.018 -0.156,-0.054c-0.035,-0.036 -0.053,-0.081 -0.053,-0.135l0.089,0Zm0.133,-0.144c0.035,0 0.067,-0.011 0.095,-0.034c0.029,-0.023 0.043,-0.063 0.043,-0.12c0,-0.051 -0.013,-0.09 -0.039,-0.115c-0.026,-0.025 -0.059,-0.038 -0.099,-0.038c-0.043,0 -0.077,0.014 -0.102,0.043c-0.025,0.029 -0.038,0.067 -0.038,0.115c0,0.046 0.011,0.082 0.033,0.109c0.022,0.027 0.057,0.04 0.106,0.04Z" style="fill:#080605;fill-rule:nonzero;"/>
                    </g>
                    <g transform="matrix(41.506,0,0,41.506,399.231784,0)">
                        <path d="M0.271,-0.699c0.09,0 0.156,0.037 0.196,0.112c0.031,0.058 0.047,0.137 0.047,0.237c0,0.095 -0.014,0.174 -0.042,0.236c-0.041,0.089 -0.108,0.134 -0.201,0.134c-0.084,0 -0.146,-0.036 -0.188,-0.109c-0.034,-0.061 -0.051,-0.143 -0.051,-0.245c0,-0.079 0.01,-0.148 0.031,-0.205c0.038,-0.106 0.108,-0.159 0.208,-0.159Zm-0.001,0.638c0.046,0 0.082,-0.02 0.109,-0.061c0.027,-0.04 0.041,-0.116 0.041,-0.226c0,-0.079 -0.01,-0.145 -0.029,-0.196c-0.02,-0.051 -0.057,-0.077 -0.114,-0.077c-0.052,0 -0.09,0.024 -0.114,0.073c-0.024,0.049 -0.036,0.12 -0.036,0.215c0,0.071 0.008,0.129 0.023,0.172c0.023,0.066 0.063,0.099 0.12,0.099Z" style="fill:#080605;fill-rule:nonzero;"/>
                    </g>
                    <g transform="matrix(41.506,0,0,41.506,422.315443,0)">
                        <path d="M0.292,-0.702c0.078,0 0.133,0.02 0.163,0.061c0.031,0.041 0.046,0.082 0.046,0.125l-0.087,0c-0.005,-0.028 -0.014,-0.049 -0.025,-0.065c-0.021,-0.029 -0.053,-0.044 -0.096,-0.044c-0.049,0 -0.088,0.023 -0.117,0.068c-0.029,0.045 -0.045,0.11 -0.048,0.195c0.02,-0.03 0.046,-0.052 0.076,-0.066c0.028,-0.013 0.059,-0.02 0.094,-0.02c0.059,0 0.11,0.019 0.153,0.056c0.044,0.037 0.065,0.093 0.065,0.167c0,0.063 -0.021,0.12 -0.062,0.169c-0.041,0.049 -0.1,0.073 -0.177,0.073c-0.065,0 -0.122,-0.025 -0.169,-0.074c-0.048,-0.05 -0.071,-0.133 -0.071,-0.251c0,-0.087 0.011,-0.161 0.032,-0.221c0.041,-0.116 0.115,-0.174 0.223,-0.174Zm-0.006,0.642c0.046,0 0.081,-0.016 0.104,-0.047c0.023,-0.031 0.034,-0.068 0.034,-0.11c0,-0.036 -0.01,-0.07 -0.031,-0.102c-0.021,-0.032 -0.058,-0.049 -0.112,-0.049c-0.038,0 -0.071,0.013 -0.099,0.038c-0.028,0.025 -0.043,0.063 -0.043,0.113c0,0.044 0.013,0.081 0.039,0.112c0.026,0.03 0.062,0.045 0.108,0.045Z" style="fill:#080605;fill-rule:nonzero;"/>
                    </g>
                </g>
            </g>
            <g transform="matrix(4.043934,0,0,4.013959,27523.760655,27857.193031)">
                <path d="M396.336,349.961l-2.606,0l0,2.625l2.606,0l0,-2.625Zm2.605,0l-2.605,0l0,2.625l2.605,0l0,-2.625Zm2.606,0l-2.606,0l0,2.625l2.606,0l0,-2.625Zm2.605,0l-2.605,0l0,2.625l2.605,0l0,-2.625Zm2.602,0l-2.602,0l0,2.625l2.602,0l0,-2.625Zm2.605,0l-2.605,0l0,2.625l2.605,0l0,-2.625Zm2.606,0l-2.606,0l0,2.625l2.606,0l0,-2.625Zm5.211,0l-2.606,0l0,2.625l2.606,0l0,-2.625Zm2.605,0l-2.605,0l0,2.625l2.605,0l0,-2.625Zm2.606,0l-2.606,0l0,2.625l2.606,0l0,-2.625Zm5.211,0l-2.606,0l0,2.625l2.606,0l0,-2.625Zm2.601,0l-2.601,0l0,2.625l2.601,0l0,-2.625Zm2.606,0l-2.606,0l0,2.625l2.606,0l0,-2.625Zm2.605,0l-2.605,0l0,2.625l2.605,0l0,-2.625Zm5.211,0l-2.605,0l0,2.625l2.605,0l0,-2.625Zm13.024,0l-2.606,0l0,2.625l2.606,0l0,-2.625Zm2.605,0l-2.605,0l0,2.625l2.605,0l0,-2.625Zm5.211,0l-2.606,0l0,2.625l2.606,0l0,-2.625Zm13.023,0l-2.601,0l0,2.625l2.601,0l0,-2.625Zm7.817,0l-2.606,0l0,2.625l2.606,0l0,-2.625Zm13.023,0l-2.601,0l0,2.625l2.601,0l0,-2.625Zm5.211,0l-2.605,0l0,2.625l2.605,0l0,-2.625Zm2.606,0l-2.606,0l0,2.625l2.606,0l0,-2.625Zm2.605,0l-2.605,0l0,2.625l2.605,0l0,-2.625Zm10.422,0l-2.605,0l0,2.625l2.605,0l0,-2.625Zm2.602,0l-2.602,0l0,2.625l2.602,0l0,-2.625Zm2.605,0l-2.605,0l0,2.625l2.605,0l0,-2.625Zm2.605,0l-2.605,0l0,2.625l2.605,0l0,-2.625Zm2.606,0l-2.606,0l0,2.625l2.606,0l0,-2.625Zm2.605,0l-2.605,0l0,2.625l2.605,0l0,-2.625Zm2.606,0l-2.606,0l0,2.625l2.606,0l0,-2.625Zm-135.461,2.625l-2.606,0l0,2.625l2.606,0l0,-2.625Zm15.629,0l-2.606,0l0,2.625l2.606,0l0,-2.625Zm7.816,0l-2.605,0l0,2.625l2.605,0l0,-2.625Zm2.606,0l-2.606,0l0,2.625l2.606,0l0,-2.625Zm5.211,0l-2.606,0l0,2.625l2.606,0l0,-2.625Zm2.601,0l-2.601,0l0,2.625l2.601,0l0,-2.625Zm2.606,0l-2.606,0l0,2.625l2.606,0l0,-2.625Zm7.816,0l-2.605,0l0,2.625l2.605,0l0,-2.625Zm5.211,0l-2.605,0l0,2.625l2.605,0l0,-2.625Zm2.606,0l-2.606,0l0,2.625l2.606,0l0,-2.625Zm5.207,0l-2.606,0l0,2.625l2.606,0l0,-2.625Zm5.21,0l-2.605,0l0,2.625l2.605,0l0,-2.625Zm13.028,0l-2.606,0l0,2.625l2.606,0l0,-2.625Zm5.207,0l-2.606,0l0,2.625l2.606,0l0,-2.625Zm5.211,0l-2.606,0l0,2.625l2.606,0l0,-2.625Zm10.422,0l-2.606,0l0,2.625l2.606,0l0,-2.625Zm2.601,0l-2.601,0l0,2.625l2.601,0l0,-2.625Zm2.606,0l-2.606,0l0,2.625l2.606,0l0,-2.625Zm7.816,0l-2.605,0l0,2.625l2.605,0l0,-2.625Zm2.606,0l-2.606,0l0,2.625l2.606,0l0,-2.625Zm7.816,0l-2.605,0l0,2.625l2.605,0l0,-2.625Zm15.629,0l-2.606,0l0,2.625l2.606,0l0,-2.625Zm-135.461,2.625l-2.606,0l0,2.625l2.606,0l0,-2.625Zm5.211,0l-2.606,0l0,2.625l2.606,0l0,-2.625Zm2.605,0l-2.605,0l0,2.625l2.605,0l0,-2.625Zm2.602,0l-2.602,0l0,2.625l2.602,0l0,-2.625Zm5.211,0l-2.606,0l0,2.625l2.606,0l0,-2.625Zm5.211,0l-2.606,0l0,2.625l2.606,0l0,-2.625Zm7.816,0l-2.605,0l0,2.625l2.605,0l0,-2.625Zm5.207,0l-2.601,0l0,2.625l2.601,0l0,-2.625Zm5.211,0l-2.605,0l0,2.625l2.605,0l0,-2.625Zm2.606,0l-2.606,0l0,2.625l2.606,0l0,-2.625Zm2.605,0l-2.605,0l0,2.625l2.605,0l0,-2.625Zm2.606,0l-2.606,0l0,2.625l2.606,0l0,-2.625Zm2.605,0l-2.605,0l0,2.625l2.605,0l0,-2.625Zm2.606,0l-2.606,0l0,2.625l2.606,0l0,-2.625Zm5.207,0l-2.606,0l0,2.625l2.606,0l0,-2.625Zm10.421,0l-2.605,0l0,2.625l2.605,0l0,-2.625Zm2.606,0l-2.606,0l0,2.625l2.606,0l0,-2.625Zm13.023,0l-2.605,0l0,2.625l2.605,0l0,-2.625Zm13.028,0l-2.606,0l0,2.625l2.606,0l0,-2.625Zm2.601,0l-2.601,0l0,2.625l2.601,0l0,-2.625Zm2.606,0l-2.606,0l0,2.625l2.606,0l0,-2.625Zm2.605,0l-2.605,0l0,2.625l2.605,0l0,-2.625Zm2.606,0l-2.606,0l0,2.625l2.606,0l0,-2.625Zm5.211,0l-2.606,0l0,2.625l2.606,0l0,-2.625Zm7.816,0l-2.605,0l0,2.625l2.605,0l0,-2.625Zm5.207,0l-2.605,0l0,2.625l2.605,0l0,-2.625Zm2.605,0l-2.605,0l0,2.625l2.605,0l0,-2.625Zm2.606,0l-2.606,0l0,2.625l2.606,0l0,-2.625Zm5.211,0l-2.606,0l0,2.625l2.606,0l0,-2.625Zm-135.461,2.625l-2.606,0l0,2.625l2.606,0l0,-2.625Zm5.211,0l-2.606,0l0,2.625l2.606,0l0,-2.625Zm2.605,0l-2.605,0l0,2.625l2.605,0l0,-2.625Zm2.602,0l-2.602,0l0,2.625l2.602,0l0,-2.625Zm5.211,0l-2.606,0l0,2.625l2.606,0l0,-2.625Zm5.211,0l-2.606,0l0,2.625l2.606,0l0,-2.625Zm2.605,0l-2.605,0l0,2.625l2.605,0l0,-2.625Zm5.211,0l-2.605,0l0,2.625l2.605,0l0,-2.625Zm7.813,0l-2.606,0l0,2.625l2.606,0l0,-2.625Zm13.027,0l-2.605,0l0,2.625l2.605,0l0,-2.625Zm5.207,0l-2.601,0l0,2.625l2.601,0l0,-2.625Zm2.606,0l-2.606,0l0,2.625l2.606,0l0,-2.625Zm5.21,0l-2.605,0l0,2.625l2.605,0l0,-2.625Zm7.817,0l-2.606,0l0,2.625l2.606,0l0,-2.625Zm2.605,0l-2.605,0l0,2.625l2.605,0l0,-2.625Zm2.606,0l-2.606,0l0,2.625l2.606,0l0,-2.625Zm2.601,0l-2.601,0l0,2.625l2.601,0l0,-2.625Zm5.211,0l-2.605,0l0,2.625l2.605,0l0,-2.625Zm5.211,0l-2.605,0l0,2.625l2.605,0l0,-2.625Zm15.629,0l-2.605,0l0,2.625l2.605,0l0,-2.625Zm2.606,0l-2.606,0l0,2.625l2.606,0l0,-2.625Zm2.605,0l-2.605,0l0,2.625l2.605,0l0,-2.625Zm5.211,0l-2.605,0l0,2.625l2.605,0l0,-2.625Zm5.211,0l-2.605,0l0,2.625l2.605,0l0,-2.625Zm5.207,0l-2.605,0l0,2.625l2.605,0l0,-2.625Zm2.605,0l-2.605,0l0,2.625l2.605,0l0,-2.625Zm2.606,0l-2.606,0l0,2.625l2.606,0l0,-2.625Zm5.211,0l-2.606,0l0,2.625l2.606,0l0,-2.625Zm-135.461,2.625l-2.606,0l0,2.625l2.606,0l0,-2.625Zm5.211,0l-2.606,0l0,2.625l2.606,0l0,-2.625Zm2.605,0l-2.605,0l0,2.625l2.605,0l0,-2.625Zm2.602,0l-2.602,0l0,2.625l2.602,0l0,-2.625Zm5.211,0l-2.606,0l0,2.625l2.606,0l0,-2.625Zm5.211,0l-2.606,0l0,2.625l2.606,0l0,-2.625Zm7.816,0l-2.605,0l0,2.625l2.605,0l0,-2.625Zm5.207,0l-2.601,0l0,2.625l2.601,0l0,-2.625Zm5.211,0l-2.605,0l0,2.625l2.605,0l0,-2.625Zm2.606,0l-2.606,0l0,2.625l2.606,0l0,-2.625Zm2.605,0l-2.605,0l0,2.625l2.605,0l0,-2.625Zm7.817,0l-2.606,0l0,2.625l2.606,0l0,-2.625Zm5.207,0l-2.606,0l0,2.625l2.606,0l0,-2.625Zm2.605,0l-2.605,0l0,2.625l2.605,0l0,-2.625Zm2.605,0l-2.605,0l0,2.625l2.605,0l0,-2.625Zm2.606,0l-2.606,0l0,2.625l2.606,0l0,-2.625Zm2.605,0l-2.605,0l0,2.625l2.605,0l0,-2.625Zm2.606,0l-2.606,0l0,2.625l2.606,0l0,-2.625Zm2.605,0l-2.605,0l0,2.625l2.605,0l0,-2.625Zm2.606,0l-2.606,0l0,2.625l2.606,0l0,-2.625Zm2.601,0l-2.601,0l0,2.625l2.601,0l0,-2.625Zm7.817,0l-2.606,0l0,2.625l2.606,0l0,-2.625Zm5.211,0l-2.606,0l0,2.625l2.606,0l0,-2.625Zm5.211,0l-2.606,0l0,2.625l2.606,0l0,-2.625Zm5.207,0l-2.606,0l0,2.625l2.606,0l0,-2.625Zm2.605,0l-2.605,0l0,2.625l2.605,0l0,-2.625Zm2.606,0l-2.606,0l0,2.625l2.606,0l0,-2.625Zm2.605,0l-2.605,0l0,2.625l2.605,0l0,-2.625Zm10.422,0l-2.605,0l0,2.625l2.605,0l0,-2.625Zm5.207,0l-2.605,0l0,2.625l2.605,0l0,-2.625Zm2.605,0l-2.605,0l0,2.625l2.605,0l0,-2.625Zm2.606,0l-2.606,0l0,2.625l2.606,0l0,-2.625Zm5.211,0l-2.606,0l0,2.625l2.606,0l0,-2.625Zm-135.461,2.625l-2.606,0l0,2.621l2.606,0l0,-2.621Zm15.629,0l-2.606,0l0,2.621l2.606,0l0,-2.621Zm5.211,0l-2.606,0l0,2.621l2.606,0l0,-2.621Zm10.422,0l-2.606,0l0,2.621l2.606,0l0,-2.621Zm2.601,0l-2.601,0l0,2.621l2.601,0l0,-2.621Zm2.606,0l-2.606,0l0,2.621l2.606,0l0,-2.621Zm7.816,0l-2.605,0l0,2.621l2.605,0l0,-2.621Zm10.418,0l-2.601,0l0,2.621l2.601,0l0,-2.621Zm2.606,0l-2.606,0l0,2.621l2.606,0l0,-2.621Zm2.605,0l-2.605,0l0,2.621l2.605,0l0,-2.621Zm2.605,0l-2.605,0l0,2.621l2.605,0l0,-2.621Zm10.422,0l-2.605,0l0,2.621l2.605,0l0,-2.621Zm2.606,0l-2.606,0l0,2.621l2.606,0l0,-2.621Zm7.812,0l-2.605,0l0,2.621l2.605,0l0,-2.621Zm2.606,0l-2.606,0l0,2.621l2.606,0l0,-2.621Zm5.211,0l-2.606,0l0,2.621l2.606,0l0,-2.621Zm7.812,0l-2.601,0l0,2.621l2.601,0l0,-2.621Zm2.606,0l-2.606,0l0,2.621l2.606,0l0,-2.621Zm2.605,0l-2.605,0l0,2.621l2.605,0l0,-2.621Zm2.606,0l-2.606,0l0,2.621l2.606,0l0,-2.621Zm2.605,0l-2.605,0l0,2.621l2.605,0l0,-2.621Zm10.422,0l-2.605,0l0,2.621l2.605,0l0,-2.621Zm15.629,0l-2.606,0l0,2.621l2.606,0l0,-2.621Zm-135.461,2.621l-2.606,0l0,2.625l2.606,0l0,-2.625Zm2.605,0l-2.605,0l0,2.625l2.605,0l0,-2.625Zm2.606,0l-2.606,0l0,2.625l2.606,0l0,-2.625Zm2.605,0l-2.605,0l0,2.625l2.605,0l0,-2.625Zm2.602,0l-2.602,0l0,2.625l2.602,0l0,-2.625Zm2.605,0l-2.605,0l0,2.625l2.605,0l0,-2.625Zm2.606,0l-2.606,0l0,2.625l2.606,0l0,-2.625Zm5.211,0l-2.606,0l0,2.625l2.606,0l0,-2.625Zm5.211,0l-2.606,0l0,2.625l2.606,0l0,-2.625Zm5.211,0l-2.606,0l0,2.625l2.606,0l0,-2.625Zm5.207,0l-2.606,0l0,2.625l2.606,0l0,-2.625Zm5.211,0l-2.606,0l0,2.625l2.606,0l0,-2.625Zm5.211,0l-2.606,0l0,2.625l2.606,0l0,-2.625Zm5.211,0l-2.606,0l0,2.625l2.606,0l0,-2.625Zm5.207,0l-2.606,0l0,2.625l2.606,0l0,-2.625Zm5.21,0l-2.605,0l0,2.625l2.605,0l0,-2.625Zm5.211,0l-2.605,0l0,2.625l2.605,0l0,-2.625Zm5.211,0l-2.605,0l0,2.625l2.605,0l0,-2.625Zm5.207,0l-2.601,0l0,2.625l2.601,0l0,-2.625Zm5.211,0l-2.605,0l0,2.625l2.605,0l0,-2.625Zm5.211,0l-2.605,0l0,2.625l2.605,0l0,-2.625Zm5.211,0l-2.605,0l0,2.625l2.605,0l0,-2.625Zm5.207,0l-2.601,0l0,2.625l2.601,0l0,-2.625Zm5.211,0l-2.605,0l0,2.625l2.605,0l0,-2.625Zm5.211,0l-2.605,0l0,2.625l2.605,0l0,-2.625Zm5.211,0l-2.605,0l0,2.625l2.605,0l0,-2.625Zm5.211,0l-2.605,0l0,2.625l2.605,0l0,-2.625Zm2.602,0l-2.602,0l0,2.625l2.602,0l0,-2.625Zm2.605,0l-2.605,0l0,2.625l2.605,0l0,-2.625Zm2.605,0l-2.605,0l0,2.625l2.605,0l0,-2.625Zm2.606,0l-2.606,0l0,2.625l2.606,0l0,-2.625Zm2.605,0l-2.605,0l0,2.625l2.605,0l0,-2.625Zm2.606,0l-2.606,0l0,2.625l2.606,0l0,-2.625Zm-109.41,2.625l-2.606,0l0,2.625l2.606,0l0,-2.625Zm2.605,0l-2.605,0l0,2.625l2.605,0l0,-2.625Zm2.606,0l-2.606,0l0,2.625l2.606,0l0,-2.625Zm2.601,0l-2.601,0l0,2.625l2.601,0l0,-2.625Zm2.606,0l-2.606,0l0,2.625l2.606,0l0,-2.625Zm5.211,0l-2.606,0l0,2.625l2.606,0l0,-2.625Zm5.211,0l-2.606,0l0,2.625l2.606,0l0,-2.625Zm2.605,0l-2.605,0l0,2.625l2.605,0l0,-2.625Zm13.023,0l-2.605,0l0,2.625l2.605,0l0,-2.625Zm10.422,0l-2.605,0l0,2.625l2.605,0l0,-2.625Zm13.024,0l-2.606,0l0,2.625l2.606,0l0,-2.625Zm2.605,0l-2.605,0l0,2.625l2.605,0l0,-2.625Zm2.606,0l-2.606,0l0,2.625l2.606,0l0,-2.625Zm2.605,0l-2.605,0l0,2.625l2.605,0l0,-2.625Zm2.606,0l-2.606,0l0,2.625l2.606,0l0,-2.625Zm5.207,0l-2.606,0l0,2.625l2.606,0l0,-2.625Zm5.211,0l-2.606,0l0,2.625l2.606,0l0,-2.625Zm5.211,0l-2.606,0l0,2.625l2.606,0l0,-2.625Zm-106.805,2.625l-2.606,0l0,2.625l2.606,0l0,-2.625Zm2.605,0l-2.605,0l0,2.625l2.605,0l0,-2.625Zm2.602,0l-2.602,0l0,2.625l2.602,0l0,-2.625Zm2.605,0l-2.605,0l0,2.625l2.605,0l0,-2.625Zm2.606,0l-2.606,0l0,2.625l2.606,0l0,-2.625Zm2.605,0l-2.605,0l0,2.625l2.605,0l0,-2.625Zm5.211,0l-2.605,0l0,2.625l2.605,0l0,-2.625Zm5.211,0l-2.605,0l0,2.625l2.605,0l0,-2.625Zm2.606,0l-2.606,0l0,2.625l2.606,0l0,-2.625Zm2.601,0l-2.601,0l0,2.625l2.601,0l0,-2.625Zm2.606,0l-2.606,0l0,2.625l2.606,0l0,-2.625Zm2.605,0l-2.605,0l0,2.625l2.605,0l0,-2.625Zm5.211,0l-2.605,0l0,2.625l2.605,0l0,-2.625Zm2.606,0l-2.606,0l0,2.625l2.606,0l0,-2.625Zm5.211,0l-2.606,0l0,2.625l2.606,0l0,-2.625Zm2.601,0l-2.601,0l0,2.625l2.601,0l0,-2.625Zm7.816,0l-2.605,0l0,2.625l2.605,0l0,-2.625Zm2.606,0l-2.606,0l0,2.625l2.606,0l0,-2.625Zm2.605,0l-2.605,0l0,2.625l2.605,0l0,-2.625Zm2.606,0l-2.606,0l0,2.625l2.606,0l0,-2.625Zm2.605,0l-2.605,0l0,2.625l2.605,0l0,-2.625Zm5.207,0l-2.601,0l0,2.625l2.601,0l0,-2.625Zm5.211,0l-2.605,0l0,2.625l2.605,0l0,-2.625Zm2.606,0l-2.606,0l0,2.625l2.606,0l0,-2.625Zm2.605,0l-2.605,0l0,2.625l2.605,0l0,-2.625Zm10.418,0l-2.601,0l0,2.625l2.601,0l0,-2.625Zm2.606,0l-2.606,0l0,2.625l2.606,0l0,-2.625Zm15.633,0l-2.606,0l0,2.625l2.606,0l0,-2.625Zm5.207,0l-2.602,0l0,2.625l2.602,0l0,-2.625Zm2.605,0l-2.605,0l0,2.625l2.605,0l0,-2.625Zm2.605,0l-2.605,0l0,2.625l2.605,0l0,-2.625Zm2.606,0l-2.606,0l0,2.625l2.606,0l0,-2.625Zm5.211,0l-2.606,0l0,2.625l2.606,0l0,-2.625Zm-135.461,2.625l-2.606,0l0,2.625l2.606,0l0,-2.625Zm2.605,0l-2.605,0l0,2.625l2.605,0l0,-2.625Zm2.606,0l-2.606,0l0,2.625l2.606,0l0,-2.625Zm2.605,0l-2.605,0l0,2.625l2.605,0l0,-2.625Zm2.602,0l-2.602,0l0,2.625l2.602,0l0,-2.625Zm2.605,0l-2.605,0l0,2.625l2.605,0l0,-2.625Zm5.211,0l-2.605,0l0,2.625l2.605,0l0,-2.625Zm2.606,0l-2.606,0l0,2.625l2.606,0l0,-2.625Zm2.605,0l-2.605,0l0,2.625l2.605,0l0,-2.625Zm7.817,0l-2.606,0l0,2.625l2.606,0l0,-2.625Zm2.601,0l-2.601,0l0,2.625l2.601,0l0,-2.625Zm5.211,0l-2.605,0l0,2.625l2.605,0l0,-2.625Zm2.606,0l-2.606,0l0,2.625l2.606,0l0,-2.625Zm7.816,0l-2.605,0l0,2.625l2.605,0l0,-2.625Zm2.606,0l-2.606,0l0,2.625l2.606,0l0,-2.625Zm2.601,0l-2.601,0l0,2.625l2.601,0l0,-2.625Zm2.606,0l-2.606,0l0,2.625l2.606,0l0,-2.625Zm7.816,0l-2.606,0l0,2.625l2.606,0l0,-2.625Zm10.422,0l-2.606,0l0,2.625l2.606,0l0,-2.625Zm2.601,0l-2.601,0l0,2.625l2.601,0l0,-2.625Zm2.606,0l-2.606,0l0,2.625l2.606,0l0,-2.625Zm2.605,0l-2.605,0l0,2.625l2.605,0l0,-2.625Zm5.211,0l-2.605,0l0,2.625l2.605,0l0,-2.625Zm2.606,0l-2.606,0l0,2.625l2.606,0l0,-2.625Zm5.211,0l-2.606,0l0,2.625l2.606,0l0,-2.625Zm10.418,0l-2.606,0l0,2.625l2.606,0l0,-2.625Zm5.211,0l-2.606,0l0,2.625l2.606,0l0,-2.625Zm5.211,0l-2.606,0l0,2.625l2.606,0l0,-2.625Zm2.605,0l-2.605,0l0,2.625l2.605,0l0,-2.625Zm2.602,0l-2.602,0l0,2.625l2.602,0l0,-2.625Zm13.027,0l-2.606,0l0,2.625l2.606,0l0,-2.625Zm-135.461,2.625l-2.606,0l0,2.625l2.606,0l0,-2.625Zm5.211,0l-2.606,0l0,2.625l2.606,0l0,-2.625Zm2.605,0l-2.605,0l0,2.625l2.605,0l0,-2.625Zm7.813,0l-2.606,0l0,2.625l2.606,0l0,-2.625Zm2.605,0l-2.605,0l0,2.625l2.605,0l0,-2.625Zm13.028,0l-2.606,0l0,2.625l2.606,0l0,-2.625Zm2.601,0l-2.601,0l0,2.625l2.601,0l0,-2.625Zm2.606,0l-2.606,0l0,2.625l2.606,0l0,-2.625Zm2.605,0l-2.605,0l0,2.625l2.605,0l0,-2.625Zm2.606,0l-2.606,0l0,2.625l2.606,0l0,-2.625Zm2.605,0l-2.605,0l0,2.625l2.605,0l0,-2.625Zm7.817,0l-2.606,0l0,2.625l2.606,0l0,-2.625Zm5.207,0l-2.606,0l0,2.625l2.606,0l0,-2.625Zm5.21,0l-2.605,0l0,2.625l2.605,0l0,-2.625Zm2.606,0l-2.606,0l0,2.625l2.606,0l0,-2.625Zm5.211,0l-2.606,0l0,2.625l2.606,0l0,-2.625Zm13.023,0l-2.605,0l0,2.625l2.605,0l0,-2.625Zm5.211,0l-2.605,0l0,2.625l2.605,0l0,-2.625Zm2.606,0l-2.606,0l0,2.625l2.606,0l0,-2.625Zm2.605,0l-2.605,0l0,2.625l2.605,0l0,-2.625Zm2.606,0l-2.606,0l0,2.625l2.606,0l0,-2.625Zm2.601,0l-2.601,0l0,2.625l2.601,0l0,-2.625Zm2.606,0l-2.606,0l0,2.625l2.606,0l0,-2.625Zm2.605,0l-2.605,0l0,2.625l2.605,0l0,-2.625Zm7.817,0l-2.606,0l0,2.625l2.606,0l0,-2.625Zm2.605,0l-2.605,0l0,2.625l2.605,0l0,-2.625Zm2.606,0l-2.606,0l0,2.625l2.606,0l0,-2.625Zm7.812,0l-2.605,0l0,2.625l2.605,0l0,-2.625Zm7.816,0l-2.605,0l0,2.625l2.605,0l0,-2.625Zm2.606,0l-2.606,0l0,2.625l2.606,0l0,-2.625Zm-130.25,2.625l-2.606,0l0,2.625l2.606,0l0,-2.625Zm15.629,0l-2.606,0l0,2.625l2.606,0l0,-2.625Zm5.211,0l-2.606,0l0,2.625l2.606,0l0,-2.625Zm7.812,0l-2.601,0l0,2.625l2.601,0l0,-2.625Zm5.211,0l-2.605,0l0,2.625l2.605,0l0,-2.625Zm2.606,0l-2.606,0l0,2.625l2.606,0l0,-2.625Zm10.422,0l-2.606,0l0,2.625l2.606,0l0,-2.625Zm2.601,0l-2.601,0l0,2.625l2.601,0l0,-2.625Zm5.211,0l-2.605,0l0,2.625l2.605,0l0,-2.625Zm7.816,0l-2.605,0l0,2.625l2.605,0l0,-2.625Zm2.606,0l-2.606,0l0,2.625l2.606,0l0,-2.625Zm7.812,0l-2.601,0l0,2.625l2.601,0l0,-2.625Zm5.211,0l-2.605,0l0,2.625l2.605,0l0,-2.625Zm2.606,0l-2.606,0l0,2.625l2.606,0l0,-2.625Zm2.605,0l-2.605,0l0,2.625l2.605,0l0,-2.625Zm2.606,0l-2.606,0l0,2.625l2.606,0l0,-2.625Zm2.605,0l-2.605,0l0,2.625l2.605,0l0,-2.625Zm2.606,0l-2.606,0l0,2.625l2.606,0l0,-2.625Zm2.601,0l-2.601,0l0,2.625l2.601,0l0,-2.625Zm7.817,0l-2.606,0l0,2.625l2.606,0l0,-2.625Zm7.816,0l-2.605,0l0,2.625l2.605,0l0,-2.625Zm2.606,0l-2.606,0l0,2.625l2.606,0l0,-2.625Zm5.207,0l-2.602,0l0,2.625l2.602,0l0,-2.625Zm2.605,0l-2.605,0l0,2.625l2.605,0l0,-2.625Zm2.605,0l-2.605,0l0,2.625l2.605,0l0,-2.625Zm2.606,0l-2.606,0l0,2.625l2.606,0l0,-2.625Zm2.605,0l-2.605,0l0,2.625l2.605,0l0,-2.625Zm-132.855,2.625l-2.606,0l0,2.622l2.606,0l0,-2.622Zm2.605,0l-2.605,0l0,2.622l2.605,0l0,-2.622Zm2.606,0l-2.606,0l0,2.622l2.606,0l0,-2.622Zm10.418,0l-2.606,0l0,2.622l2.606,0l0,-2.622Zm5.211,0l-2.606,0l0,2.622l2.606,0l0,-2.622Zm2.605,0l-2.605,0l0,2.622l2.605,0l0,-2.622Zm2.606,0l-2.606,0l0,2.622l2.606,0l0,-2.622Zm5.211,0l-2.606,0l0,2.622l2.606,0l0,-2.622Zm5.207,0l-2.606,0l0,2.622l2.606,0l0,-2.622Zm7.816,0l-2.605,0l0,2.622l2.605,0l0,-2.622Zm7.817,0l-2.606,0l0,2.622l2.606,0l0,-2.622Zm2.601,0l-2.601,0l0,2.622l2.601,0l0,-2.622Zm5.211,0l-2.605,0l0,2.622l2.605,0l0,-2.622Zm10.422,0l-2.606,0l0,2.622l2.606,0l0,-2.622Zm7.812,0l-2.601,0l0,2.622l2.601,0l0,-2.622Zm10.422,0l-2.605,0l0,2.622l2.605,0l0,-2.622Zm2.606,0l-2.606,0l0,2.622l2.606,0l0,-2.622Zm2.605,0l-2.605,0l0,2.622l2.605,0l0,-2.622Zm5.207,0l-2.601,0l0,2.622l2.601,0l0,-2.622Zm5.211,0l-2.605,0l0,2.622l2.605,0l0,-2.622Zm7.817,0l-2.606,0l0,2.622l2.606,0l0,-2.622Zm5.211,0l-2.606,0l0,2.622l2.606,0l0,-2.622Zm2.605,0l-2.605,0l0,2.622l2.605,0l0,-2.622Zm2.602,0l-2.602,0l0,2.622l2.602,0l0,-2.622Zm2.605,0l-2.605,0l0,2.622l2.605,0l0,-2.622Zm10.422,0l-2.606,0l0,2.622l2.606,0l0,-2.622Zm-135.461,2.622l-2.606,0l0,2.625l2.606,0l0,-2.625Zm2.605,0l-2.605,0l0,2.625l2.605,0l0,-2.625Zm5.211,0l-2.605,0l0,2.625l2.605,0l0,-2.625Zm13.024,0l-2.606,0l0,2.625l2.606,0l0,-2.625Zm2.605,0l-2.605,0l0,2.625l2.605,0l0,-2.625Zm2.606,0l-2.606,0l0,2.625l2.606,0l0,-2.625Zm7.812,0l-2.601,0l0,2.625l2.601,0l0,-2.625Zm2.606,0l-2.606,0l0,2.625l2.606,0l0,-2.625Zm2.605,0l-2.605,0l0,2.625l2.605,0l0,-2.625Zm2.606,0l-2.606,0l0,2.625l2.606,0l0,-2.625Zm13.023,0l-2.601,0l0,2.625l2.601,0l0,-2.625Zm5.211,0l-2.605,0l0,2.625l2.605,0l0,-2.625Zm5.211,0l-2.606,0l0,2.625l2.606,0l0,-2.625Zm2.605,0l-2.605,0l0,2.625l2.605,0l0,-2.625Zm2.606,0l-2.606,0l0,2.625l2.606,0l0,-2.625Zm5.211,0l-2.606,0l0,2.625l2.606,0l0,-2.625Zm2.601,0l-2.601,0l0,2.625l2.601,0l0,-2.625Zm7.817,0l-2.606,0l0,2.625l2.606,0l0,-2.625Zm10.422,0l-2.606,0l0,2.625l2.606,0l0,-2.625Zm2.601,0l-2.601,0l0,2.625l2.601,0l0,-2.625Zm13.028,0l-2.606,0l0,2.625l2.606,0l0,-2.625Zm5.211,0l-2.606,0l0,2.625l2.606,0l0,-2.625Zm2.605,0l-2.605,0l0,2.625l2.605,0l0,-2.625Zm2.602,0l-2.602,0l0,2.625l2.602,0l0,-2.625Zm7.816,0l-2.606,0l0,2.625l2.606,0l0,-2.625Zm-125.039,2.625l-2.606,0l0,2.625l2.606,0l0,-2.625Zm7.812,0l-2.605,0l0,2.625l2.605,0l0,-2.625Zm2.606,0l-2.606,0l0,2.625l2.606,0l0,-2.625Zm2.605,0l-2.605,0l0,2.625l2.605,0l0,-2.625Zm2.606,0l-2.606,0l0,2.625l2.606,0l0,-2.625Zm5.211,0l-2.606,0l0,2.625l2.606,0l0,-2.625Zm7.812,0l-2.601,0l0,2.625l2.601,0l0,-2.625Zm5.211,0l-2.605,0l0,2.625l2.605,0l0,-2.625Zm2.606,0l-2.606,0l0,2.625l2.606,0l0,-2.625Zm2.605,0l-2.605,0l0,2.625l2.605,0l0,-2.625Zm2.606,0l-2.606,0l0,2.625l2.606,0l0,-2.625Zm5.211,0l-2.606,0l0,2.625l2.606,0l0,-2.625Zm5.207,0l-2.606,0l0,2.625l2.606,0l0,-2.625Zm2.605,0l-2.605,0l0,2.625l2.605,0l0,-2.625Zm10.422,0l-2.606,0l0,2.625l2.606,0l0,-2.625Zm2.605,0l-2.605,0l0,2.625l2.605,0l0,-2.625Zm5.207,0l-2.601,0l0,2.625l2.601,0l0,-2.625Zm13.028,0l-2.606,0l0,2.625l2.606,0l0,-2.625Zm2.605,0l-2.605,0l0,2.625l2.605,0l0,-2.625Zm5.207,0l-2.601,0l0,2.625l2.601,0l0,-2.625Zm2.606,0l-2.606,0l0,2.625l2.606,0l0,-2.625Zm2.605,0l-2.605,0l0,2.625l2.605,0l0,-2.625Zm2.606,0l-2.606,0l0,2.625l2.606,0l0,-2.625Zm2.605,0l-2.605,0l0,2.625l2.605,0l0,-2.625Zm2.606,0l-2.606,0l0,2.625l2.606,0l0,-2.625Zm5.211,0l-2.606,0l0,2.625l2.606,0l0,-2.625Zm5.207,0l-2.602,0l0,2.625l2.602,0l0,-2.625Zm5.21,0l-2.605,0l0,2.625l2.605,0l0,-2.625Zm-127.644,2.625l-2.606,0l0,2.625l2.606,0l0,-2.625Zm23.445,0l-2.605,0l0,2.625l2.605,0l0,-2.625Zm2.606,0l-2.606,0l0,2.625l2.606,0l0,-2.625Zm2.605,0l-2.605,0l0,2.625l2.605,0l0,-2.625Zm2.606,0l-2.606,0l0,2.625l2.606,0l0,-2.625Zm7.812,0l-2.605,0l0,2.625l2.605,0l0,-2.625Zm2.606,0l-2.606,0l0,2.625l2.606,0l0,-2.625Zm7.816,0l-2.605,0l0,2.625l2.605,0l0,-2.625Zm2.606,0l-2.606,0l0,2.625l2.606,0l0,-2.625Zm5.207,0l-2.606,0l0,2.625l2.606,0l0,-2.625Zm15.632,0l-2.605,0l0,2.625l2.605,0l0,-2.625Zm5.207,0l-2.601,0l0,2.625l2.601,0l0,-2.625Zm5.211,0l-2.605,0l0,2.625l2.605,0l0,-2.625Zm7.817,0l-2.606,0l0,2.625l2.606,0l0,-2.625Zm5.211,0l-2.606,0l0,2.625l2.606,0l0,-2.625Zm2.601,0l-2.601,0l0,2.625l2.601,0l0,-2.625Zm2.606,0l-2.606,0l0,2.625l2.606,0l0,-2.625Zm5.211,0l-2.606,0l0,2.625l2.606,0l0,-2.625Zm5.211,0l-2.606,0l0,2.625l2.606,0l0,-2.625Zm7.816,0l-2.605,0l0,2.625l2.605,0l0,-2.625Zm2.602,0l-2.602,0l0,2.625l2.602,0l0,-2.625Zm2.605,0l-2.605,0l0,2.625l2.605,0l0,-2.625Zm2.605,0l-2.605,0l0,2.625l2.605,0l0,-2.625Zm2.606,0l-2.606,0l0,2.625l2.606,0l0,-2.625Zm2.605,0l-2.605,0l0,2.625l2.605,0l0,-2.625Zm2.606,0l-2.606,0l0,2.625l2.606,0l0,-2.625Zm-132.856,2.625l-2.605,0l0,2.625l2.605,0l0,-2.625Zm2.606,0l-2.606,0l0,2.625l2.606,0l0,-2.625Zm2.605,0l-2.605,0l0,2.625l2.605,0l0,-2.625Zm2.602,0l-2.602,0l0,2.625l2.602,0l0,-2.625Zm5.211,0l-2.606,0l0,2.625l2.606,0l0,-2.625Zm7.816,0l-2.605,0l0,2.625l2.605,0l0,-2.625Zm2.606,0l-2.606,0l0,2.625l2.606,0l0,-2.625Zm2.605,0l-2.605,0l0,2.625l2.605,0l0,-2.625Zm2.606,0l-2.606,0l0,2.625l2.606,0l0,-2.625Zm10.418,0l-2.606,0l0,2.625l2.606,0l0,-2.625Zm5.211,0l-2.606,0l0,2.625l2.606,0l0,-2.625Zm5.211,0l-2.606,0l0,2.625l2.606,0l0,-2.625Zm7.812,0l-2.605,0l0,2.625l2.605,0l0,-2.625Zm2.605,0l-2.605,0l0,2.625l2.605,0l0,-2.625Zm2.606,0l-2.606,0l0,2.625l2.606,0l0,-2.625Zm2.605,0l-2.605,0l0,2.625l2.605,0l0,-2.625Zm2.606,0l-2.606,0l0,2.625l2.606,0l0,-2.625Zm2.605,0l-2.605,0l0,2.625l2.605,0l0,-2.625Zm2.606,0l-2.606,0l0,2.625l2.606,0l0,-2.625Zm7.812,0l-2.605,0l0,2.625l2.605,0l0,-2.625Zm5.211,0l-2.605,0l0,2.625l2.605,0l0,-2.625Zm5.211,0l-2.605,0l0,2.625l2.605,0l0,-2.625Zm10.418,0l-2.605,0l0,2.625l2.605,0l0,-2.625Zm10.422,0l-2.605,0l0,2.625l2.605,0l0,-2.625Zm5.211,0l-2.605,0l0,2.625l2.605,0l0,-2.625Zm2.602,0l-2.602,0l0,2.625l2.602,0l0,-2.625Zm5.21,0l-2.605,0l0,2.625l2.605,0l0,-2.625Zm2.606,0l-2.606,0l0,2.625l2.606,0l0,-2.625Zm2.605,0l-2.605,0l0,2.625l2.605,0l0,-2.625Zm2.606,0l-2.606,0l0,2.625l2.606,0l0,-2.625Zm-130.25,2.625l-2.606,0l0,2.625l2.606,0l0,-2.625Zm2.605,0l-2.605,0l0,2.625l2.605,0l0,-2.625Zm10.418,0l-2.605,0l0,2.625l2.605,0l0,-2.625Zm26.051,0l-2.605,0l0,2.625l2.605,0l0,-2.625Zm5.211,0l-2.605,0l0,2.625l2.605,0l0,-2.625Zm5.207,0l-2.601,0l0,2.625l2.601,0l0,-2.625Zm2.606,0l-2.606,0l0,2.625l2.606,0l0,-2.625Zm18.238,0l-2.606,0l0,2.625l2.606,0l0,-2.625Zm5.207,0l-2.606,0l0,2.625l2.606,0l0,-2.625Zm2.605,0l-2.605,0l0,2.625l2.605,0l0,-2.625Zm2.606,0l-2.606,0l0,2.625l2.606,0l0,-2.625Zm5.211,0l-2.606,0l0,2.625l2.606,0l0,-2.625Zm7.812,0l-2.601,0l0,2.625l2.601,0l0,-2.625Zm2.606,0l-2.606,0l0,2.625l2.606,0l0,-2.625Zm2.605,0l-2.605,0l0,2.625l2.605,0l0,-2.625Zm5.211,0l-2.605,0l0,2.625l2.605,0l0,-2.625Zm2.606,0l-2.606,0l0,2.625l2.606,0l0,-2.625Zm5.211,0l-2.606,0l0,2.625l2.606,0l0,-2.625Zm2.605,0l-2.605,0l0,2.625l2.605,0l0,-2.625Zm2.602,0l-2.602,0l0,2.625l2.602,0l0,-2.625Zm2.605,0l-2.605,0l0,2.625l2.605,0l0,-2.625Zm2.605,0l-2.605,0l0,2.625l2.605,0l0,-2.625Zm-127.644,2.625l-2.606,0l0,2.625l2.606,0l0,-2.625Zm2.605,0l-2.605,0l0,2.625l2.605,0l0,-2.625Zm7.813,0l-2.602,0l0,2.625l2.602,0l0,-2.625Zm5.211,0l-2.606,0l0,2.625l2.606,0l0,-2.625Zm7.816,0l-2.605,0l0,2.625l2.605,0l0,-2.625Zm2.606,0l-2.606,0l0,2.625l2.606,0l0,-2.625Zm2.605,0l-2.605,0l0,2.625l2.605,0l0,-2.625Zm7.813,0l-2.606,0l0,2.625l2.606,0l0,-2.625Zm10.422,0l-2.606,0l0,2.625l2.606,0l0,-2.625Zm10.418,0l-2.606,0l0,2.625l2.606,0l0,-2.625Zm2.605,0l-2.605,0l0,2.625l2.605,0l0,-2.625Zm5.211,0l-2.606,0l0,2.625l2.606,0l0,-2.625Zm2.605,0l-2.605,0l0,2.625l2.605,0l0,-2.625Zm5.211,0l-2.605,0l0,2.625l2.605,0l0,-2.625Zm2.606,0l-2.606,0l0,2.625l2.606,0l0,-2.625Zm13.023,0l-2.605,0l0,2.625l2.605,0l0,-2.625Zm7.817,0l-2.606,0l0,2.625l2.606,0l0,-2.625Zm5.207,0l-2.606,0l0,2.625l2.606,0l0,-2.625Zm2.605,0l-2.605,0l0,2.625l2.605,0l0,-2.625Zm5.211,0l-2.605,0l0,2.625l2.605,0l0,-2.625Zm2.606,0l-2.606,0l0,2.625l2.606,0l0,-2.625Zm10.418,0l-2.602,0l0,2.625l2.602,0l0,-2.625Zm2.605,0l-2.605,0l0,2.625l2.605,0l0,-2.625Zm2.605,0l-2.605,0l0,2.625l2.605,0l0,-2.625Zm2.606,0l-2.606,0l0,2.625l2.606,0l0,-2.625Zm2.605,0l-2.605,0l0,2.625l2.605,0l0,-2.625Zm2.606,0l-2.606,0l0,2.625l2.606,0l0,-2.625Zm-125.043,2.625l-2.602,0l0,2.621l2.602,0l0,-2.621Zm7.816,0l-2.605,0l0,2.621l2.605,0l0,-2.621Zm2.606,0l-2.606,0l0,2.621l2.606,0l0,-2.621Zm2.605,0l-2.605,0l0,2.621l2.605,0l0,-2.621Zm2.606,0l-2.606,0l0,2.621l2.606,0l0,-2.621Zm10.418,0l-2.606,0l0,2.621l2.606,0l0,-2.621Zm5.211,0l-2.606,0l0,2.621l2.606,0l0,-2.621Zm2.605,0l-2.605,0l0,2.621l2.605,0l0,-2.621Zm2.606,0l-2.606,0l0,2.621l2.606,0l0,-2.621Zm2.605,0l-2.605,0l0,2.621l2.605,0l0,-2.621Zm13.023,0l-2.605,0l0,2.621l2.605,0l0,-2.621Zm7.817,0l-2.606,0l0,2.621l2.606,0l0,-2.621Zm5.211,0l-2.606,0l0,2.621l2.606,0l0,-2.621Zm5.207,0l-2.606,0l0,2.621l2.606,0l0,-2.621Zm2.605,0l-2.605,0l0,2.621l2.605,0l0,-2.621Zm7.817,0l-2.606,0l0,2.621l2.606,0l0,-2.621Zm2.605,0l-2.605,0l0,2.621l2.605,0l0,-2.621Zm2.606,0l-2.606,0l0,2.621l2.606,0l0,-2.621Zm2.601,0l-2.601,0l0,2.621l2.601,0l0,-2.621Zm2.606,0l-2.606,0l0,2.621l2.606,0l0,-2.621Zm2.605,0l-2.605,0l0,2.621l2.605,0l0,-2.621Zm2.606,0l-2.606,0l0,2.621l2.606,0l0,-2.621Zm13.027,0l-2.605,0l0,2.621l2.605,0l0,-2.621Zm2.602,0l-2.602,0l0,2.621l2.602,0l0,-2.621Zm2.605,0l-2.605,0l0,2.621l2.605,0l0,-2.621Zm2.605,0l-2.605,0l0,2.621l2.605,0l0,-2.621Zm2.606,0l-2.606,0l0,2.621l2.606,0l0,-2.621Zm2.605,0l-2.605,0l0,2.621l2.605,0l0,-2.621Zm2.606,0l-2.606,0l0,2.621l2.606,0l0,-2.621Zm-132.856,2.621l-2.605,0l0,2.625l2.605,0l0,-2.625Zm10.418,0l-2.605,0l0,2.625l2.605,0l0,-2.625Zm2.606,0l-2.606,0l0,2.625l2.606,0l0,-2.625Zm2.605,0l-2.605,0l0,2.625l2.605,0l0,-2.625Zm10.422,0l-2.605,0l0,2.625l2.605,0l0,-2.625Zm2.606,0l-2.606,0l0,2.625l2.606,0l0,-2.625Zm5.207,0l-2.606,0l0,2.625l2.606,0l0,-2.625Zm13.027,0l-2.605,0l0,2.625l2.605,0l0,-2.625Zm2.606,0l-2.606,0l0,2.625l2.606,0l0,-2.625Zm2.601,0l-2.601,0l0,2.625l2.601,0l0,-2.625Zm7.816,0l-2.605,0l0,2.625l2.605,0l0,-2.625Zm2.606,0l-2.606,0l0,2.625l2.606,0l0,-2.625Zm5.211,0l-2.606,0l0,2.625l2.606,0l0,-2.625Zm2.605,0l-2.605,0l0,2.625l2.605,0l0,-2.625Zm2.606,0l-2.606,0l0,2.625l2.606,0l0,-2.625Zm5.207,0l-2.606,0l0,2.625l2.606,0l0,-2.625Zm2.605,0l-2.605,0l0,2.625l2.605,0l0,-2.625Zm7.817,0l-2.606,0l0,2.625l2.606,0l0,-2.625Zm2.605,0l-2.605,0l0,2.625l2.605,0l0,-2.625Zm2.606,0l-2.606,0l0,2.625l2.606,0l0,-2.625Zm5.207,0l-2.606,0l0,2.625l2.606,0l0,-2.625Zm5.211,0l-2.606,0l0,2.625l2.606,0l0,-2.625Zm5.211,0l-2.606,0l0,2.625l2.606,0l0,-2.625Zm2.605,0l-2.605,0l0,2.625l2.605,0l0,-2.625Zm2.606,0l-2.606,0l0,2.625l2.606,0l0,-2.625Zm2.605,0l-2.605,0l0,2.625l2.605,0l0,-2.625Zm13.023,0l-2.605,0l0,2.625l2.605,0l0,-2.625Zm2.606,0l-2.606,0l0,2.625l2.606,0l0,-2.625Zm-132.856,2.625l-2.605,0l0,2.625l2.605,0l0,-2.625Zm5.211,0l-2.605,0l0,2.625l2.605,0l0,-2.625Zm5.207,0l-2.605,0l0,2.625l2.605,0l0,-2.625Zm7.817,0l-2.606,0l0,2.625l2.606,0l0,-2.625Zm7.816,0l-2.605,0l0,2.625l2.605,0l0,-2.625Zm5.207,0l-2.601,0l0,2.625l2.601,0l0,-2.625Zm2.606,0l-2.606,0l0,2.625l2.606,0l0,-2.625Zm5.211,0l-2.606,0l0,2.625l2.606,0l0,-2.625Zm7.816,0l-2.605,0l0,2.625l2.605,0l0,-2.625Zm5.207,0l-2.601,0l0,2.625l2.601,0l0,-2.625Zm2.606,0l-2.606,0l0,2.625l2.606,0l0,-2.625Zm2.605,0l-2.605,0l0,2.625l2.605,0l0,-2.625Zm2.605,0l-2.605,0l0,2.625l2.605,0l0,-2.625Zm5.211,0l-2.605,0l0,2.625l2.605,0l0,-2.625Zm5.211,0l-2.605,0l0,2.625l2.605,0l0,-2.625Zm5.207,0l-2.601,0l0,2.625l2.601,0l0,-2.625Zm2.606,0l-2.606,0l0,2.625l2.606,0l0,-2.625Zm2.605,0l-2.605,0l0,2.625l2.605,0l0,-2.625Zm5.211,0l-2.605,0l0,2.625l2.605,0l0,-2.625Zm5.211,0l-2.605,0l0,2.625l2.605,0l0,-2.625Zm5.207,0l-2.601,0l0,2.625l2.601,0l0,-2.625Zm5.211,0l-2.605,0l0,2.625l2.605,0l0,-2.625Zm5.211,0l-2.605,0l0,2.625l2.605,0l0,-2.625Zm5.211,0l-2.605,0l0,2.625l2.605,0l0,-2.625Zm7.813,0l-2.602,0l0,2.625l2.602,0l0,-2.625Zm5.21,0l-2.605,0l0,2.625l2.605,0l0,-2.625Zm5.211,0l-2.605,0l0,2.625l2.605,0l0,-2.625Zm2.606,0l-2.606,0l0,2.625l2.606,0l0,-2.625Zm-132.856,2.625l-2.605,0l0,2.625l2.605,0l0,-2.625Zm7.813,0l-2.602,0l0,2.625l2.602,0l0,-2.625Zm5.211,0l-2.606,0l0,2.625l2.606,0l0,-2.625Zm7.816,0l-2.605,0l0,2.625l2.605,0l0,-2.625Zm2.606,0l-2.606,0l0,2.625l2.606,0l0,-2.625Zm2.605,0l-2.605,0l0,2.625l2.605,0l0,-2.625Zm5.207,0l-2.601,0l0,2.625l2.601,0l0,-2.625Zm2.606,0l-2.606,0l0,2.625l2.606,0l0,-2.625Zm7.816,0l-2.605,0l0,2.625l2.605,0l0,-2.625Zm2.606,0l-2.606,0l0,2.625l2.606,0l0,-2.625Zm2.605,0l-2.605,0l0,2.625l2.605,0l0,-2.625Zm2.606,0l-2.606,0l0,2.625l2.606,0l0,-2.625Zm13.023,0l-2.606,0l0,2.625l2.606,0l0,-2.625Zm10.422,0l-2.606,0l0,2.625l2.606,0l0,-2.625Zm2.601,0l-2.601,0l0,2.625l2.601,0l0,-2.625Zm7.817,0l-2.606,0l0,2.625l2.606,0l0,-2.625Zm2.605,0l-2.605,0l0,2.625l2.605,0l0,-2.625Zm7.817,0l-2.606,0l0,2.625l2.606,0l0,-2.625Zm20.84,0l-2.606,0l0,2.625l2.606,0l0,-2.625Zm2.605,0l-2.605,0l0,2.625l2.605,0l0,-2.625Zm2.602,0l-2.602,0l0,2.625l2.602,0l0,-2.625Zm2.605,0l-2.605,0l0,2.625l2.605,0l0,-2.625Zm10.422,0l-2.606,0l0,2.625l2.606,0l0,-2.625Zm-132.856,2.625l-2.605,0l0,2.625l2.605,0l0,-2.625Zm5.211,0l-2.605,0l0,2.625l2.605,0l0,-2.625Zm10.418,0l-2.605,0l0,2.625l2.605,0l0,-2.625Zm2.606,0l-2.606,0l0,2.625l2.606,0l0,-2.625Zm2.605,0l-2.605,0l0,2.625l2.605,0l0,-2.625Zm5.211,0l-2.605,0l0,2.625l2.605,0l0,-2.625Zm2.606,0l-2.606,0l0,2.625l2.606,0l0,-2.625Zm2.601,0l-2.601,0l0,2.625l2.601,0l0,-2.625Zm2.606,0l-2.606,0l0,2.625l2.606,0l0,-2.625Zm10.422,0l-2.606,0l0,2.625l2.606,0l0,-2.625Zm13.023,0l-2.605,0l0,2.625l2.605,0l0,-2.625Zm5.211,0l-2.606,0l0,2.625l2.606,0l0,-2.625Zm2.605,0l-2.605,0l0,2.625l2.605,0l0,-2.625Zm2.606,0l-2.606,0l0,2.625l2.606,0l0,-2.625Zm2.605,0l-2.605,0l0,2.625l2.605,0l0,-2.625Zm2.606,0l-2.606,0l0,2.625l2.606,0l0,-2.625Zm5.207,0l-2.606,0l0,2.625l2.606,0l0,-2.625Zm5.211,0l-2.606,0l0,2.625l2.606,0l0,-2.625Zm10.422,0l-2.606,0l0,2.625l2.606,0l0,-2.625Zm10.418,0l-2.606,0l0,2.625l2.606,0l0,-2.625Zm10.422,0l-2.606,0l0,2.625l2.606,0l0,-2.625Zm10.417,0l-2.605,0l0,2.625l2.605,0l0,-2.625Zm5.211,0l-2.605,0l0,2.625l2.605,0l0,-2.625Zm-132.855,2.625l-2.606,0l0,2.625l2.606,0l0,-2.625Zm2.605,0l-2.605,0l0,2.625l2.605,0l0,-2.625Zm2.606,0l-2.606,0l0,2.625l2.606,0l0,-2.625Zm5.207,0l-2.602,0l0,2.625l2.602,0l0,-2.625Zm2.605,0l-2.605,0l0,2.625l2.605,0l0,-2.625Zm2.606,0l-2.606,0l0,2.625l2.606,0l0,-2.625Zm2.605,0l-2.605,0l0,2.625l2.605,0l0,-2.625Zm2.606,0l-2.606,0l0,2.625l2.606,0l0,-2.625Zm2.605,0l-2.605,0l0,2.625l2.605,0l0,-2.625Zm5.211,0l-2.605,0l0,2.625l2.605,0l0,-2.625Zm2.606,0l-2.606,0l0,2.625l2.606,0l0,-2.625Zm2.601,0l-2.601,0l0,2.625l2.601,0l0,-2.625Zm5.211,0l-2.605,0l0,2.625l2.605,0l0,-2.625Zm2.606,0l-2.606,0l0,2.625l2.606,0l0,-2.625Zm2.605,0l-2.605,0l0,2.625l2.605,0l0,-2.625Zm5.211,0l-2.605,0l0,2.625l2.605,0l0,-2.625Zm2.606,0l-2.606,0l0,2.625l2.606,0l0,-2.625Zm2.601,0l-2.601,0l0,2.625l2.601,0l0,-2.625Zm2.606,0l-2.606,0l0,2.625l2.606,0l0,-2.625Zm5.21,0l-2.605,0l0,2.625l2.605,0l0,-2.625Zm2.606,0l-2.606,0l0,2.625l2.606,0l0,-2.625Zm2.605,0l-2.605,0l0,2.625l2.605,0l0,-2.625Zm2.606,0l-2.606,0l0,2.625l2.606,0l0,-2.625Zm2.605,0l-2.605,0l0,2.625l2.605,0l0,-2.625Zm2.606,0l-2.606,0l0,2.625l2.606,0l0,-2.625Zm2.601,0l-2.601,0l0,2.625l2.601,0l0,-2.625Zm5.211,0l-2.605,0l0,2.625l2.605,0l0,-2.625Zm5.211,0l-2.605,0l0,2.625l2.605,0l0,-2.625Zm2.606,0l-2.606,0l0,2.625l2.606,0l0,-2.625Zm5.211,0l-2.606,0l0,2.625l2.606,0l0,-2.625Zm2.601,0l-2.601,0l0,2.625l2.601,0l0,-2.625Zm7.817,0l-2.606,0l0,2.625l2.606,0l0,-2.625Zm5.211,0l-2.606,0l0,2.625l2.606,0l0,-2.625Zm2.605,0l-2.605,0l0,2.625l2.605,0l0,-2.625Zm2.606,0l-2.606,0l0,2.625l2.606,0l0,-2.625Zm2.605,0l-2.605,0l0,2.625l2.605,0l0,-2.625Zm2.602,0l-2.602,0l0,2.625l2.602,0l0,-2.625Zm2.605,0l-2.605,0l0,2.625l2.605,0l0,-2.625Zm2.605,0l-2.605,0l0,2.625l2.605,0l0,-2.625Zm2.606,0l-2.606,0l0,2.625l2.606,0l0,-2.625Zm5.211,0l-2.606,0l0,2.625l2.606,0l0,-2.625Zm-132.856,2.625l-2.605,0l0,2.625l2.605,0l0,-2.625Zm5.211,0l-2.605,0l0,2.625l2.605,0l0,-2.625Zm2.602,0l-2.602,0l0,2.625l2.602,0l0,-2.625Zm10.422,0l-2.606,0l0,2.625l2.606,0l0,-2.625Zm10.422,0l-2.606,0l0,2.625l2.606,0l0,-2.625Zm10.418,0l-2.606,0l0,2.625l2.606,0l0,-2.625Zm2.605,0l-2.605,0l0,2.625l2.605,0l0,-2.625Zm2.606,0l-2.606,0l0,2.625l2.606,0l0,-2.625Zm15.628,0l-2.605,0l0,2.625l2.605,0l0,-2.625Zm10.422,0l-2.605,0l0,2.625l2.605,0l0,-2.625Zm2.606,0l-2.606,0l0,2.625l2.606,0l0,-2.625Zm2.601,0l-2.601,0l0,2.625l2.601,0l0,-2.625Zm5.211,0l-2.605,0l0,2.625l2.605,0l0,-2.625Zm13.028,0l-2.606,0l0,2.625l2.606,0l0,-2.625Zm2.601,0l-2.601,0l0,2.625l2.601,0l0,-2.625Zm2.606,0l-2.606,0l0,2.625l2.606,0l0,-2.625Zm5.211,0l-2.606,0l0,2.625l2.606,0l0,-2.625Zm7.816,0l-2.605,0l0,2.625l2.605,0l0,-2.625Zm10.418,0l-2.605,0l0,2.625l2.605,0l0,-2.625Zm2.605,0l-2.605,0l0,2.625l2.605,0l0,-2.625Zm2.606,0l-2.606,0l0,2.625l2.606,0l0,-2.625Zm2.605,0l-2.605,0l0,2.625l2.605,0l0,-2.625Zm-122.437,2.625l-2.602,0l0,2.621l2.602,0l0,-2.621Zm5.211,0l-2.606,0l0,2.621l2.606,0l0,-2.621Zm5.211,0l-2.606,0l0,2.621l2.606,0l0,-2.621Zm5.211,0l-2.606,0l0,2.621l2.606,0l0,-2.621Zm5.211,0l-2.606,0l0,2.621l2.606,0l0,-2.621Zm10.418,0l-2.606,0l0,2.621l2.606,0l0,-2.621Zm2.605,0l-2.605,0l0,2.621l2.605,0l0,-2.621Zm7.817,0l-2.606,0l0,2.621l2.606,0l0,-2.621Zm2.601,0l-2.601,0l0,2.621l2.601,0l0,-2.621Zm7.816,0l-2.605,0l0,2.621l2.605,0l0,-2.621Zm5.211,0l-2.605,0l0,2.621l2.605,0l0,-2.621Zm5.211,0l-2.605,0l0,2.621l2.605,0l0,-2.621Zm2.606,0l-2.606,0l0,2.621l2.606,0l0,-2.621Zm2.601,0l-2.601,0l0,2.621l2.601,0l0,-2.621Zm2.606,0l-2.606,0l0,2.621l2.606,0l0,-2.621Zm2.605,0l-2.605,0l0,2.621l2.605,0l0,-2.621Zm13.028,0l-2.606,0l0,2.621l2.606,0l0,-2.621Zm10.418,0l-2.606,0l0,2.621l2.606,0l0,-2.621Zm7.816,0l-2.605,0l0,2.621l2.605,0l0,-2.621Zm5.211,0l-2.605,0l0,2.621l2.605,0l0,-2.621Zm5.207,0l-2.605,0l0,2.621l2.605,0l0,-2.621Zm10.422,0l-2.606,0l0,2.621l2.606,0l0,-2.621Zm-132.856,2.621l-2.605,0l0,2.625l2.605,0l0,-2.625Zm2.606,0l-2.606,0l0,2.625l2.606,0l0,-2.625Zm2.605,0l-2.605,0l0,2.625l2.605,0l0,-2.625Zm2.602,0l-2.602,0l0,2.625l2.602,0l0,-2.625Zm10.422,0l-2.606,0l0,2.625l2.606,0l0,-2.625Zm2.605,0l-2.605,0l0,2.625l2.605,0l0,-2.625Zm13.024,0l-2.606,0l0,2.625l2.606,0l0,-2.625Zm2.605,0l-2.605,0l0,2.625l2.605,0l0,-2.625Zm5.211,0l-2.605,0l0,2.625l2.605,0l0,-2.625Zm5.211,0l-2.605,0l0,2.625l2.605,0l0,-2.625Zm5.207,0l-2.601,0l0,2.625l2.601,0l0,-2.625Zm5.211,0l-2.605,0l0,2.625l2.605,0l0,-2.625Zm2.605,0l-2.605,0l0,2.625l2.605,0l0,-2.625Zm10.422,0l-2.605,0l0,2.625l2.605,0l0,-2.625Zm7.813,0l-2.606,0l0,2.625l2.606,0l0,-2.625Zm2.605,0l-2.605,0l0,2.625l2.605,0l0,-2.625Zm2.606,0l-2.606,0l0,2.625l2.606,0l0,-2.625Zm2.605,0l-2.605,0l0,2.625l2.605,0l0,-2.625Zm5.211,0l-2.605,0l0,2.625l2.605,0l0,-2.625Zm7.813,0l-2.606,0l0,2.625l2.606,0l0,-2.625Zm2.605,0l-2.605,0l0,2.625l2.605,0l0,-2.625Zm2.606,0l-2.606,0l0,2.625l2.606,0l0,-2.625Zm7.816,0l-2.605,0l0,2.625l2.605,0l0,-2.625Zm10.418,0l-2.605,0l0,2.625l2.605,0l0,-2.625Zm10.422,0l-2.606,0l0,2.625l2.606,0l0,-2.625Zm-135.461,2.625l-2.606,0l0,2.625l2.606,0l0,-2.625Zm10.418,0l-2.602,0l0,2.625l2.602,0l0,-2.625Zm2.605,0l-2.605,0l0,2.625l2.605,0l0,-2.625Zm2.606,0l-2.606,0l0,2.625l2.606,0l0,-2.625Zm2.605,0l-2.605,0l0,2.625l2.605,0l0,-2.625Zm2.606,0l-2.606,0l0,2.625l2.606,0l0,-2.625Zm2.605,0l-2.605,0l0,2.625l2.605,0l0,-2.625Zm5.211,0l-2.605,0l0,2.625l2.605,0l0,-2.625Zm2.606,0l-2.606,0l0,2.625l2.606,0l0,-2.625Zm2.601,0l-2.601,0l0,2.625l2.601,0l0,-2.625Zm10.422,0l-2.605,0l0,2.625l2.605,0l0,-2.625Zm5.211,0l-2.605,0l0,2.625l2.605,0l0,-2.625Zm7.813,0l-2.606,0l0,2.625l2.606,0l0,-2.625Zm2.605,0l-2.605,0l0,2.625l2.605,0l0,-2.625Zm2.605,0l-2.605,0l0,2.625l2.605,0l0,-2.625Zm2.606,0l-2.606,0l0,2.625l2.606,0l0,-2.625Zm2.605,0l-2.605,0l0,2.625l2.605,0l0,-2.625Zm2.606,0l-2.606,0l0,2.625l2.606,0l0,-2.625Zm2.605,0l-2.605,0l0,2.625l2.605,0l0,-2.625Zm2.606,0l-2.606,0l0,2.625l2.606,0l0,-2.625Zm2.601,0l-2.601,0l0,2.625l2.601,0l0,-2.625Zm10.422,0l-2.605,0l0,2.625l2.605,0l0,-2.625Zm5.211,0l-2.605,0l0,2.625l2.605,0l0,-2.625Zm2.606,0l-2.606,0l0,2.625l2.606,0l0,-2.625Zm2.601,0l-2.601,0l0,2.625l2.601,0l0,-2.625Zm7.817,0l-2.606,0l0,2.625l2.606,0l0,-2.625Zm2.605,0l-2.605,0l0,2.625l2.605,0l0,-2.625Zm5.211,0l-2.605,0l0,2.625l2.605,0l0,-2.625Zm2.606,0l-2.606,0l0,2.625l2.606,0l0,-2.625Zm2.605,0l-2.605,0l0,2.625l2.605,0l0,-2.625Zm2.602,0l-2.602,0l0,2.625l2.602,0l0,-2.625Zm2.605,0l-2.605,0l0,2.625l2.605,0l0,-2.625Zm-122.434,2.625l-2.605,0l0,2.625l2.605,0l0,-2.625Zm7.813,0l-2.602,0l0,2.625l2.602,0l0,-2.625Zm2.605,0l-2.605,0l0,2.625l2.605,0l0,-2.625Zm10.422,0l-2.605,0l0,2.625l2.605,0l0,-2.625Zm7.817,0l-2.606,0l0,2.625l2.606,0l0,-2.625Zm13.023,0l-2.605,0l0,2.625l2.605,0l0,-2.625Zm13.024,0l-2.606,0l0,2.625l2.606,0l0,-2.625Zm7.816,0l-2.606,0l0,2.625l2.606,0l0,-2.625Zm7.816,0l-2.605,0l0,2.625l2.605,0l0,-2.625Zm5.207,0l-2.601,0l0,2.625l2.601,0l0,-2.625Zm2.606,0l-2.606,0l0,2.625l2.606,0l0,-2.625Zm5.211,0l-2.606,0l0,2.625l2.606,0l0,-2.625Zm5.211,0l-2.606,0l0,2.625l2.606,0l0,-2.625Zm5.211,0l-2.606,0l0,2.625l2.606,0l0,-2.625Zm7.812,0l-2.605,0l0,2.625l2.605,0l0,-2.625Zm5.211,0l-2.605,0l0,2.625l2.605,0l0,-2.625Zm7.817,0l-2.606,0l0,2.625l2.606,0l0,-2.625Zm5.207,0l-2.602,0l0,2.625l2.602,0l0,-2.625Zm7.816,0l-2.606,0l0,2.625l2.606,0l0,-2.625Zm5.211,0l-2.606,0l0,2.625l2.606,0l0,-2.625Zm-135.461,2.625l-2.606,0l0,2.625l2.606,0l0,-2.625Zm5.211,0l-2.606,0l0,2.625l2.606,0l0,-2.625Zm2.605,0l-2.605,0l0,2.625l2.605,0l0,-2.625Zm2.602,0l-2.602,0l0,2.625l2.602,0l0,-2.625Zm2.605,0l-2.605,0l0,2.625l2.605,0l0,-2.625Zm2.606,0l-2.606,0l0,2.625l2.606,0l0,-2.625Zm5.211,0l-2.606,0l0,2.625l2.606,0l0,-2.625Zm2.605,0l-2.605,0l0,2.625l2.605,0l0,-2.625Zm2.606,0l-2.606,0l0,2.625l2.606,0l0,-2.625Zm2.605,0l-2.605,0l0,2.625l2.605,0l0,-2.625Zm5.207,0l-2.601,0l0,2.625l2.601,0l0,-2.625Zm2.606,0l-2.606,0l0,2.625l2.606,0l0,-2.625Zm2.605,0l-2.605,0l0,2.625l2.605,0l0,-2.625Zm2.606,0l-2.606,0l0,2.625l2.606,0l0,-2.625Zm2.605,0l-2.605,0l0,2.625l2.605,0l0,-2.625Zm5.211,0l-2.605,0l0,2.625l2.605,0l0,-2.625Zm2.606,0l-2.606,0l0,2.625l2.606,0l0,-2.625Zm2.601,0l-2.601,0l0,2.625l2.601,0l0,-2.625Zm5.211,0l-2.605,0l0,2.625l2.605,0l0,-2.625Zm2.605,0l-2.605,0l0,2.625l2.605,0l0,-2.625Zm2.606,0l-2.606,0l0,2.625l2.606,0l0,-2.625Zm5.211,0l-2.606,0l0,2.625l2.606,0l0,-2.625Zm2.605,0l-2.605,0l0,2.625l2.605,0l0,-2.625Zm2.606,0l-2.606,0l0,2.625l2.606,0l0,-2.625Zm13.023,0l-2.605,0l0,2.625l2.605,0l0,-2.625Zm2.606,0l-2.606,0l0,2.625l2.606,0l0,-2.625Zm2.605,0l-2.605,0l0,2.625l2.605,0l0,-2.625Zm2.606,0l-2.606,0l0,2.625l2.606,0l0,-2.625Zm5.207,0l-2.606,0l0,2.625l2.606,0l0,-2.625Zm5.211,0l-2.606,0l0,2.625l2.606,0l0,-2.625Zm7.816,0l-2.605,0l0,2.625l2.605,0l0,-2.625Zm2.606,0l-2.606,0l0,2.625l2.606,0l0,-2.625Zm5.207,0l-2.602,0l0,2.625l2.602,0l0,-2.625Zm5.21,0l-2.605,0l0,2.625l2.605,0l0,-2.625Zm5.211,0l-2.605,0l0,2.625l2.605,0l0,-2.625Zm2.606,0l-2.606,0l0,2.625l2.606,0l0,-2.625Zm-135.461,2.625l-2.606,0l0,2.625l2.606,0l0,-2.625Zm7.816,0l-2.605,0l0,2.625l2.605,0l0,-2.625Zm13.024,0l-2.606,0l0,2.625l2.606,0l0,-2.625Zm2.605,0l-2.605,0l0,2.625l2.605,0l0,-2.625Zm2.606,0l-2.606,0l0,2.625l2.606,0l0,-2.625Zm2.605,0l-2.605,0l0,2.625l2.605,0l0,-2.625Zm10.418,0l-2.605,0l0,2.625l2.605,0l0,-2.625Zm5.211,0l-2.605,0l0,2.625l2.605,0l0,-2.625Zm5.211,0l-2.605,0l0,2.625l2.605,0l0,-2.625Zm5.207,0l-2.601,0l0,2.625l2.601,0l0,-2.625Zm2.606,0l-2.606,0l0,2.625l2.606,0l0,-2.625Zm5.21,0l-2.605,0l0,2.625l2.605,0l0,-2.625Zm2.606,0l-2.606,0l0,2.625l2.606,0l0,-2.625Zm5.211,0l-2.606,0l0,2.625l2.606,0l0,-2.625Zm5.211,0l-2.606,0l0,2.625l2.606,0l0,-2.625Zm2.601,0l-2.601,0l0,2.625l2.601,0l0,-2.625Zm2.606,0l-2.606,0l0,2.625l2.606,0l0,-2.625Zm5.211,0l-2.606,0l0,2.625l2.606,0l0,-2.625Zm2.605,0l-2.605,0l0,2.625l2.605,0l0,-2.625Zm2.606,0l-2.606,0l0,2.625l2.606,0l0,-2.625Zm10.418,0l-2.606,0l0,2.625l2.606,0l0,-2.625Zm5.211,0l-2.606,0l0,2.625l2.606,0l0,-2.625Zm7.816,0l-2.605,0l0,2.625l2.605,0l0,-2.625Zm10.418,0l-2.605,0l0,2.625l2.605,0l0,-2.625Zm2.605,0l-2.605,0l0,2.625l2.605,0l0,-2.625Zm5.211,0l-2.605,0l0,2.625l2.605,0l0,-2.625Zm-132.855,2.625l-2.606,0l0,2.625l2.606,0l0,-2.625Zm10.418,0l-2.602,0l0,2.625l2.602,0l0,-2.625Zm5.211,0l-2.606,0l0,2.625l2.606,0l0,-2.625Zm7.816,0l-2.605,0l0,2.625l2.605,0l0,-2.625Zm5.211,0l-2.605,0l0,2.625l2.605,0l0,-2.625Zm10.418,0l-2.605,0l0,2.625l2.605,0l0,-2.625Zm10.422,0l-2.605,0l0,2.625l2.605,0l0,-2.625Zm10.418,0l-2.605,0l0,2.625l2.605,0l0,-2.625Zm5.211,0l-2.606,0l0,2.625l2.606,0l0,-2.625Zm5.211,0l-2.606,0l0,2.625l2.606,0l0,-2.625Zm10.418,0l-2.606,0l0,2.625l2.606,0l0,-2.625Zm5.211,0l-2.606,0l0,2.625l2.606,0l0,-2.625Zm5.211,0l-2.606,0l0,2.625l2.606,0l0,-2.625Zm10.418,0l-2.606,0l0,2.625l2.606,0l0,-2.625Zm7.816,0l-2.605,0l0,2.625l2.605,0l0,-2.625Zm2.606,0l-2.606,0l0,2.625l2.606,0l0,-2.625Zm5.211,0l-2.606,0l0,2.625l2.606,0l0,-2.625Zm10.417,0l-2.605,0l0,2.625l2.605,0l0,-2.625Zm5.211,0l-2.605,0l0,2.625l2.605,0l0,-2.625Zm-132.855,2.625l-2.606,0l0,2.621l2.606,0l0,-2.621Zm10.418,0l-2.602,0l0,2.621l2.602,0l0,-2.621Zm10.422,0l-2.606,0l0,2.621l2.606,0l0,-2.621Zm5.211,0l-2.606,0l0,2.621l2.606,0l0,-2.621Zm2.605,0l-2.605,0l0,2.621l2.605,0l0,-2.621Zm2.606,0l-2.606,0l0,2.621l2.606,0l0,-2.621Zm2.601,0l-2.601,0l0,2.621l2.601,0l0,-2.621Zm5.211,0l-2.605,0l0,2.621l2.605,0l0,-2.621Zm2.606,0l-2.606,0l0,2.621l2.606,0l0,-2.621Zm2.605,0l-2.605,0l0,2.621l2.605,0l0,-2.621Zm5.211,0l-2.605,0l0,2.621l2.605,0l0,-2.621Zm7.813,0l-2.606,0l0,2.621l2.606,0l0,-2.621Zm2.605,0l-2.605,0l0,2.621l2.605,0l0,-2.621Zm5.211,0l-2.606,0l0,2.621l2.606,0l0,-2.621Zm10.422,0l-2.606,0l0,2.621l2.606,0l0,-2.621Zm5.207,0l-2.606,0l0,2.621l2.606,0l0,-2.621Zm5.211,0l-2.606,0l0,2.621l2.606,0l0,-2.621Zm7.816,0l-2.605,0l0,2.621l2.605,0l0,-2.621Zm5.207,0l-2.601,0l0,2.621l2.601,0l0,-2.621Zm5.211,0l-2.605,0l0,2.621l2.605,0l0,-2.621Zm5.211,0l-2.605,0l0,2.621l2.605,0l0,-2.621Zm2.606,0l-2.606,0l0,2.621l2.606,0l0,-2.621Zm5.211,0l-2.606,0l0,2.621l2.606,0l0,-2.621Zm7.812,0l-2.605,0l0,2.621l2.605,0l0,-2.621Zm2.605,0l-2.605,0l0,2.621l2.605,0l0,-2.621Zm5.211,0l-2.605,0l0,2.621l2.605,0l0,-2.621Zm2.606,0l-2.606,0l0,2.621l2.606,0l0,-2.621Zm-132.856,2.621l-2.605,0l0,2.625l2.605,0l0,-2.625Zm10.418,0l-2.605,0l0,2.625l2.605,0l0,-2.625Zm2.606,0l-2.606,0l0,2.625l2.606,0l0,-2.625Zm2.605,0l-2.605,0l0,2.625l2.605,0l0,-2.625Zm2.606,0l-2.606,0l0,2.625l2.606,0l0,-2.625Zm5.211,0l-2.606,0l0,2.625l2.606,0l0,-2.625Zm10.418,0l-2.606,0l0,2.625l2.606,0l0,-2.625Zm10.422,0l-2.606,0l0,2.625l2.606,0l0,-2.625Zm2.605,0l-2.605,0l0,2.625l2.605,0l0,-2.625Zm7.813,0l-2.606,0l0,2.625l2.606,0l0,-2.625Zm2.605,0l-2.605,0l0,2.625l2.605,0l0,-2.625Zm7.816,0l-2.605,0l0,2.625l2.605,0l0,-2.625Zm5.211,0l-2.605,0l0,2.625l2.605,0l0,-2.625Zm5.207,0l-2.601,0l0,2.625l2.601,0l0,-2.625Zm10.422,0l-2.605,0l0,2.625l2.605,0l0,-2.625Zm13.024,0l-2.606,0l0,2.625l2.606,0l0,-2.625Zm2.605,0l-2.605,0l0,2.625l2.605,0l0,-2.625Zm5.211,0l-2.605,0l0,2.625l2.605,0l0,-2.625Zm2.606,0l-2.606,0l0,2.625l2.606,0l0,-2.625Zm7.816,0l-2.605,0l0,2.625l2.605,0l0,-2.625Zm5.207,0l-2.605,0l0,2.625l2.605,0l0,-2.625Zm5.211,0l-2.606,0l0,2.625l2.606,0l0,-2.625Zm-125.039,2.625l-2.606,0l0,2.625l2.606,0l0,-2.625Zm5.207,0l-2.602,0l0,2.625l2.602,0l0,-2.625Zm7.816,0l-2.605,0l0,2.625l2.605,0l0,-2.625Zm13.028,0l-2.606,0l0,2.625l2.606,0l0,-2.625Zm2.601,0l-2.601,0l0,2.625l2.601,0l0,-2.625Zm5.211,0l-2.605,0l0,2.625l2.605,0l0,-2.625Zm7.817,0l-2.606,0l0,2.625l2.606,0l0,-2.625Zm2.605,0l-2.605,0l0,2.625l2.605,0l0,-2.625Zm10.418,0l-2.605,0l0,2.625l2.605,0l0,-2.625Zm7.816,0l-2.605,0l0,2.625l2.605,0l0,-2.625Zm2.606,0l-2.606,0l0,2.625l2.606,0l0,-2.625Zm5.211,0l-2.606,0l0,2.625l2.606,0l0,-2.625Zm2.601,0l-2.601,0l0,2.625l2.601,0l0,-2.625Zm5.211,0l-2.605,0l0,2.625l2.605,0l0,-2.625Zm5.211,0l-2.605,0l0,2.625l2.605,0l0,-2.625Zm2.606,0l-2.606,0l0,2.625l2.606,0l0,-2.625Zm10.418,0l-2.606,0l0,2.625l2.606,0l0,-2.625Zm10.422,0l-2.606,0l0,2.625l2.606,0l0,-2.625Zm5.211,0l-2.606,0l0,2.625l2.606,0l0,-2.625Zm2.605,0l-2.605,0l0,2.625l2.605,0l0,-2.625Zm5.207,0l-2.605,0l0,2.625l2.605,0l0,-2.625Zm5.211,0l-2.606,0l0,2.625l2.606,0l0,-2.625Zm5.211,0l-2.606,0l0,2.625l2.606,0l0,-2.625Zm-135.461,2.625l-2.606,0l0,2.625l2.606,0l0,-2.625Zm2.605,0l-2.605,0l0,2.625l2.605,0l0,-2.625Zm5.211,0l-2.605,0l0,2.625l2.605,0l0,-2.625Zm5.207,0l-2.605,0l0,2.625l2.605,0l0,-2.625Zm2.606,0l-2.606,0l0,2.625l2.606,0l0,-2.625Zm5.211,0l-2.606,0l0,2.625l2.606,0l0,-2.625Zm2.605,0l-2.605,0l0,2.625l2.605,0l0,-2.625Zm2.606,0l-2.606,0l0,2.625l2.606,0l0,-2.625Zm5.211,0l-2.606,0l0,2.625l2.606,0l0,-2.625Zm2.601,0l-2.601,0l0,2.625l2.601,0l0,-2.625Zm2.606,0l-2.606,0l0,2.625l2.606,0l0,-2.625Zm5.211,0l-2.606,0l0,2.625l2.606,0l0,-2.625Zm2.605,0l-2.605,0l0,2.625l2.605,0l0,-2.625Zm2.606,0l-2.606,0l0,2.625l2.606,0l0,-2.625Zm5.211,0l-2.606,0l0,2.625l2.606,0l0,-2.625Zm2.601,0l-2.601,0l0,2.625l2.601,0l0,-2.625Zm2.606,0l-2.606,0l0,2.625l2.606,0l0,-2.625Zm5.21,0l-2.605,0l0,2.625l2.605,0l0,-2.625Zm5.211,0l-2.605,0l0,2.625l2.605,0l0,-2.625Zm5.211,0l-2.605,0l0,2.625l2.605,0l0,-2.625Zm5.207,0l-2.601,0l0,2.625l2.601,0l0,-2.625Zm5.211,0l-2.605,0l0,2.625l2.605,0l0,-2.625Zm2.606,0l-2.606,0l0,2.625l2.606,0l0,-2.625Zm7.816,0l-2.605,0l0,2.625l2.605,0l0,-2.625Zm2.606,0l-2.606,0l0,2.625l2.606,0l0,-2.625Zm2.601,0l-2.601,0l0,2.625l2.601,0l0,-2.625Zm5.211,0l-2.605,0l0,2.625l2.605,0l0,-2.625Zm2.606,0l-2.606,0l0,2.625l2.606,0l0,-2.625Zm2.605,0l-2.605,0l0,2.625l2.605,0l0,-2.625Zm5.211,0l-2.605,0l0,2.625l2.605,0l0,-2.625Zm2.606,0l-2.606,0l0,2.625l2.606,0l0,-2.625Zm2.605,0l-2.605,0l0,2.625l2.605,0l0,-2.625Zm5.207,0l-2.605,0l0,2.625l2.605,0l0,-2.625Zm10.422,0l-2.606,0l0,2.625l2.606,0l0,-2.625Zm-132.856,2.625l-2.605,0l0,2.625l2.605,0l0,-2.625Zm10.418,0l-2.605,0l0,2.625l2.605,0l0,-2.625Zm13.028,0l-2.606,0l0,2.625l2.606,0l0,-2.625Zm2.605,0l-2.605,0l0,2.625l2.605,0l0,-2.625Zm2.606,0l-2.606,0l0,2.625l2.606,0l0,-2.625Zm7.812,0l-2.605,0l0,2.625l2.605,0l0,-2.625Zm5.211,0l-2.605,0l0,2.625l2.605,0l0,-2.625Zm13.024,0l-2.606,0l0,2.625l2.606,0l0,-2.625Zm5.21,0l-2.605,0l0,2.625l2.605,0l0,-2.625Zm5.211,0l-2.605,0l0,2.625l2.605,0l0,-2.625Zm2.606,0l-2.606,0l0,2.625l2.606,0l0,-2.625Zm2.605,0l-2.605,0l0,2.625l2.605,0l0,-2.625Zm5.207,0l-2.601,0l0,2.625l2.601,0l0,-2.625Zm7.817,0l-2.606,0l0,2.625l2.606,0l0,-2.625Zm7.816,0l-2.605,0l0,2.625l2.605,0l0,-2.625Zm2.606,0l-2.606,0l0,2.625l2.606,0l0,-2.625Zm5.207,0l-2.606,0l0,2.625l2.606,0l0,-2.625Zm2.605,0l-2.605,0l0,2.625l2.605,0l0,-2.625Zm5.211,0l-2.605,0l0,2.625l2.605,0l0,-2.625Zm2.606,0l-2.606,0l0,2.625l2.606,0l0,-2.625Zm7.816,0l-2.605,0l0,2.625l2.605,0l0,-2.625Zm10.418,0l-2.606,0l0,2.625l2.606,0l0,-2.625Zm5.211,0l-2.606,0l0,2.625l2.606,0l0,-2.625Zm-132.856,2.625l-2.605,0l0,2.625l2.605,0l0,-2.625Zm10.418,0l-2.605,0l0,2.625l2.605,0l0,-2.625Zm2.606,0l-2.606,0l0,2.625l2.606,0l0,-2.625Zm5.211,0l-2.606,0l0,2.625l2.606,0l0,-2.625Zm5.211,0l-2.606,0l0,2.625l2.606,0l0,-2.625Zm10.418,0l-2.606,0l0,2.625l2.606,0l0,-2.625Zm2.605,0l-2.605,0l0,2.625l2.605,0l0,-2.625Zm7.817,0l-2.606,0l0,2.625l2.606,0l0,-2.625Zm5.211,0l-2.606,0l0,2.625l2.606,0l0,-2.625Zm5.207,0l-2.606,0l0,2.625l2.606,0l0,-2.625Zm5.21,0l-2.605,0l0,2.625l2.605,0l0,-2.625Zm5.211,0l-2.605,0l0,2.625l2.605,0l0,-2.625Zm10.418,0l-2.601,0l0,2.625l2.601,0l0,-2.625Zm20.84,0l-2.601,0l0,2.625l2.601,0l0,-2.625Zm5.211,0l-2.605,0l0,2.625l2.605,0l0,-2.625Zm5.211,0l-2.605,0l0,2.625l2.605,0l0,-2.625Zm10.422,0l-2.605,0l0,2.625l2.605,0l0,-2.625Zm5.207,0l-2.605,0l0,2.625l2.605,0l0,-2.625Zm5.211,0l-2.606,0l0,2.625l2.606,0l0,-2.625Zm2.605,0l-2.605,0l0,2.625l2.605,0l0,-2.625Zm2.606,0l-2.606,0l0,2.625l2.606,0l0,-2.625Zm-135.461,2.625l-2.606,0l0,2.625l2.606,0l0,-2.625Zm2.605,0l-2.605,0l0,2.625l2.605,0l0,-2.625Zm2.606,0l-2.606,0l0,2.625l2.606,0l0,-2.625Zm7.812,0l-2.605,0l0,2.625l2.605,0l0,-2.625Zm5.211,0l-2.605,0l0,2.625l2.605,0l0,-2.625Zm10.422,0l-2.605,0l0,2.625l2.605,0l0,-2.625Zm5.207,0l-2.601,0l0,2.625l2.601,0l0,-2.625Zm7.817,0l-2.606,0l0,2.625l2.606,0l0,-2.625Zm5.211,0l-2.606,0l0,2.625l2.606,0l0,-2.625Zm5.211,0l-2.606,0l0,2.625l2.606,0l0,-2.625Zm2.601,0l-2.601,0l0,2.625l2.601,0l0,-2.625Zm2.606,0l-2.606,0l0,2.625l2.606,0l0,-2.625Zm2.605,0l-2.605,0l0,2.625l2.605,0l0,-2.625Zm5.211,0l-2.606,0l0,2.625l2.606,0l0,-2.625Zm2.605,0l-2.605,0l0,2.625l2.605,0l0,-2.625Zm2.606,0l-2.606,0l0,2.625l2.606,0l0,-2.625Zm5.211,0l-2.606,0l0,2.625l2.606,0l0,-2.625Zm18.234,0l-2.605,0l0,2.625l2.605,0l0,-2.625Zm2.606,0l-2.606,0l0,2.625l2.606,0l0,-2.625Zm2.601,0l-2.601,0l0,2.625l2.601,0l0,-2.625Zm5.211,0l-2.605,0l0,2.625l2.605,0l0,-2.625Zm2.606,0l-2.606,0l0,2.625l2.606,0l0,-2.625Zm5.211,0l-2.606,0l0,2.625l2.606,0l0,-2.625Zm2.605,0l-2.605,0l0,2.625l2.605,0l0,-2.625Zm7.813,0l-2.602,0l0,2.625l2.602,0l0,-2.625Zm5.21,0l-2.605,0l0,2.625l2.605,0l0,-2.625Zm5.211,0l-2.605,0l0,2.625l2.605,0l0,-2.625Zm-130.25,2.625l-2.605,0l0,2.625l2.605,0l0,-2.625Zm2.606,0l-2.606,0l0,2.625l2.606,0l0,-2.625Zm5.207,0l-2.602,0l0,2.625l2.602,0l0,-2.625Zm2.605,0l-2.605,0l0,2.625l2.605,0l0,-2.625Zm2.606,0l-2.606,0l0,2.625l2.606,0l0,-2.625Zm2.605,0l-2.605,0l0,2.625l2.605,0l0,-2.625Zm15.629,0l-2.601,0l0,2.625l2.601,0l0,-2.625Zm5.211,0l-2.605,0l0,2.625l2.605,0l0,-2.625Zm5.211,0l-2.605,0l0,2.625l2.605,0l0,-2.625Zm5.211,0l-2.605,0l0,2.625l2.605,0l0,-2.625Zm7.813,0l-2.606,0l0,2.625l2.606,0l0,-2.625Zm13.027,0l-2.606,0l0,2.625l2.606,0l0,-2.625Zm5.211,0l-2.606,0l0,2.625l2.606,0l0,-2.625Zm15.629,0l-2.606,0l0,2.625l2.606,0l0,-2.625Zm5.211,0l-2.606,0l0,2.625l2.606,0l0,-2.625Zm5.207,0l-2.606,0l0,2.625l2.606,0l0,-2.625Zm5.211,0l-2.606,0l0,2.625l2.606,0l0,-2.625Zm5.211,0l-2.606,0l0,2.625l2.606,0l0,-2.625Zm10.418,0l-2.602,0l0,2.625l2.602,0l0,-2.625Zm5.21,0l-2.605,0l0,2.625l2.605,0l0,-2.625Zm-117.226,2.625l-2.602,0l0,2.621l2.602,0l0,-2.621Zm2.605,0l-2.605,0l0,2.621l2.605,0l0,-2.621Zm13.028,0l-2.606,0l0,2.621l2.606,0l0,-2.621Zm10.418,0l-2.606,0l0,2.621l2.606,0l0,-2.621Zm5.211,0l-2.606,0l0,2.621l2.606,0l0,-2.621Zm2.605,0l-2.605,0l0,2.621l2.605,0l0,-2.621Zm5.211,0l-2.605,0l0,2.621l2.605,0l0,-2.621Zm5.207,0l-2.601,0l0,2.621l2.601,0l0,-2.621Zm13.027,0l-2.605,0l0,2.621l2.605,0l0,-2.621Zm10.418,0l-2.601,0l0,2.621l2.601,0l0,-2.621Zm2.606,0l-2.606,0l0,2.621l2.606,0l0,-2.621Zm5.211,0l-2.606,0l0,2.621l2.606,0l0,-2.621Zm5.211,0l-2.606,0l0,2.621l2.606,0l0,-2.621Zm2.605,0l-2.605,0l0,2.621l2.605,0l0,-2.621Zm2.606,0l-2.606,0l0,2.621l2.606,0l0,-2.621Zm5.207,0l-2.606,0l0,2.621l2.606,0l0,-2.621Zm5.211,0l-2.606,0l0,2.621l2.606,0l0,-2.621Zm5.211,0l-2.606,0l0,2.621l2.606,0l0,-2.621Zm2.605,0l-2.605,0l0,2.621l2.605,0l0,-2.621Zm5.211,0l-2.605,0l0,2.621l2.605,0l0,-2.621Zm5.207,0l-2.605,0l0,2.621l2.605,0l0,-2.621Zm5.211,0l-2.606,0l0,2.621l2.606,0l0,-2.621Zm2.605,0l-2.605,0l0,2.621l2.605,0l0,-2.621Zm-132.855,2.621l-2.606,0l0,2.625l2.606,0l0,-2.625Zm2.605,0l-2.605,0l0,2.625l2.605,0l0,-2.625Zm5.211,0l-2.605,0l0,2.625l2.605,0l0,-2.625Zm2.602,0l-2.602,0l0,2.625l2.602,0l0,-2.625Zm2.605,0l-2.605,0l0,2.625l2.605,0l0,-2.625Zm2.606,0l-2.606,0l0,2.625l2.606,0l0,-2.625Zm2.605,0l-2.605,0l0,2.625l2.605,0l0,-2.625Zm2.606,0l-2.606,0l0,2.625l2.606,0l0,-2.625Zm2.605,0l-2.605,0l0,2.625l2.605,0l0,-2.625Zm5.211,0l-2.605,0l0,2.625l2.605,0l0,-2.625Zm2.606,0l-2.606,0l0,2.625l2.606,0l0,-2.625Zm2.601,0l-2.601,0l0,2.625l2.601,0l0,-2.625Zm5.211,0l-2.605,0l0,2.625l2.605,0l0,-2.625Zm5.211,0l-2.605,0l0,2.625l2.605,0l0,-2.625Zm5.211,0l-2.605,0l0,2.625l2.605,0l0,-2.625Zm5.207,0l-2.601,0l0,2.625l2.601,0l0,-2.625Zm7.816,0l-2.605,0l0,2.625l2.605,0l0,-2.625Zm2.606,0l-2.606,0l0,2.625l2.606,0l0,-2.625Zm5.211,0l-2.606,0l0,2.625l2.606,0l0,-2.625Zm5.211,0l-2.606,0l0,2.625l2.606,0l0,-2.625Zm5.207,0l-2.606,0l0,2.625l2.606,0l0,-2.625Zm2.605,0l-2.605,0l0,2.625l2.605,0l0,-2.625Zm2.606,0l-2.606,0l0,2.625l2.606,0l0,-2.625Zm2.605,0l-2.605,0l0,2.625l2.605,0l0,-2.625Zm7.817,0l-2.606,0l0,2.625l2.606,0l0,-2.625Zm5.207,0l-2.606,0l0,2.625l2.606,0l0,-2.625Zm5.211,0l-2.606,0l0,2.625l2.606,0l0,-2.625Zm5.211,0l-2.606,0l0,2.625l2.606,0l0,-2.625Zm5.211,0l-2.606,0l0,2.625l2.606,0l0,-2.625Zm5.207,0l-2.602,0l0,2.625l2.602,0l0,-2.625Zm2.605,0l-2.605,0l0,2.625l2.605,0l0,-2.625Zm2.605,0l-2.605,0l0,2.625l2.605,0l0,-2.625Zm5.211,0l-2.605,0l0,2.625l2.605,0l0,-2.625Zm2.606,0l-2.606,0l0,2.625l2.606,0l0,-2.625Zm-132.856,2.625l-2.605,0l0,2.625l2.605,0l0,-2.625Zm2.606,0l-2.606,0l0,2.625l2.606,0l0,-2.625Zm18.234,0l-2.605,0l0,2.625l2.605,0l0,-2.625Zm2.606,0l-2.606,0l0,2.625l2.606,0l0,-2.625Zm2.605,0l-2.605,0l0,2.625l2.605,0l0,-2.625Zm5.207,0l-2.601,0l0,2.625l2.601,0l0,-2.625Zm7.817,0l-2.606,0l0,2.625l2.606,0l0,-2.625Zm10.422,0l-2.606,0l0,2.625l2.606,0l0,-2.625Zm5.207,0l-2.606,0l0,2.625l2.606,0l0,-2.625Zm5.21,0l-2.605,0l0,2.625l2.605,0l0,-2.625Zm2.606,0l-2.606,0l0,2.625l2.606,0l0,-2.625Zm7.816,0l-2.605,0l0,2.625l2.605,0l0,-2.625Zm7.813,0l-2.606,0l0,2.625l2.606,0l0,-2.625Zm5.211,0l-2.606,0l0,2.625l2.606,0l0,-2.625Zm5.211,0l-2.606,0l0,2.625l2.606,0l0,-2.625Zm10.418,0l-2.606,0l0,2.625l2.606,0l0,-2.625Zm10.422,0l-2.606,0l0,2.625l2.606,0l0,-2.625Zm15.628,0l-2.605,0l0,2.625l2.605,0l0,-2.625Zm7.817,0l-2.606,0l0,2.625l2.606,0l0,-2.625Zm-127.645,2.625l-2.605,0l0,2.625l2.605,0l0,-2.625Zm7.813,0l-2.606,0l0,2.625l2.606,0l0,-2.625Zm2.605,0l-2.605,0l0,2.625l2.605,0l0,-2.625Zm2.606,0l-2.606,0l0,2.625l2.606,0l0,-2.625Zm5.211,0l-2.606,0l0,2.625l2.606,0l0,-2.625Zm2.605,0l-2.605,0l0,2.625l2.605,0l0,-2.625Zm7.813,0l-2.606,0l0,2.625l2.606,0l0,-2.625Zm5.211,0l-2.606,0l0,2.625l2.606,0l0,-2.625Zm5.211,0l-2.606,0l0,2.625l2.606,0l0,-2.625Zm5.211,0l-2.606,0l0,2.625l2.606,0l0,-2.625Zm10.417,0l-2.605,0l0,2.625l2.605,0l0,-2.625Zm2.606,0l-2.606,0l0,2.625l2.606,0l0,-2.625Zm2.605,0l-2.605,0l0,2.625l2.605,0l0,-2.625Zm2.606,0l-2.606,0l0,2.625l2.606,0l0,-2.625Zm2.605,0l-2.605,0l0,2.625l2.605,0l0,-2.625Zm7.813,0l-2.606,0l0,2.625l2.606,0l0,-2.625Zm2.605,0l-2.605,0l0,2.625l2.605,0l0,-2.625Zm5.211,0l-2.605,0l0,2.625l2.605,0l0,-2.625Zm5.211,0l-2.605,0l0,2.625l2.605,0l0,-2.625Zm5.207,0l-2.601,0l0,2.625l2.601,0l0,-2.625Zm10.422,0l-2.605,0l0,2.625l2.605,0l0,-2.625Zm5.211,0l-2.605,0l0,2.625l2.605,0l0,-2.625Zm2.606,0l-2.606,0l0,2.625l2.606,0l0,-2.625Zm2.605,0l-2.605,0l0,2.625l2.605,0l0,-2.625Zm2.602,0l-2.602,0l0,2.625l2.602,0l0,-2.625Zm2.605,0l-2.605,0l0,2.625l2.605,0l0,-2.625Zm2.605,0l-2.605,0l0,2.625l2.605,0l0,-2.625Zm-104.199,2.625l-2.605,0l0,2.625l2.605,0l0,-2.625Zm5.211,0l-2.605,0l0,2.625l2.605,0l0,-2.625Zm2.606,0l-2.606,0l0,2.625l2.606,0l0,-2.625Zm2.601,0l-2.601,0l0,2.625l2.601,0l0,-2.625Zm10.422,0l-2.605,0l0,2.625l2.605,0l0,-2.625Zm5.211,0l-2.605,0l0,2.625l2.605,0l0,-2.625Zm5.207,0l-2.601,0l0,2.625l2.601,0l0,-2.625Zm7.816,0l-2.605,0l0,2.625l2.605,0l0,-2.625Zm10.422,0l-2.605,0l0,2.625l2.605,0l0,-2.625Zm2.606,0l-2.606,0l0,2.625l2.606,0l0,-2.625Zm2.601,0l-2.601,0l0,2.625l2.601,0l0,-2.625Zm5.211,0l-2.605,0l0,2.625l2.605,0l0,-2.625Zm5.211,0l-2.605,0l0,2.625l2.605,0l0,-2.625Zm5.211,0l-2.605,0l0,2.625l2.605,0l0,-2.625Zm5.207,0l-2.601,0l0,2.625l2.601,0l0,-2.625Zm5.211,0l-2.605,0l0,2.625l2.605,0l0,-2.625Zm5.211,0l-2.605,0l0,2.625l2.605,0l0,-2.625Zm5.211,0l-2.605,0l0,2.625l2.605,0l0,-2.625Zm10.418,0l-2.605,0l0,2.625l2.605,0l0,-2.625Zm5.211,0l-2.606,0l0,2.625l2.606,0l0,-2.625Zm5.211,0l-2.606,0l0,2.625l2.606,0l0,-2.625Zm-135.461,2.625l-2.606,0l0,2.625l2.606,0l0,-2.625Zm2.605,0l-2.605,0l0,2.625l2.605,0l0,-2.625Zm2.606,0l-2.606,0l0,2.625l2.606,0l0,-2.625Zm2.605,0l-2.605,0l0,2.625l2.605,0l0,-2.625Zm2.602,0l-2.602,0l0,2.625l2.602,0l0,-2.625Zm2.605,0l-2.605,0l0,2.625l2.605,0l0,-2.625Zm2.606,0l-2.606,0l0,2.625l2.606,0l0,-2.625Zm5.211,0l-2.606,0l0,2.625l2.606,0l0,-2.625Zm5.211,0l-2.606,0l0,2.625l2.606,0l0,-2.625Zm5.211,0l-2.606,0l0,2.625l2.606,0l0,-2.625Zm5.207,0l-2.606,0l0,2.625l2.606,0l0,-2.625Zm10.422,0l-2.606,0l0,2.625l2.606,0l0,-2.625Zm10.418,0l-2.606,0l0,2.625l2.606,0l0,-2.625Zm5.21,0l-2.605,0l0,2.625l2.605,0l0,-2.625Zm5.211,0l-2.605,0l0,2.625l2.605,0l0,-2.625Zm5.211,0l-2.605,0l0,2.625l2.605,0l0,-2.625Zm2.606,0l-2.606,0l0,2.625l2.606,0l0,-2.625Zm5.207,0l-2.606,0l0,2.625l2.606,0l0,-2.625Zm10.422,0l-2.606,0l0,2.625l2.606,0l0,-2.625Zm5.211,0l-2.606,0l0,2.625l2.606,0l0,-2.625Zm5.207,0l-2.606,0l0,2.625l2.606,0l0,-2.625Zm2.605,0l-2.605,0l0,2.625l2.605,0l0,-2.625Zm7.817,0l-2.606,0l0,2.625l2.606,0l0,-2.625Zm2.605,0l-2.605,0l0,2.625l2.605,0l0,-2.625Zm5.211,0l-2.605,0l0,2.625l2.605,0l0,-2.625Zm5.207,0l-2.605,0l0,2.625l2.605,0l0,-2.625Zm-125.039,2.625l-2.606,0l0,2.625l2.606,0l0,-2.625Zm15.629,0l-2.606,0l0,2.625l2.606,0l0,-2.625Zm5.211,0l-2.606,0l0,2.625l2.606,0l0,-2.625Zm7.816,0l-2.605,0l0,2.625l2.605,0l0,-2.625Zm5.207,0l-2.601,0l0,2.625l2.601,0l0,-2.625Zm5.211,0l-2.605,0l0,2.625l2.605,0l0,-2.625Zm5.211,0l-2.605,0l0,2.625l2.605,0l0,-2.625Zm5.211,0l-2.605,0l0,2.625l2.605,0l0,-2.625Zm10.418,0l-2.605,0l0,2.625l2.605,0l0,-2.625Zm2.605,0l-2.605,0l0,2.625l2.605,0l0,-2.625Zm10.422,0l-2.605,0l0,2.625l2.605,0l0,-2.625Zm5.207,0l-2.601,0l0,2.625l2.601,0l0,-2.625Zm5.211,0l-2.605,0l0,2.625l2.605,0l0,-2.625Zm10.422,0l-2.605,0l0,2.625l2.605,0l0,-2.625Zm5.207,0l-2.601,0l0,2.625l2.601,0l0,-2.625Zm5.211,0l-2.605,0l0,2.625l2.605,0l0,-2.625Zm10.422,0l-2.605,0l0,2.625l2.605,0l0,-2.625Zm10.418,0l-2.605,0l0,2.625l2.605,0l0,-2.625Zm5.211,0l-2.606,0l0,2.625l2.606,0l0,-2.625Zm2.605,0l-2.605,0l0,2.625l2.605,0l0,-2.625Zm-132.855,2.625l-2.606,0l0,2.621l2.606,0l0,-2.621Zm5.211,0l-2.606,0l0,2.621l2.606,0l0,-2.621Zm2.605,0l-2.605,0l0,2.621l2.605,0l0,-2.621Zm2.602,0l-2.602,0l0,2.621l2.602,0l0,-2.621Zm5.211,0l-2.606,0l0,2.621l2.606,0l0,-2.621Zm5.211,0l-2.606,0l0,2.621l2.606,0l0,-2.621Zm2.605,0l-2.605,0l0,2.621l2.605,0l0,-2.621Zm2.606,0l-2.606,0l0,2.621l2.606,0l0,-2.621Zm5.211,0l-2.606,0l0,2.621l2.606,0l0,-2.621Zm2.601,0l-2.601,0l0,2.621l2.601,0l0,-2.621Zm2.606,0l-2.606,0l0,2.621l2.606,0l0,-2.621Zm5.211,0l-2.606,0l0,2.621l2.606,0l0,-2.621Zm5.211,0l-2.606,0l0,2.621l2.606,0l0,-2.621Zm5.211,0l-2.606,0l0,2.621l2.606,0l0,-2.621Zm2.601,0l-2.601,0l0,2.621l2.601,0l0,-2.621Zm7.816,0l-2.605,0l0,2.621l2.605,0l0,-2.621Zm2.606,0l-2.606,0l0,2.621l2.606,0l0,-2.621Zm2.605,0l-2.605,0l0,2.621l2.605,0l0,-2.621Zm2.606,0l-2.606,0l0,2.621l2.606,0l0,-2.621Zm2.605,0l-2.605,0l0,2.621l2.605,0l0,-2.621Zm2.606,0l-2.606,0l0,2.621l2.606,0l0,-2.621Zm2.601,0l-2.601,0l0,2.621l2.601,0l0,-2.621Zm2.606,0l-2.606,0l0,2.621l2.606,0l0,-2.621Zm5.211,0l-2.606,0l0,2.621l2.606,0l0,-2.621Zm5.211,0l-2.606,0l0,2.621l2.606,0l0,-2.621Zm5.211,0l-2.606,0l0,2.621l2.606,0l0,-2.621Zm5.207,0l-2.606,0l0,2.621l2.606,0l0,-2.621Zm5.211,0l-2.606,0l0,2.621l2.606,0l0,-2.621Zm2.605,0l-2.605,0l0,2.621l2.605,0l0,-2.621Zm2.606,0l-2.606,0l0,2.621l2.606,0l0,-2.621Zm2.605,0l-2.605,0l0,2.621l2.605,0l0,-2.621Zm2.606,0l-2.606,0l0,2.621l2.606,0l0,-2.621Zm2.605,0l-2.605,0l0,2.621l2.605,0l0,-2.621Zm2.602,0l-2.602,0l0,2.621l2.602,0l0,-2.621Zm2.605,0l-2.605,0l0,2.621l2.605,0l0,-2.621Zm2.605,0l-2.605,0l0,2.621l2.605,0l0,-2.621Zm2.606,0l-2.606,0l0,2.621l2.606,0l0,-2.621Zm-130.25,2.621l-2.606,0l0,2.625l2.606,0l0,-2.625Zm5.211,0l-2.606,0l0,2.625l2.606,0l0,-2.625Zm2.605,0l-2.605,0l0,2.625l2.605,0l0,-2.625Zm2.602,0l-2.602,0l0,2.625l2.602,0l0,-2.625Zm5.211,0l-2.606,0l0,2.625l2.606,0l0,-2.625Zm5.211,0l-2.606,0l0,2.625l2.606,0l0,-2.625Zm10.422,0l-2.606,0l0,2.625l2.606,0l0,-2.625Zm10.418,0l-2.606,0l0,2.625l2.606,0l0,-2.625Zm5.211,0l-2.606,0l0,2.625l2.606,0l0,-2.625Zm5.211,0l-2.606,0l0,2.625l2.606,0l0,-2.625Zm10.417,0l-2.605,0l0,2.625l2.605,0l0,-2.625Zm10.422,0l-2.605,0l0,2.625l2.605,0l0,-2.625Zm10.418,0l-2.605,0l0,2.625l2.605,0l0,-2.625Zm7.817,0l-2.606,0l0,2.625l2.606,0l0,-2.625Zm13.023,0l-2.605,0l0,2.625l2.605,0l0,-2.625Zm5.211,0l-2.605,0l0,2.625l2.605,0l0,-2.625Zm5.211,0l-2.605,0l0,2.625l2.605,0l0,-2.625Zm10.418,0l-2.605,0l0,2.625l2.605,0l0,-2.625Zm10.422,0l-2.606,0l0,2.625l2.606,0l0,-2.625Zm-135.461,2.625l-2.606,0l0,2.625l2.606,0l0,-2.625Zm5.211,0l-2.606,0l0,2.625l2.606,0l0,-2.625Zm2.605,0l-2.605,0l0,2.625l2.605,0l0,-2.625Zm2.602,0l-2.602,0l0,2.625l2.602,0l0,-2.625Zm5.211,0l-2.606,0l0,2.625l2.606,0l0,-2.625Zm5.211,0l-2.606,0l0,2.625l2.606,0l0,-2.625Zm10.422,0l-2.606,0l0,2.625l2.606,0l0,-2.625Zm10.418,0l-2.606,0l0,2.625l2.606,0l0,-2.625Zm5.211,0l-2.606,0l0,2.625l2.606,0l0,-2.625Zm5.211,0l-2.606,0l0,2.625l2.606,0l0,-2.625Zm10.417,0l-2.605,0l0,2.625l2.605,0l0,-2.625Zm10.422,0l-2.605,0l0,2.625l2.605,0l0,-2.625Zm10.418,0l-2.605,0l0,2.625l2.605,0l0,-2.625Zm5.211,0l-2.605,0l0,2.625l2.605,0l0,-2.625Zm15.629,0l-2.605,0l0,2.625l2.605,0l0,-2.625Zm10.422,0l-2.605,0l0,2.625l2.605,0l0,-2.625Zm10.418,0l-2.605,0l0,2.625l2.605,0l0,-2.625Zm10.422,0l-2.606,0l0,2.625l2.606,0l0,-2.625Zm-135.461,2.625l-2.606,0l0,2.625l2.606,0l0,-2.625Zm15.629,0l-2.606,0l0,2.625l2.606,0l0,-2.625Zm10.422,0l-2.606,0l0,2.625l2.606,0l0,-2.625Zm2.605,0l-2.605,0l0,2.625l2.605,0l0,-2.625Zm2.606,0l-2.606,0l0,2.625l2.606,0l0,-2.625Zm5.207,0l-2.606,0l0,2.625l2.606,0l0,-2.625Zm2.605,0l-2.605,0l0,2.625l2.605,0l0,-2.625Zm2.606,0l-2.606,0l0,2.625l2.606,0l0,-2.625Zm5.211,0l-2.606,0l0,2.625l2.606,0l0,-2.625Zm2.605,0l-2.605,0l0,2.625l2.605,0l0,-2.625Zm2.606,0l-2.606,0l0,2.625l2.606,0l0,-2.625Zm5.207,0l-2.606,0l0,2.625l2.606,0l0,-2.625Zm2.605,0l-2.605,0l0,2.625l2.605,0l0,-2.625Zm2.605,0l-2.605,0l0,2.625l2.605,0l0,-2.625Zm5.211,0l-2.605,0l0,2.625l2.605,0l0,-2.625Zm2.606,0l-2.606,0l0,2.625l2.606,0l0,-2.625Zm2.605,0l-2.605,0l0,2.625l2.605,0l0,-2.625Zm5.207,0l-2.601,0l0,2.625l2.601,0l0,-2.625Zm5.211,0l-2.605,0l0,2.625l2.605,0l0,-2.625Zm5.211,0l-2.605,0l0,2.625l2.605,0l0,-2.625Zm10.418,0l-2.601,0l0,2.625l2.601,0l0,-2.625Zm2.606,0l-2.606,0l0,2.625l2.606,0l0,-2.625Zm7.816,0l-2.605,0l0,2.625l2.605,0l0,-2.625Zm10.422,0l-2.605,0l0,2.625l2.605,0l0,-2.625Zm2.602,0l-2.602,0l0,2.625l2.602,0l0,-2.625Zm2.605,0l-2.605,0l0,2.625l2.605,0l0,-2.625Zm2.605,0l-2.605,0l0,2.625l2.605,0l0,-2.625Zm2.606,0l-2.606,0l0,2.625l2.606,0l0,-2.625Zm2.605,0l-2.605,0l0,2.625l2.605,0l0,-2.625Zm-132.855,2.625l-2.606,0l0,2.625l2.606,0l0,-2.625Zm2.605,0l-2.605,0l0,2.625l2.605,0l0,-2.625Zm2.606,0l-2.606,0l0,2.625l2.606,0l0,-2.625Zm2.605,0l-2.605,0l0,2.625l2.605,0l0,-2.625Zm2.602,0l-2.602,0l0,2.625l2.602,0l0,-2.625Zm2.605,0l-2.605,0l0,2.625l2.605,0l0,-2.625Zm2.606,0l-2.606,0l0,2.625l2.606,0l0,-2.625Zm7.816,0l-2.605,0l0,2.625l2.605,0l0,-2.625Zm10.418,0l-2.601,0l0,2.625l2.601,0l0,-2.625Zm10.422,0l-2.605,0l0,2.625l2.605,0l0,-2.625Zm5.211,0l-2.605,0l0,2.625l2.605,0l0,-2.625Zm5.207,0l-2.601,0l0,2.625l2.601,0l0,-2.625Zm7.816,0l-2.605,0l0,2.625l2.605,0l0,-2.625Zm2.606,0l-2.606,0l0,2.625l2.606,0l0,-2.625Zm10.422,0l-2.606,0l0,2.625l2.606,0l0,-2.625Zm7.812,0l-2.605,0l0,2.625l2.605,0l0,-2.625Zm2.606,0l-2.606,0l0,2.625l2.606,0l0,-2.625Zm5.211,0l-2.606,0l0,2.625l2.606,0l0,-2.625Zm5.211,0l-2.606,0l0,2.625l2.606,0l0,-2.625Zm5.207,0l-2.606,0l0,2.625l2.606,0l0,-2.625Zm5.211,0l-2.606,0l0,2.625l2.606,0l0,-2.625Zm10.422,0l-2.606,0l0,2.625l2.606,0l0,-2.625Zm10.417,0l-2.605,0l0,2.625l2.605,0l0,-2.625Zm2.606,0l-2.606,0l0,2.625l2.606,0l0,-2.625" style="fill-rule:nonzero;"/>
            </g>
            <g transform="matrix(3.999429,0,0,3.999429,27545.361331,27375.978434)">
                <path d="M383.707,468.769c1.336,-2.625 3.465,-4.754 6.09,-6.09c1.57,-0.8 3.32,-1.167 5.496,-1.343c2.16,-0.176 4.859,-0.176 8.344,-0.176l17.093,0l0,2.812l-17.093,0c-3.532,0 -6.094,0 -8.114,0.168c-2,0.161 -3.343,0.481 -4.453,1.043c-2.09,1.067 -3.793,2.77 -4.859,4.864c-0.563,1.105 -0.883,2.449 -1.047,4.449c-0.164,2.019 -0.164,4.582 -0.164,8.113l0,17.098l-2.812,0l0,-17.098c0,-3.484 0,-6.183 0.175,-8.344c0.176,-2.175 0.543,-3.925 1.344,-5.496Zm-1.519,131.594l0,-17.098l2.812,0l0,17.098c0,3.531 0,6.094 0.164,8.113c0.164,2 0.484,3.344 1.047,4.45c1.066,2.093 2.769,3.796 4.859,4.859c1.11,0.566 2.453,0.883 4.453,1.047c2.02,0.164 4.582,0.168 8.114,0.168l17.093,0l0,2.812l-17.093,0c-3.485,0 -6.184,0 -8.344,-0.175c-2.176,-0.18 -3.926,-0.543 -5.496,-1.344c-2.625,-1.336 -4.754,-3.469 -6.09,-6.09c-0.801,-1.57 -1.168,-3.324 -1.344,-5.5c-0.175,-2.156 -0.175,-4.856 -0.175,-8.34Zm139.199,-136.391l-17.094,0l0,-2.812l17.094,0c3.484,0 6.183,0 8.343,0.176c2.176,0.176 3.93,0.543 5.5,1.343c2.622,1.336 4.754,3.465 6.086,6.09c0.801,1.571 1.168,3.321 1.344,5.5c0.18,2.157 0.176,4.856 0.176,8.34l0,17.098l-2.813,0l0,-17.098c0,-3.531 0,-6.094 -0.164,-8.113c-0.164,-2 -0.48,-3.344 -1.046,-4.449c-1.067,-2.094 -2.766,-3.797 -4.86,-4.864c-1.109,-0.562 -2.449,-0.882 -4.453,-1.043c-2.016,-0.168 -4.582,-0.168 -8.113,-0.168Zm0,155.028c3.531,0 6.097,-0.004 8.113,-0.168c2.004,-0.164 3.344,-0.481 4.453,-1.047c2.094,-1.063 3.793,-2.766 4.86,-4.859c0.566,-1.106 0.882,-2.45 1.046,-4.45c0.164,-2.019 0.164,-4.582 0.164,-8.113l0,-17.098l2.813,0l0,17.098c0,3.484 0.004,6.184 -0.176,8.34c-0.176,2.176 -0.543,3.93 -1.344,5.5c-1.332,2.621 -3.464,4.754 -6.086,6.09c-1.57,0.801 -3.324,1.164 -5.5,1.344c-2.16,0.175 -4.859,0.175 -8.343,0.175l-17.094,0l0,-2.812l17.094,0Z" style="fill:#080605;"/>
            </g>
            <g transform="matrix(0,-3.642791,-3.642791,0,30923.624683,31227.134687)">
                <path d="M462.641,400.898c-10.106,0 -18.301,8.196 -18.301,18.301c0,10.106 8.195,18.301 18.301,18.301c10.105,0 18.3,-8.195 18.3,-18.301c0,-10.105 -8.195,-18.301 -18.3,-18.301" style="fill:#fff;fill-rule:nonzero;"/>
            </g>
            <g transform="matrix(0.109733,0,0,0.109732,29340.38398,29485.540986)">
                <circle cx="512.028" cy="512.028" r="512.028" style="fill:#080605;"/>
            </g>
            <g transform="matrix(0.109733,0,0,0.109732,29340.38398,29485.540986)">
                <path d="M206.763,513.905c6.946,6.804 13.891,13.195 20.632,19.999c23.696,24.122 47.188,48.656 70.884,72.778c2.247,2.474 3.268,5.773 2.86,8.865l0,125.971c0,3.917 1.021,4.948 4.902,4.948c41.672,-0.206 83.344,-0.207 125.017,-0.207c2.247,0.207 4.289,1.444 5.719,3.093c12.257,12.37 24.718,25.153 36.77,37.729c17.772,18.349 35.544,36.905 53.724,55.666l12.257,-12.37c26.147,-27.008 52.294,-54.223 78.85,-81.025c2.247,-1.855 5.107,-3.093 7.967,-3.093c41.059,-0.206 82.119,-0.206 123.178,0c3.881,0 4.494,-1.237 4.494,-4.948c0,-42.058 0,-84.323 -0.204,-126.382c-0.205,-3.711 1.225,-7.216 3.881,-9.69l57.605,-58.759c1.43,-1.443 3.473,-2.474 5.516,-2.68c19.202,-0.206 38.404,0 57.606,0c0.817,0 1.634,0.206 2.451,0.412c-0.613,0.825 -1.021,1.65 -1.839,2.474c-25.534,26.184 -50.864,52.368 -76.399,78.551c-2.247,2.268 -3.677,5.361 -3.472,8.66l0,151.947c0,7.216 0,7.216 -7.15,7.216l-148.304,0c-2.451,0 -4.698,1.031 -6.537,2.68c-24.308,24.947 -48.413,49.894 -72.722,74.84c-11.439,11.958 -23.083,23.71 -34.522,35.668c-2.247,2.268 -3.677,1.855 -5.72,-0.206c-12.256,-12.783 -24.513,-25.153 -36.769,-37.936c-23.696,-24.328 -47.392,-48.862 -71.088,-73.19c-1.43,-1.237 -3.064,-1.856 -4.903,-1.856l-149.734,0c-6.741,0 -6.741,0 -6.741,-6.803l0,-152.773c0.205,-2.886 -1.021,-5.773 -3.064,-7.834l-67.411,-69.274c-13.278,-13.813 -26.76,-27.626 -40.038,-41.44c-0.612,-0.618 -1.021,-1.237 -1.634,-1.855c1.634,-1.856 3.064,-3.711 4.494,-5.361c23.492,-24.122 46.779,-48.244 70.271,-72.366c11.439,-11.751 22.879,-23.503 34.114,-35.461c1.838,-2.062 2.86,-4.536 2.86,-7.422c0.204,-51.13 0.204,-102.467 0.204,-153.597c0,-5.979 0,-5.979 6.128,-5.979l148.304,0c3.269,0.206 6.333,-1.237 8.375,-3.505c33.91,-35.049 68.024,-70.098 102.138,-104.941c2.247,-2.268 4.29,-4.742 6.741,-7.628c7.15,7.216 13.891,14.019 20.428,20.823c30.028,30.926 59.852,61.645 89.881,92.364c1.838,1.65 4.29,2.681 6.741,2.887c49.843,0.206 99.482,0.206 149.325,0.206c6.128,0 6.128,0 6.128,6.391l0,152.773c-0.204,3.092 1.022,6.185 3.269,8.246c24.921,25.359 49.843,50.925 74.56,76.49c1.635,1.649 3.065,3.505 4.494,5.154l-0.408,1.237l-14.095,0c-14.708,0 -29.211,0 -43.919,-0.206c-2.86,-0.206 -5.516,-1.237 -7.559,-3.093c-19.61,-19.998 -39.22,-39.997 -58.626,-60.201c-1.839,-2.062 -3.065,-4.536 -3.065,-7.216c-0.204,-42.472 -0.204,-84.943 0,-127.414c0,-4.329 -1.225,-5.566 -5.311,-5.566l-123.586,0c-2.452,-0.207 -4.903,-1.237 -6.741,-2.887c-29.212,-29.895 -58.423,-59.789 -87.43,-89.684c-2.452,-2.68 -4.086,-3.093 -6.946,-0.206c-17.567,18.349 -35.544,36.698 -53.315,54.841c-11.44,11.752 -22.675,23.71 -34.319,35.255c-2.043,1.856 -4.494,2.681 -7.149,2.887c-40.651,0.206 -81.302,0 -121.953,0l-5.924,0c0,2.474 -0.408,4.535 -0.408,6.597l0,123.29c0.204,4.33 -1.43,8.659 -4.699,11.752c-29.007,29.688 -58.014,59.377 -86.817,89.272c0,0.412 -0.612,1.237 -2.247,3.092Zm479.23,30.72c-3.676,11.133 -7.149,21.648 -10.622,32.369c-1.225,3.711 -2.043,7.628 -2.247,11.751c-0.204,23.298 -0.204,46.595 0,69.892c0,4.33 -1.634,4.948 -5.107,4.948c-22.47,-0.206 -45.145,0 -67.615,-0.206c-6.741,0.619 -13.278,2.68 -19.406,5.773c-29.62,10.927 -61.691,12.576 -92.128,4.742c-8.375,-2.062 -16.546,-5.773 -24.922,-8.659c-2.655,-1.031 -5.515,-1.65 -8.375,-1.65c-22.879,-0.206 -45.758,-0.206 -68.637,0c-4.494,0 -5.515,-1.237 -5.515,-5.773c0.204,-23.503 0.204,-47.006 0,-70.51c0,-2.886 -0.613,-5.773 -1.634,-8.453c-14.095,-33.399 -16.955,-70.51 -8.171,-105.559c2.043,-8.041 5.311,-15.669 7.762,-23.71c1.226,-3.505 1.839,-7.009 2.247,-10.721c0.205,-23.297 0,-46.388 0,-69.891c0,-5.773 0,-5.773 5.72,-5.773l68.432,0c3.064,0 5.924,-0.619 8.784,-1.856c37.178,-16.7 79.463,-17.73 117.458,-2.886c8.58,3.505 17.568,5.154 26.76,4.948c19.815,-0.619 39.221,-0.206 59.036,-0.412c3.881,0 5.311,1.237 5.107,5.36c-0.204,23.297 -0.204,46.595 0,69.892c0.204,3.917 0.817,7.834 2.247,11.752c2.86,9.896 6.128,19.792 9.192,29.688c1.022,3.093 0,4.33 -3.268,4.33l-39.425,0c-1.634,-0.413 -3.064,-1.443 -3.881,-3.093c-3.269,-7.628 -6.333,-15.256 -9.193,-23.091c-0.817,-2.886 -1.43,-5.773 -1.226,-8.659c-0.204,-11.339 -0.204,-22.679 0,-33.812c0,-3.505 -1.021,-4.742 -4.494,-4.536c-11.235,0.206 -22.47,0.413 -33.909,0c-4.29,-0.412 -8.376,-1.649 -12.257,-3.505c-32.888,-16.287 -71.292,-15.462 -103.567,2.062c-2.452,1.031 -5.107,1.649 -7.967,1.649c-11.44,0.207 -22.879,0.207 -34.318,0c-3.473,0 -4.494,1.031 -4.494,4.536c0.204,11.546 0.204,22.885 0,34.431c0,3.711 -1.022,7.628 -2.452,11.133c-16.546,33.399 -16.546,72.572 -0.204,105.765c1.634,3.918 2.656,8.247 2.86,12.371c0.408,11.133 0.204,22.472 0,33.399c0,3.505 0.817,4.948 4.494,4.948c11.644,-0.206 23.492,-0.206 35.135,0c2.452,0 4.903,0.619 6.946,1.65c32.684,17.73 71.7,18.143 104.793,1.237c3.677,-1.856 7.762,-2.681 11.848,-2.887c11.031,-0.412 22.062,-0.206 32.888,0c3.269,0 4.29,-1.237 4.29,-4.329c-0.204,-11.958 -0.204,-23.916 0,-35.668c0.408,-3.299 1.226,-6.597 2.451,-9.69c2.247,-6.391 4.699,-12.782 7.354,-18.968c0.613,-1.443 2.451,-3.504 3.881,-3.711c13.687,-0.206 27.578,-0.206 41.264,0c1.021,0.207 2.043,0.413 3.064,0.825l1.021,-1.443Z" style="fill:#fff;"/>
            </g>
            <g transform="matrix(1.066667,0,0,1.015376,28733.725708,28796.818355)">
                <rect x="0" y="0" width="1240.157" height="1754.13" style="fill:none;stroke:#f20d0d;stroke-width:1.8px;"/>
            </g>
        </g>
    </g>
</svg>
