<?xml version="1.0" encoding="UTF-8" standalone="no"?>
<!DOCTYPE svg PUBLIC "-//W3C//DTD SVG 1.1//EN" "http://www.w3.org/Graphics/SVG/1.1/DTD/svg11.dtd">
<svg width="100%" height="100%" viewBox="0 0 1326 1784" version="1.1" xmlns="http://www.w3.org/2000/svg" xmlns:xlink="http://www.w3.org/1999/xlink" xml:space="preserve" xmlns:affinity="https://www.affinity.studio/" style="fill-rule:evenodd;clip-rule:evenodd;stroke-linejoin:round;stroke-miterlimit:2;">
    <g transform="matrix(1,0,0,1,-30616.357307,-28795.492235)">
        <g transform="matrix(95.83336,0,0,95.833418,31349.535137,30036.89238)">
            <path d="M-0.406,0.229c-0.091,0 -0.136,-0.028 -0.136,-0.084l0,-0.116l0.116,0l0,0.112c0,0.018 0.01,0.026 0.031,0.026c0.02,0 0.031,-0.008 0.031,-0.026l0,-0.027c0,-0.057 0.045,-0.085 0.135,-0.085c0.091,0 0.136,0.028 0.136,0.085l0,0.115l-0.116,0l0,-0.111c0,-0.018 -0.01,-0.027 -0.031,-0.027c-0.02,0 -0.031,0.009 -0.031,0.027l0,0.027c0,0.056 -0.045,0.084 -0.135,0.084Zm0.147,0.162c-0.11,0 -0.166,-0.023 -0.166,-0.069l0,-0.068l0.118,0l0,0.058c0,0.02 0.016,0.03 0.048,0.03c0.032,0 0.048,-0.01 0.048,-0.03l0,-0.058l0.118,0l0,0.068c0,0.046 -0.055,0.069 -0.166,0.069Zm1.103,-0.614l0.003,0c0.055,0 0.082,0.033 0.082,0.099c0,0.083 -0.035,0.124 -0.106,0.124c-0.073,0 -0.11,-0.024 -0.11,-0.072l0,-0.339l-0.039,-0.051c-0.008,-0.01 -0.012,-0.02 -0.012,-0.03c0,-0.008 0.004,-0.017 0.011,-0.029l0.049,-0.075l0.165,0l0,0.087l-0.116,0l-0.009,0.012l0.082,0.087l0,0.187Zm0,0.069l0,0.072c0,0.008 0.002,0.012 0.007,0.012c0.015,0 0.022,-0.018 0.022,-0.054c0,-0.02 -0.009,-0.03 -0.026,-0.03l-0.003,0Zm-0.07,-0.481c-0.085,0 -0.127,-0.034 -0.127,-0.102c0,-0.059 0.045,-0.088 0.136,-0.088l0,0.063c-0.029,0 -0.044,0.008 -0.044,0.025c0,0.015 0.015,0.023 0.045,0.023c0.039,0 0.059,-0.05 0.059,-0.15l0.103,0c0,0.153 -0.058,0.229 -0.172,0.229Zm0.604,0.79l-0.344,0l0,-0.077l0.344,0l0,-0.053l0.119,0l0,0.053l0.009,0c0.043,0 0.065,0.026 0.065,0.077c0,0.05 -0.029,0.074 -0.088,0.074c-0.07,0 -0.105,-0.021 -0.105,-0.064l0,-0.01Zm0.119,0l0,0.01c0,0.01 0.004,0.016 0.013,0.016c0.009,0 0.014,-0.005 0.014,-0.014c0,-0.008 -0.006,-0.012 -0.018,-0.012l-0.009,0Zm-3.391,-1.05l0,0.226l-0.358,0c-0.058,0 -0.086,-0.026 -0.086,-0.079c0,-0.081 0.056,-0.122 0.169,-0.122c0.051,0 0.1,0.012 0.148,0.037c0.016,0.008 0.032,0.017 0.047,0.027l0,-0.088l0.081,0Zm-0.113,0.156c-0.018,-0.016 -0.04,-0.03 -0.066,-0.041c-0.026,-0.012 -0.057,-0.017 -0.094,-0.017c-0.046,0 -0.068,0.016 -0.068,0.048c0,0.007 0.005,0.01 0.015,0.01l0.214,0Zm0.84,0.229l-0.57,0l0,-0.087l0.59,0c0.117,0 0.176,0.046 0.176,0.138l0,0.458l-0.131,0l0,-0.448c0,-0.041 -0.021,-0.061 -0.064,-0.061Zm-1.971,0.255l0,0.181c0,0.048 -0.037,0.072 -0.11,0.072c-0.07,0 -0.105,-0.041 -0.105,-0.124c0,-0.066 0.027,-0.099 0.082,-0.099l0.003,0l0,-0.171l-0.068,-0.07c-0.011,-0.011 -0.016,-0.022 -0.016,-0.031c0,-0.007 0.003,-0.016 0.01,-0.027l0.049,-0.075l0.156,0l0,0.087l-0.106,0l-0.009,0.012l0.115,0.086l0,0.078l0.191,0l0,-0.061l-0.068,-0.07c-0.011,-0.011 -0.016,-0.022 -0.016,-0.031c0,-0.007 0.003,-0.016 0.01,-0.027l0.049,-0.075l0.268,0c0.117,0 0.176,0.046 0.176,0.138l0,0.458l-0.131,0l0,-0.448c0,-0.041 -0.021,-0.061 -0.064,-0.061l-0.198,0l-0.009,0.012l0.115,0.086l0,0.338c0,0.048 -0.037,0.072 -0.11,0.072c-0.07,0 -0.105,-0.041 -0.105,-0.124c0,-0.063 0.027,-0.095 0.082,-0.095l0.003,0l0,-0.035l-0.191,0Zm-0.131,0.1l-0.003,0c-0.018,0 -0.026,0.01 -0.026,0.03c0,0.035 0.007,0.053 0.022,0.053c0.005,0 0.007,-0.004 0.007,-0.011l0,-0.072Zm0.322,0.004l-0.003,0c-0.018,0 -0.026,0.009 -0.026,0.026c0,0.035 0.007,0.053 0.022,0.053c0.005,0 0.007,-0.004 0.007,-0.011l0,-0.068Zm1.34,-0.073l0.003,0c0.063,0 0.094,0.033 0.094,0.099c0,0.082 -0.039,0.124 -0.117,0.124c-0.074,0 -0.11,-0.024 -0.11,-0.072l0,-0.215c0,-0.105 0.08,-0.158 0.239,-0.158c0.16,0 0.239,0.053 0.239,0.158l0,0.287l-0.131,0l0,-0.287c0,-0.047 -0.036,-0.071 -0.108,-0.071c-0.072,0 -0.108,0.024 -0.108,0.071l0,0.064Zm0,0.069l0,0.073c0,0.007 0.003,0.011 0.009,0.011c0.02,0 0.03,-0.018 0.03,-0.053c0,-0.02 -0.012,-0.03 -0.036,-0.03l-0.003,0Zm1.398,-0.183l0,-0.057l-0.071,-0.07c-0.011,-0.011 -0.017,-0.022 -0.017,-0.031c0,-0.007 0.004,-0.016 0.011,-0.027l0.052,-0.075l0.156,0l0,0.087l-0.106,0l-0.009,0.012l0.115,0.086l0,0.252c0,0.105 -0.08,0.158 -0.239,0.158c-0.16,0 -0.239,-0.053 -0.239,-0.158l0,-0.243l-0.048,-0.063c-0.007,-0.009 -0.011,-0.018 -0.011,-0.026c0,-0.008 0.004,-0.018 0.012,-0.029l0.052,-0.076l0.154,0l0,0.087l-0.113,0l-0.007,0.01l0.092,0.088l0,0.074l0.217,0Zm-0.217,0.087l0,0.092c0,0.047 0.036,0.071 0.108,0.071c0.072,0 0.108,-0.024 0.108,-0.071l0,-0.092l-0.217,0Zm-1.947,0.003l0.131,0l0,0.068l0.023,0c0.044,0 0.084,0.023 0.121,0.068c0.012,0.015 0.025,0.023 0.039,0.023c0.023,0 0.034,-0.016 0.034,-0.048l0,-0.045c0,-0.039 -0.023,-0.062 -0.069,-0.069c-0.186,-0.028 -0.278,-0.09 -0.278,-0.187c0,-0.107 0.08,-0.16 0.239,-0.16c0.16,0 0.239,0.049 0.239,0.146c0,0.059 -0.057,0.088 -0.172,0.088l0,-0.072c0.027,0 0.041,-0.006 0.041,-0.017c0,-0.04 -0.036,-0.06 -0.108,-0.06c-0.072,0 -0.108,0.024 -0.108,0.073c0,0.057 0.058,0.095 0.174,0.115c0.116,0.019 0.174,0.066 0.174,0.141l0,0.04c0,0.094 -0.048,0.141 -0.143,0.141c-0.052,0 -0.092,-0.017 -0.12,-0.052c-0.024,-0.029 -0.045,-0.043 -0.063,-0.043l-0.023,0l0,0.095l-0.131,0l0,-0.246Zm2.69,0.246c-0.16,0 -0.239,-0.053 -0.239,-0.158l0,-0.243l-0.048,-0.063c-0.007,-0.009 -0.011,-0.018 -0.011,-0.026c0,-0.008 0.004,-0.018 0.012,-0.029l0.052,-0.076l0.154,0l0,0.087l-0.113,0l-0.007,0.01l0.092,0.088l0,0.252c0,0.047 0.036,0.071 0.108,0.071c0.072,0 0.108,-0.024 0.108,-0.071l0,-0.236l-0.071,-0.07c-0.011,-0.011 -0.017,-0.022 -0.017,-0.031c0,-0.007 0.004,-0.016 0.011,-0.027l0.052,-0.075l0.156,0l0,0.087l-0.106,0l-0.009,0.012l0.115,0.086l0,0.252c0,0.105 -0.08,0.158 -0.239,0.158Zm1.386,-0.223l0,-0.171l-0.068,-0.07c-0.011,-0.011 -0.016,-0.022 -0.016,-0.031c0,-0.007 0.003,-0.016 0.01,-0.027l0.049,-0.075l0.156,0l0,0.087l-0.106,0l-0.009,0.012l0.115,0.086l0,0.338c0,0.048 -0.037,0.072 -0.11,0.072c-0.07,0 -0.105,-0.041 -0.105,-0.124c0,-0.066 0.027,-0.099 0.082,-0.099l0.003,0Zm0,0.069l-0.003,0c-0.018,0 -0.026,0.01 -0.026,0.03c0,0.035 0.007,0.053 0.022,0.053c0.005,0 0.007,-0.004 0.007,-0.011l0,-0.072Zm-0.43,0.154c-0.16,0 -0.239,-0.055 -0.239,-0.165l0,-0.127l0.141,-0.022c0.138,-0.02 0.207,-0.059 0.207,-0.117c0,-0.052 -0.036,-0.078 -0.108,-0.078c-0.072,0 -0.108,0.023 -0.108,0.068c0,0.013 0.013,0.02 0.039,0.02l0,0.066c-0.113,0 -0.17,-0.029 -0.17,-0.086c0,-0.103 0.08,-0.155 0.239,-0.155c0.16,0 0.239,0.055 0.239,0.165c0,0.097 -0.104,0.161 -0.313,0.193l-0.035,0.005l0,0.068c0,0.052 0.036,0.078 0.108,0.078c0.072,0 0.108,-0.026 0.108,-0.078l0,-0.076l0.131,0l0,0.076c0,0.11 -0.08,0.165 -0.239,0.165Z"/>
        </g>
        <g transform="matrix(1.095493,0,0,1.095493,31026.092052,30159.251255)">
            <path d="M3.009,-29.272l5.679,0l8.409,24.748l8.349,-24.748l5.619,0l0,29.272l-3.766,0l0,-17.276c0,-0.598 0.013,-1.587 0.04,-2.969c0.027,-1.382 0.04,-2.863 0.04,-4.444l-8.349,24.689l-3.925,0l-8.409,-24.689l0,0.897c0,0.717 0.017,1.81 0.05,3.278c0.033,1.468 0.05,2.547 0.05,3.238l0,17.276l-3.786,0l0,-29.272Zm34.991,0l4.005,0l0,29.272l-4.005,0l0,-29.272Zm10.621,0l11.856,0c4.025,0 7.147,1.428 9.365,4.284c1.979,2.577 2.969,5.878 2.969,9.903c0,3.108 -0.585,5.918 -1.754,8.429c-2.059,4.437 -5.599,6.655 -10.621,6.655l-11.816,0l0,-29.272Zm11.059,25.884c1.342,0 2.444,-0.139 3.308,-0.418c1.541,-0.518 2.803,-1.514 3.786,-2.989c0.784,-1.182 1.348,-2.697 1.694,-4.543c0.199,-1.103 0.299,-2.125 0.299,-3.069c0,-3.627 -0.721,-6.443 -2.162,-8.449c-1.441,-2.006 -3.763,-3.009 -6.964,-3.009l-7.034,0l0,22.477l7.074,0Zm19.647,-17.675l4.165,0l0,4.344l-4.165,0l0,-4.344Zm0,16.718l4.165,0l0,4.344l-4.165,0l0,-4.344Zm22.058,-15.861l0,-2.75c2.59,-0.252 4.397,-0.674 5.42,-1.265c1.023,-0.591 1.787,-1.989 2.292,-4.194l2.83,0l0,28.415l-3.826,0l0,-20.205l-6.715,0Zm20.066,20.205c0.133,-2.458 0.641,-4.596 1.524,-6.416c0.883,-1.82 2.607,-3.474 5.171,-4.962l3.826,-2.212c1.714,-0.996 2.916,-1.847 3.607,-2.551c1.089,-1.103 1.634,-2.365 1.634,-3.786c0,-1.661 -0.498,-2.979 -1.494,-3.955c-0.996,-0.976 -2.325,-1.465 -3.985,-1.465c-2.458,0 -4.158,0.93 -5.101,2.79c-0.505,0.996 -0.784,2.378 -0.837,4.145l-3.647,0c0.04,-2.484 0.498,-4.51 1.375,-6.078c1.554,-2.763 4.297,-4.145 8.23,-4.145c3.268,0 5.656,0.883 7.163,2.65c1.508,1.767 2.262,3.733 2.262,5.898c0,2.285 -0.804,4.238 -2.411,5.858c-0.93,0.943 -2.597,2.086 -5.001,3.427l-2.73,1.514c-1.302,0.717 -2.325,1.401 -3.069,2.052c-1.328,1.156 -2.165,2.438 -2.511,3.846l15.582,0l0,3.387l-19.588,0Zm26.462,-7.273c0.239,2.046 1.189,3.461 2.849,4.244c0.85,0.399 1.833,0.598 2.949,0.598c2.125,0 3.7,-0.677 4.723,-2.032c1.023,-1.355 1.534,-2.856 1.534,-4.503c0,-1.993 -0.608,-3.534 -1.823,-4.623c-1.216,-1.089 -2.673,-1.634 -4.374,-1.634c-1.235,0 -2.295,0.239 -3.178,0.717c-0.883,0.478 -1.637,1.142 -2.262,1.993l-3.108,-0.179l2.172,-15.363l14.825,0l0,3.467l-12.135,0l-1.216,7.931c0.664,-0.505 1.295,-0.883 1.893,-1.136c1.063,-0.438 2.292,-0.658 3.686,-0.658c2.617,0 4.835,0.844 6.655,2.531c1.82,1.687 2.73,3.826 2.73,6.416c0,2.697 -0.834,5.075 -2.501,7.134c-1.667,2.059 -4.327,3.089 -7.98,3.089c-2.325,0 -4.38,-0.654 -6.167,-1.963c-1.787,-1.308 -2.786,-3.318 -2.999,-6.028l3.726,0Zm28.694,-21.261c3.693,0 6.363,1.521 8.01,4.563c1.275,2.351 1.913,5.573 1.913,9.664c0,3.879 -0.578,7.087 -1.734,9.624c-1.674,3.64 -4.41,5.46 -8.21,5.46c-3.427,0 -5.978,-1.488 -7.652,-4.463c-1.395,-2.484 -2.092,-5.818 -2.092,-10.003c0,-3.241 0.418,-6.024 1.255,-8.349c1.568,-4.331 4.404,-6.496 8.509,-6.496Zm-0.04,26.044c1.86,0 3.341,-0.824 4.444,-2.471c1.103,-1.647 1.654,-4.716 1.654,-9.206c0,-3.241 -0.399,-5.908 -1.196,-8c-0.797,-2.092 -2.345,-3.138 -4.643,-3.138c-2.112,0 -3.656,0.993 -4.633,2.979c-0.976,1.986 -1.465,4.912 -1.465,8.778c0,2.909 0.312,5.247 0.937,7.014c0.956,2.697 2.59,4.045 4.902,4.045Zm17.117,-4.404c0.106,1.979 0.87,3.348 2.292,4.105c0.731,0.399 1.554,0.598 2.471,0.598c1.714,0 3.175,-0.714 4.384,-2.142c1.209,-1.428 2.066,-4.327 2.57,-8.698c-0.797,1.262 -1.783,2.149 -2.959,2.66c-1.176,0.511 -2.441,0.767 -3.796,0.767c-2.75,0 -4.925,-0.857 -6.526,-2.57c-1.601,-1.714 -2.401,-3.919 -2.401,-6.616c0,-2.59 0.79,-4.869 2.371,-6.835c1.581,-1.966 3.912,-2.949 6.994,-2.949c4.158,0 7.027,1.873 8.608,5.619c0.877,2.059 1.315,4.636 1.315,7.731c0,3.494 -0.525,6.589 -1.574,9.286c-1.74,4.49 -4.689,6.735 -8.847,6.735c-2.79,0 -4.909,-0.731 -6.356,-2.192c-1.448,-1.461 -2.172,-3.294 -2.172,-5.5l3.627,0Zm5.44,-5.858c1.421,0 2.72,-0.468 3.896,-1.405c1.176,-0.937 1.763,-2.574 1.763,-4.912c0,-2.099 -0.528,-3.663 -1.584,-4.693c-1.056,-1.03 -2.401,-1.544 -4.035,-1.544c-1.754,0 -3.145,0.588 -4.175,1.763c-1.03,1.176 -1.544,2.747 -1.544,4.713c0,1.86 0.452,3.338 1.355,4.434c0.903,1.096 2.345,1.644 4.324,1.644Zm22.875,-15.782c3.693,0 6.363,1.521 8.01,4.563c1.275,2.351 1.913,5.573 1.913,9.664c0,3.879 -0.578,7.087 -1.734,9.624c-1.674,3.64 -4.41,5.46 -8.21,5.46c-3.427,0 -5.978,-1.488 -7.652,-4.463c-1.395,-2.484 -2.092,-5.818 -2.092,-10.003c0,-3.241 0.418,-6.024 1.255,-8.349c1.568,-4.331 4.404,-6.496 8.509,-6.496Zm-0.04,26.044c1.86,0 3.341,-0.824 4.444,-2.471c1.103,-1.647 1.654,-4.716 1.654,-9.206c0,-3.241 -0.399,-5.908 -1.196,-8c-0.797,-2.092 -2.345,-3.138 -4.643,-3.138c-2.112,0 -3.656,0.993 -4.633,2.979c-0.976,1.986 -1.465,4.912 -1.465,8.778c0,2.909 0.312,5.247 0.937,7.014c0.956,2.697 2.59,4.045 4.902,4.045Zm16.738,-4.782c0.239,2.046 1.189,3.461 2.849,4.244c0.85,0.399 1.833,0.598 2.949,0.598c2.125,0 3.7,-0.677 4.723,-2.032c1.023,-1.355 1.534,-2.856 1.534,-4.503c0,-1.993 -0.608,-3.534 -1.823,-4.623c-1.216,-1.089 -2.673,-1.634 -4.374,-1.634c-1.235,0 -2.295,0.239 -3.178,0.717c-0.883,0.478 -1.637,1.142 -2.262,1.993l-3.108,-0.179l2.172,-15.363l14.825,0l0,3.467l-12.135,0l-1.216,7.931c0.664,-0.505 1.295,-0.883 1.893,-1.136c1.063,-0.438 2.292,-0.658 3.686,-0.658c2.617,0 4.835,0.844 6.655,2.531c1.82,1.687 2.73,3.826 2.73,6.416c0,2.697 -0.834,5.075 -2.501,7.134c-1.667,2.059 -4.327,3.089 -7.98,3.089c-2.325,0 -4.38,-0.654 -6.167,-1.963c-1.787,-1.308 -2.786,-3.318 -2.999,-6.028l3.726,0Zm21.56,-12.932l0,-2.75c2.59,-0.252 4.397,-0.674 5.42,-1.265c1.023,-0.591 1.787,-1.989 2.292,-4.194l2.83,0l0,28.415l-3.826,0l0,-20.205l-6.715,0Zm20.066,20.205c0.133,-2.458 0.641,-4.596 1.524,-6.416c0.883,-1.82 2.607,-3.474 5.171,-4.962l3.826,-2.212c1.714,-0.996 2.916,-1.847 3.607,-2.551c1.089,-1.103 1.634,-2.365 1.634,-3.786c0,-1.661 -0.498,-2.979 -1.494,-3.955c-0.996,-0.976 -2.325,-1.465 -3.985,-1.465c-2.458,0 -4.158,0.93 -5.101,2.79c-0.505,0.996 -0.784,2.378 -0.837,4.145l-3.647,0c0.04,-2.484 0.498,-4.51 1.375,-6.078c1.554,-2.763 4.297,-4.145 8.23,-4.145c3.268,0 5.656,0.883 7.163,2.65c1.508,1.767 2.262,3.733 2.262,5.898c0,2.285 -0.804,4.238 -2.411,5.858c-0.93,0.943 -2.597,2.086 -5.001,3.427l-2.73,1.514c-1.302,0.717 -2.325,1.401 -3.069,2.052c-1.328,1.156 -2.165,2.438 -2.511,3.846l15.582,0l0,3.387l-19.588,0Zm32.022,0.777c-3.374,0 -5.822,-0.927 -7.343,-2.78c-1.521,-1.853 -2.282,-4.108 -2.282,-6.765l3.746,0c0.159,1.847 0.505,3.188 1.036,4.025c0.93,1.501 2.61,2.252 5.041,2.252c1.886,0 3.401,-0.505 4.543,-1.514c1.142,-1.01 1.714,-2.311 1.714,-3.906c0,-1.966 -0.601,-3.341 -1.803,-4.125c-1.202,-0.784 -2.873,-1.176 -5.011,-1.176c-0.239,0 -0.482,0.003 -0.727,0.01c-0.246,0.007 -0.495,0.017 -0.747,0.03l0,-3.168c0.372,0.04 0.684,0.066 0.937,0.08c0.252,0.013 0.525,0.02 0.817,0.02c1.342,0 2.444,-0.213 3.308,-0.638c1.514,-0.744 2.272,-2.072 2.272,-3.985c0,-1.421 -0.505,-2.517 -1.514,-3.288c-1.01,-0.77 -2.185,-1.156 -3.527,-1.156c-2.391,0 -4.045,0.797 -4.962,2.391c-0.505,0.877 -0.79,2.125 -0.857,3.746l-3.547,0c0,-2.125 0.425,-3.932 1.275,-5.42c1.461,-2.657 4.032,-3.985 7.711,-3.985c2.909,0 5.161,0.648 6.755,1.943c1.594,1.295 2.391,3.172 2.391,5.629c0,1.754 -0.472,3.175 -1.415,4.264c-0.585,0.677 -1.342,1.209 -2.272,1.594c1.501,0.412 2.673,1.206 3.517,2.381c0.844,1.176 1.265,2.614 1.265,4.314c0,2.723 -0.897,4.942 -2.69,6.655c-1.793,1.714 -4.337,2.57 -7.632,2.57Zm16.001,-20.982l0,-2.75c2.59,-0.252 4.397,-0.674 5.42,-1.265c1.023,-0.591 1.787,-1.989 2.292,-4.194l2.83,0l0,28.415l-3.826,0l0,-20.205l-6.715,0Zm19.687,0l0,-2.75c2.59,-0.252 4.397,-0.674 5.42,-1.265c1.023,-0.591 1.787,-1.989 2.292,-4.194l2.83,0l0,28.415l-3.826,0l0,-20.205l-6.715,0Zm30.726,-8.449c3.188,0 5.41,0.827 6.665,2.481c1.255,1.654 1.883,3.358 1.883,5.111l-3.547,0c-0.213,-1.129 -0.551,-2.013 -1.016,-2.65c-0.863,-1.196 -2.172,-1.793 -3.925,-1.793c-2.006,0 -3.6,0.927 -4.782,2.78c-1.182,1.853 -1.84,4.507 -1.973,7.961c0.824,-1.209 1.86,-2.112 3.108,-2.71c1.142,-0.531 2.418,-0.797 3.826,-0.797c2.391,0 4.477,0.764 6.257,2.292c1.78,1.528 2.67,3.806 2.67,6.835c0,2.59 -0.844,4.885 -2.531,6.885c-1.687,1.999 -4.092,2.999 -7.213,2.999c-2.67,0 -4.975,-1.013 -6.914,-3.039c-1.939,-2.026 -2.909,-5.437 -2.909,-10.232c0,-3.547 0.432,-6.556 1.295,-9.027c1.661,-4.729 4.696,-7.094 9.106,-7.094Zm-0.259,26.203c1.886,0 3.298,-0.634 4.234,-1.903c0.937,-1.269 1.405,-2.766 1.405,-4.493c0,-1.461 -0.418,-2.853 -1.255,-4.175c-0.837,-1.322 -2.358,-1.983 -4.563,-1.983c-1.541,0 -2.893,0.511 -4.055,1.534c-1.162,1.023 -1.744,2.564 -1.744,4.623c0,1.807 0.528,3.324 1.584,4.553c1.056,1.229 2.521,1.843 4.394,1.843Zm12.295,2.451c0.133,-2.458 0.641,-4.596 1.524,-6.416c0.883,-1.82 2.607,-3.474 5.171,-4.962l3.826,-2.212c1.714,-0.996 2.916,-1.847 3.607,-2.551c1.089,-1.103 1.634,-2.365 1.634,-3.786c0,-1.661 -0.498,-2.979 -1.494,-3.955c-0.996,-0.976 -2.325,-1.465 -3.985,-1.465c-2.458,0 -4.158,0.93 -5.101,2.79c-0.505,0.996 -0.784,2.378 -0.837,4.145l-3.647,0c0.04,-2.484 0.498,-4.51 1.375,-6.078c1.554,-2.763 4.297,-4.145 8.23,-4.145c3.268,0 5.656,0.883 7.163,2.65c1.508,1.767 2.262,3.733 2.262,5.898c0,2.285 -0.804,4.238 -2.411,5.858c-0.93,0.943 -2.597,2.086 -5.001,3.427l-2.73,1.514c-1.302,0.717 -2.325,1.401 -3.069,2.052c-1.328,1.156 -2.165,2.438 -2.511,3.846l15.582,0l0,3.387l-19.588,0Zm27.638,-15.204c-0.996,-0.425 -1.773,-0.923 -2.331,-1.494c-1.049,-1.063 -1.574,-2.444 -1.574,-4.145c0,-2.125 0.77,-3.952 2.311,-5.48c1.541,-1.528 3.726,-2.292 6.556,-2.292c2.737,0 4.882,0.721 6.436,2.162c1.554,1.441 2.331,3.125 2.331,5.051c0,1.78 -0.452,3.221 -1.355,4.324c-0.505,0.624 -1.289,1.235 -2.351,1.833c1.182,0.545 2.112,1.169 2.79,1.873c1.262,1.328 1.893,3.055 1.893,5.181c0,2.511 -0.844,4.639 -2.531,6.386c-1.687,1.747 -4.072,2.62 -7.154,2.62c-2.776,0 -5.124,-0.754 -7.044,-2.262c-1.92,-1.508 -2.879,-3.696 -2.879,-6.566c0,-1.687 0.412,-3.145 1.235,-4.374c0.824,-1.229 2.046,-2.169 3.666,-2.82Zm5.101,12.753c1.661,0 3.039,-0.448 4.135,-1.345c1.096,-0.897 1.644,-2.235 1.644,-4.015c0,-1.847 -0.565,-3.248 -1.694,-4.204c-1.129,-0.956 -2.577,-1.435 -4.344,-1.435c-1.714,0 -3.112,0.488 -4.194,1.465c-1.083,0.976 -1.624,2.328 -1.624,4.055c0,1.488 0.495,2.773 1.485,3.856c0.99,1.083 2.521,1.624 4.593,1.624Zm-0.219,-14.128c1.581,0 2.816,-0.442 3.706,-1.325c0.89,-0.883 1.335,-1.936 1.335,-3.158c0,-1.063 -0.425,-2.039 -1.275,-2.929c-0.85,-0.89 -2.145,-1.335 -3.886,-1.335c-1.727,0 -2.976,0.445 -3.746,1.335c-0.77,0.89 -1.156,1.933 -1.156,3.128c0,1.342 0.498,2.391 1.494,3.148c0.996,0.757 2.172,1.136 3.527,1.136Z"/>
        </g>
        <g transform="matrix(4.043934,0,0,4.013959,29407.720539,27857.193031)">
            <path d="M396.336,349.961l-2.606,0l0,2.625l2.606,0l0,-2.625Zm2.605,0l-2.605,0l0,2.625l2.605,0l0,-2.625Zm2.606,0l-2.606,0l0,2.625l2.606,0l0,-2.625Zm2.605,0l-2.605,0l0,2.625l2.605,0l0,-2.625Zm2.602,0l-2.602,0l0,2.625l2.602,0l0,-2.625Zm2.605,0l-2.605,0l0,2.625l2.605,0l0,-2.625Zm2.606,0l-2.606,0l0,2.625l2.606,0l0,-2.625Zm5.211,0l-2.606,0l0,2.625l2.606,0l0,-2.625Zm2.605,0l-2.605,0l0,2.625l2.605,0l0,-2.625Zm2.606,0l-2.606,0l0,2.625l2.606,0l0,-2.625Zm5.211,0l-2.606,0l0,2.625l2.606,0l0,-2.625Zm2.601,0l-2.601,0l0,2.625l2.601,0l0,-2.625Zm2.606,0l-2.606,0l0,2.625l2.606,0l0,-2.625Zm2.605,0l-2.605,0l0,2.625l2.605,0l0,-2.625Zm5.211,0l-2.605,0l0,2.625l2.605,0l0,-2.625Zm13.024,0l-2.606,0l0,2.625l2.606,0l0,-2.625Zm2.605,0l-2.605,0l0,2.625l2.605,0l0,-2.625Zm5.211,0l-2.606,0l0,2.625l2.606,0l0,-2.625Zm13.023,0l-2.601,0l0,2.625l2.601,0l0,-2.625Zm7.817,0l-2.606,0l0,2.625l2.606,0l0,-2.625Zm13.023,0l-2.601,0l0,2.625l2.601,0l0,-2.625Zm5.211,0l-2.605,0l0,2.625l2.605,0l0,-2.625Zm2.606,0l-2.606,0l0,2.625l2.606,0l0,-2.625Zm2.605,0l-2.605,0l0,2.625l2.605,0l0,-2.625Zm10.422,0l-2.605,0l0,2.625l2.605,0l0,-2.625Zm2.602,0l-2.602,0l0,2.625l2.602,0l0,-2.625Zm2.605,0l-2.605,0l0,2.625l2.605,0l0,-2.625Zm2.605,0l-2.605,0l0,2.625l2.605,0l0,-2.625Zm2.606,0l-2.606,0l0,2.625l2.606,0l0,-2.625Zm2.605,0l-2.605,0l0,2.625l2.605,0l0,-2.625Zm2.606,0l-2.606,0l0,2.625l2.606,0l0,-2.625Zm-135.461,2.625l-2.606,0l0,2.625l2.606,0l0,-2.625Zm15.629,0l-2.606,0l0,2.625l2.606,0l0,-2.625Zm7.816,0l-2.605,0l0,2.625l2.605,0l0,-2.625Zm2.606,0l-2.606,0l0,2.625l2.606,0l0,-2.625Zm5.211,0l-2.606,0l0,2.625l2.606,0l0,-2.625Zm2.601,0l-2.601,0l0,2.625l2.601,0l0,-2.625Zm2.606,0l-2.606,0l0,2.625l2.606,0l0,-2.625Zm7.816,0l-2.605,0l0,2.625l2.605,0l0,-2.625Zm5.211,0l-2.605,0l0,2.625l2.605,0l0,-2.625Zm2.606,0l-2.606,0l0,2.625l2.606,0l0,-2.625Zm5.207,0l-2.606,0l0,2.625l2.606,0l0,-2.625Zm5.21,0l-2.605,0l0,2.625l2.605,0l0,-2.625Zm13.028,0l-2.606,0l0,2.625l2.606,0l0,-2.625Zm5.207,0l-2.606,0l0,2.625l2.606,0l0,-2.625Zm5.211,0l-2.606,0l0,2.625l2.606,0l0,-2.625Zm10.422,0l-2.606,0l0,2.625l2.606,0l0,-2.625Zm2.601,0l-2.601,0l0,2.625l2.601,0l0,-2.625Zm2.606,0l-2.606,0l0,2.625l2.606,0l0,-2.625Zm7.816,0l-2.605,0l0,2.625l2.605,0l0,-2.625Zm2.606,0l-2.606,0l0,2.625l2.606,0l0,-2.625Zm7.816,0l-2.605,0l0,2.625l2.605,0l0,-2.625Zm15.629,0l-2.606,0l0,2.625l2.606,0l0,-2.625Zm-135.461,2.625l-2.606,0l0,2.625l2.606,0l0,-2.625Zm5.211,0l-2.606,0l0,2.625l2.606,0l0,-2.625Zm2.605,0l-2.605,0l0,2.625l2.605,0l0,-2.625Zm2.602,0l-2.602,0l0,2.625l2.602,0l0,-2.625Zm5.211,0l-2.606,0l0,2.625l2.606,0l0,-2.625Zm5.211,0l-2.606,0l0,2.625l2.606,0l0,-2.625Zm7.816,0l-2.605,0l0,2.625l2.605,0l0,-2.625Zm5.207,0l-2.601,0l0,2.625l2.601,0l0,-2.625Zm5.211,0l-2.605,0l0,2.625l2.605,0l0,-2.625Zm2.606,0l-2.606,0l0,2.625l2.606,0l0,-2.625Zm2.605,0l-2.605,0l0,2.625l2.605,0l0,-2.625Zm2.606,0l-2.606,0l0,2.625l2.606,0l0,-2.625Zm2.605,0l-2.605,0l0,2.625l2.605,0l0,-2.625Zm2.606,0l-2.606,0l0,2.625l2.606,0l0,-2.625Zm5.207,0l-2.606,0l0,2.625l2.606,0l0,-2.625Zm10.421,0l-2.605,0l0,2.625l2.605,0l0,-2.625Zm2.606,0l-2.606,0l0,2.625l2.606,0l0,-2.625Zm13.023,0l-2.605,0l0,2.625l2.605,0l0,-2.625Zm13.028,0l-2.606,0l0,2.625l2.606,0l0,-2.625Zm2.601,0l-2.601,0l0,2.625l2.601,0l0,-2.625Zm2.606,0l-2.606,0l0,2.625l2.606,0l0,-2.625Zm2.605,0l-2.605,0l0,2.625l2.605,0l0,-2.625Zm2.606,0l-2.606,0l0,2.625l2.606,0l0,-2.625Zm5.211,0l-2.606,0l0,2.625l2.606,0l0,-2.625Zm7.816,0l-2.605,0l0,2.625l2.605,0l0,-2.625Zm5.207,0l-2.605,0l0,2.625l2.605,0l0,-2.625Zm2.605,0l-2.605,0l0,2.625l2.605,0l0,-2.625Zm2.606,0l-2.606,0l0,2.625l2.606,0l0,-2.625Zm5.211,0l-2.606,0l0,2.625l2.606,0l0,-2.625Zm-135.461,2.625l-2.606,0l0,2.625l2.606,0l0,-2.625Zm5.211,0l-2.606,0l0,2.625l2.606,0l0,-2.625Zm2.605,0l-2.605,0l0,2.625l2.605,0l0,-2.625Zm2.602,0l-2.602,0l0,2.625l2.602,0l0,-2.625Zm5.211,0l-2.606,0l0,2.625l2.606,0l0,-2.625Zm5.211,0l-2.606,0l0,2.625l2.606,0l0,-2.625Zm2.605,0l-2.605,0l0,2.625l2.605,0l0,-2.625Zm5.211,0l-2.605,0l0,2.625l2.605,0l0,-2.625Zm7.813,0l-2.606,0l0,2.625l2.606,0l0,-2.625Zm13.027,0l-2.605,0l0,2.625l2.605,0l0,-2.625Zm5.207,0l-2.601,0l0,2.625l2.601,0l0,-2.625Zm2.606,0l-2.606,0l0,2.625l2.606,0l0,-2.625Zm5.21,0l-2.605,0l0,2.625l2.605,0l0,-2.625Zm7.817,0l-2.606,0l0,2.625l2.606,0l0,-2.625Zm2.605,0l-2.605,0l0,2.625l2.605,0l0,-2.625Zm2.606,0l-2.606,0l0,2.625l2.606,0l0,-2.625Zm2.601,0l-2.601,0l0,2.625l2.601,0l0,-2.625Zm5.211,0l-2.605,0l0,2.625l2.605,0l0,-2.625Zm5.211,0l-2.605,0l0,2.625l2.605,0l0,-2.625Zm15.629,0l-2.605,0l0,2.625l2.605,0l0,-2.625Zm2.606,0l-2.606,0l0,2.625l2.606,0l0,-2.625Zm2.605,0l-2.605,0l0,2.625l2.605,0l0,-2.625Zm5.211,0l-2.605,0l0,2.625l2.605,0l0,-2.625Zm5.211,0l-2.605,0l0,2.625l2.605,0l0,-2.625Zm5.207,0l-2.605,0l0,2.625l2.605,0l0,-2.625Zm2.605,0l-2.605,0l0,2.625l2.605,0l0,-2.625Zm2.606,0l-2.606,0l0,2.625l2.606,0l0,-2.625Zm5.211,0l-2.606,0l0,2.625l2.606,0l0,-2.625Zm-135.461,2.625l-2.606,0l0,2.625l2.606,0l0,-2.625Zm5.211,0l-2.606,0l0,2.625l2.606,0l0,-2.625Zm2.605,0l-2.605,0l0,2.625l2.605,0l0,-2.625Zm2.602,0l-2.602,0l0,2.625l2.602,0l0,-2.625Zm5.211,0l-2.606,0l0,2.625l2.606,0l0,-2.625Zm5.211,0l-2.606,0l0,2.625l2.606,0l0,-2.625Zm7.816,0l-2.605,0l0,2.625l2.605,0l0,-2.625Zm5.207,0l-2.601,0l0,2.625l2.601,0l0,-2.625Zm5.211,0l-2.605,0l0,2.625l2.605,0l0,-2.625Zm2.606,0l-2.606,0l0,2.625l2.606,0l0,-2.625Zm2.605,0l-2.605,0l0,2.625l2.605,0l0,-2.625Zm7.817,0l-2.606,0l0,2.625l2.606,0l0,-2.625Zm5.207,0l-2.606,0l0,2.625l2.606,0l0,-2.625Zm2.605,0l-2.605,0l0,2.625l2.605,0l0,-2.625Zm2.605,0l-2.605,0l0,2.625l2.605,0l0,-2.625Zm2.606,0l-2.606,0l0,2.625l2.606,0l0,-2.625Zm2.605,0l-2.605,0l0,2.625l2.605,0l0,-2.625Zm2.606,0l-2.606,0l0,2.625l2.606,0l0,-2.625Zm2.605,0l-2.605,0l0,2.625l2.605,0l0,-2.625Zm2.606,0l-2.606,0l0,2.625l2.606,0l0,-2.625Zm2.601,0l-2.601,0l0,2.625l2.601,0l0,-2.625Zm7.817,0l-2.606,0l0,2.625l2.606,0l0,-2.625Zm5.211,0l-2.606,0l0,2.625l2.606,0l0,-2.625Zm5.211,0l-2.606,0l0,2.625l2.606,0l0,-2.625Zm5.207,0l-2.606,0l0,2.625l2.606,0l0,-2.625Zm2.605,0l-2.605,0l0,2.625l2.605,0l0,-2.625Zm2.606,0l-2.606,0l0,2.625l2.606,0l0,-2.625Zm2.605,0l-2.605,0l0,2.625l2.605,0l0,-2.625Zm10.422,0l-2.605,0l0,2.625l2.605,0l0,-2.625Zm5.207,0l-2.605,0l0,2.625l2.605,0l0,-2.625Zm2.605,0l-2.605,0l0,2.625l2.605,0l0,-2.625Zm2.606,0l-2.606,0l0,2.625l2.606,0l0,-2.625Zm5.211,0l-2.606,0l0,2.625l2.606,0l0,-2.625Zm-135.461,2.625l-2.606,0l0,2.621l2.606,0l0,-2.621Zm15.629,0l-2.606,0l0,2.621l2.606,0l0,-2.621Zm5.211,0l-2.606,0l0,2.621l2.606,0l0,-2.621Zm10.422,0l-2.606,0l0,2.621l2.606,0l0,-2.621Zm2.601,0l-2.601,0l0,2.621l2.601,0l0,-2.621Zm2.606,0l-2.606,0l0,2.621l2.606,0l0,-2.621Zm7.816,0l-2.605,0l0,2.621l2.605,0l0,-2.621Zm10.418,0l-2.601,0l0,2.621l2.601,0l0,-2.621Zm2.606,0l-2.606,0l0,2.621l2.606,0l0,-2.621Zm2.605,0l-2.605,0l0,2.621l2.605,0l0,-2.621Zm2.605,0l-2.605,0l0,2.621l2.605,0l0,-2.621Zm10.422,0l-2.605,0l0,2.621l2.605,0l0,-2.621Zm2.606,0l-2.606,0l0,2.621l2.606,0l0,-2.621Zm7.812,0l-2.605,0l0,2.621l2.605,0l0,-2.621Zm2.606,0l-2.606,0l0,2.621l2.606,0l0,-2.621Zm5.211,0l-2.606,0l0,2.621l2.606,0l0,-2.621Zm7.812,0l-2.601,0l0,2.621l2.601,0l0,-2.621Zm2.606,0l-2.606,0l0,2.621l2.606,0l0,-2.621Zm2.605,0l-2.605,0l0,2.621l2.605,0l0,-2.621Zm2.606,0l-2.606,0l0,2.621l2.606,0l0,-2.621Zm2.605,0l-2.605,0l0,2.621l2.605,0l0,-2.621Zm10.422,0l-2.605,0l0,2.621l2.605,0l0,-2.621Zm15.629,0l-2.606,0l0,2.621l2.606,0l0,-2.621Zm-135.461,2.621l-2.606,0l0,2.625l2.606,0l0,-2.625Zm2.605,0l-2.605,0l0,2.625l2.605,0l0,-2.625Zm2.606,0l-2.606,0l0,2.625l2.606,0l0,-2.625Zm2.605,0l-2.605,0l0,2.625l2.605,0l0,-2.625Zm2.602,0l-2.602,0l0,2.625l2.602,0l0,-2.625Zm2.605,0l-2.605,0l0,2.625l2.605,0l0,-2.625Zm2.606,0l-2.606,0l0,2.625l2.606,0l0,-2.625Zm5.211,0l-2.606,0l0,2.625l2.606,0l0,-2.625Zm5.211,0l-2.606,0l0,2.625l2.606,0l0,-2.625Zm5.211,0l-2.606,0l0,2.625l2.606,0l0,-2.625Zm5.207,0l-2.606,0l0,2.625l2.606,0l0,-2.625Zm5.211,0l-2.606,0l0,2.625l2.606,0l0,-2.625Zm5.211,0l-2.606,0l0,2.625l2.606,0l0,-2.625Zm5.211,0l-2.606,0l0,2.625l2.606,0l0,-2.625Zm5.207,0l-2.606,0l0,2.625l2.606,0l0,-2.625Zm5.21,0l-2.605,0l0,2.625l2.605,0l0,-2.625Zm5.211,0l-2.605,0l0,2.625l2.605,0l0,-2.625Zm5.211,0l-2.605,0l0,2.625l2.605,0l0,-2.625Zm5.207,0l-2.601,0l0,2.625l2.601,0l0,-2.625Zm5.211,0l-2.605,0l0,2.625l2.605,0l0,-2.625Zm5.211,0l-2.605,0l0,2.625l2.605,0l0,-2.625Zm5.211,0l-2.605,0l0,2.625l2.605,0l0,-2.625Zm5.207,0l-2.601,0l0,2.625l2.601,0l0,-2.625Zm5.211,0l-2.605,0l0,2.625l2.605,0l0,-2.625Zm5.211,0l-2.605,0l0,2.625l2.605,0l0,-2.625Zm5.211,0l-2.605,0l0,2.625l2.605,0l0,-2.625Zm5.211,0l-2.605,0l0,2.625l2.605,0l0,-2.625Zm2.602,0l-2.602,0l0,2.625l2.602,0l0,-2.625Zm2.605,0l-2.605,0l0,2.625l2.605,0l0,-2.625Zm2.605,0l-2.605,0l0,2.625l2.605,0l0,-2.625Zm2.606,0l-2.606,0l0,2.625l2.606,0l0,-2.625Zm2.605,0l-2.605,0l0,2.625l2.605,0l0,-2.625Zm2.606,0l-2.606,0l0,2.625l2.606,0l0,-2.625Zm-109.41,2.625l-2.606,0l0,2.625l2.606,0l0,-2.625Zm2.605,0l-2.605,0l0,2.625l2.605,0l0,-2.625Zm2.606,0l-2.606,0l0,2.625l2.606,0l0,-2.625Zm2.601,0l-2.601,0l0,2.625l2.601,0l0,-2.625Zm2.606,0l-2.606,0l0,2.625l2.606,0l0,-2.625Zm5.211,0l-2.606,0l0,2.625l2.606,0l0,-2.625Zm5.211,0l-2.606,0l0,2.625l2.606,0l0,-2.625Zm2.605,0l-2.605,0l0,2.625l2.605,0l0,-2.625Zm13.023,0l-2.605,0l0,2.625l2.605,0l0,-2.625Zm10.422,0l-2.605,0l0,2.625l2.605,0l0,-2.625Zm13.024,0l-2.606,0l0,2.625l2.606,0l0,-2.625Zm2.605,0l-2.605,0l0,2.625l2.605,0l0,-2.625Zm2.606,0l-2.606,0l0,2.625l2.606,0l0,-2.625Zm2.605,0l-2.605,0l0,2.625l2.605,0l0,-2.625Zm2.606,0l-2.606,0l0,2.625l2.606,0l0,-2.625Zm5.207,0l-2.606,0l0,2.625l2.606,0l0,-2.625Zm5.211,0l-2.606,0l0,2.625l2.606,0l0,-2.625Zm5.211,0l-2.606,0l0,2.625l2.606,0l0,-2.625Zm-106.805,2.625l-2.606,0l0,2.625l2.606,0l0,-2.625Zm2.605,0l-2.605,0l0,2.625l2.605,0l0,-2.625Zm2.602,0l-2.602,0l0,2.625l2.602,0l0,-2.625Zm2.605,0l-2.605,0l0,2.625l2.605,0l0,-2.625Zm2.606,0l-2.606,0l0,2.625l2.606,0l0,-2.625Zm2.605,0l-2.605,0l0,2.625l2.605,0l0,-2.625Zm5.211,0l-2.605,0l0,2.625l2.605,0l0,-2.625Zm5.211,0l-2.605,0l0,2.625l2.605,0l0,-2.625Zm2.606,0l-2.606,0l0,2.625l2.606,0l0,-2.625Zm2.601,0l-2.601,0l0,2.625l2.601,0l0,-2.625Zm2.606,0l-2.606,0l0,2.625l2.606,0l0,-2.625Zm2.605,0l-2.605,0l0,2.625l2.605,0l0,-2.625Zm5.211,0l-2.605,0l0,2.625l2.605,0l0,-2.625Zm2.606,0l-2.606,0l0,2.625l2.606,0l0,-2.625Zm5.211,0l-2.606,0l0,2.625l2.606,0l0,-2.625Zm2.601,0l-2.601,0l0,2.625l2.601,0l0,-2.625Zm7.816,0l-2.605,0l0,2.625l2.605,0l0,-2.625Zm2.606,0l-2.606,0l0,2.625l2.606,0l0,-2.625Zm2.605,0l-2.605,0l0,2.625l2.605,0l0,-2.625Zm2.606,0l-2.606,0l0,2.625l2.606,0l0,-2.625Zm2.605,0l-2.605,0l0,2.625l2.605,0l0,-2.625Zm5.207,0l-2.601,0l0,2.625l2.601,0l0,-2.625Zm5.211,0l-2.605,0l0,2.625l2.605,0l0,-2.625Zm2.606,0l-2.606,0l0,2.625l2.606,0l0,-2.625Zm2.605,0l-2.605,0l0,2.625l2.605,0l0,-2.625Zm10.418,0l-2.601,0l0,2.625l2.601,0l0,-2.625Zm2.606,0l-2.606,0l0,2.625l2.606,0l0,-2.625Zm15.633,0l-2.606,0l0,2.625l2.606,0l0,-2.625Zm5.207,0l-2.602,0l0,2.625l2.602,0l0,-2.625Zm2.605,0l-2.605,0l0,2.625l2.605,0l0,-2.625Zm2.605,0l-2.605,0l0,2.625l2.605,0l0,-2.625Zm2.606,0l-2.606,0l0,2.625l2.606,0l0,-2.625Zm5.211,0l-2.606,0l0,2.625l2.606,0l0,-2.625Zm-135.461,2.625l-2.606,0l0,2.625l2.606,0l0,-2.625Zm2.605,0l-2.605,0l0,2.625l2.605,0l0,-2.625Zm2.606,0l-2.606,0l0,2.625l2.606,0l0,-2.625Zm2.605,0l-2.605,0l0,2.625l2.605,0l0,-2.625Zm2.602,0l-2.602,0l0,2.625l2.602,0l0,-2.625Zm2.605,0l-2.605,0l0,2.625l2.605,0l0,-2.625Zm5.211,0l-2.605,0l0,2.625l2.605,0l0,-2.625Zm2.606,0l-2.606,0l0,2.625l2.606,0l0,-2.625Zm2.605,0l-2.605,0l0,2.625l2.605,0l0,-2.625Zm7.817,0l-2.606,0l0,2.625l2.606,0l0,-2.625Zm2.601,0l-2.601,0l0,2.625l2.601,0l0,-2.625Zm5.211,0l-2.605,0l0,2.625l2.605,0l0,-2.625Zm2.606,0l-2.606,0l0,2.625l2.606,0l0,-2.625Zm7.816,0l-2.605,0l0,2.625l2.605,0l0,-2.625Zm2.606,0l-2.606,0l0,2.625l2.606,0l0,-2.625Zm2.601,0l-2.601,0l0,2.625l2.601,0l0,-2.625Zm2.606,0l-2.606,0l0,2.625l2.606,0l0,-2.625Zm7.816,0l-2.606,0l0,2.625l2.606,0l0,-2.625Zm10.422,0l-2.606,0l0,2.625l2.606,0l0,-2.625Zm2.601,0l-2.601,0l0,2.625l2.601,0l0,-2.625Zm2.606,0l-2.606,0l0,2.625l2.606,0l0,-2.625Zm2.605,0l-2.605,0l0,2.625l2.605,0l0,-2.625Zm5.211,0l-2.605,0l0,2.625l2.605,0l0,-2.625Zm2.606,0l-2.606,0l0,2.625l2.606,0l0,-2.625Zm5.211,0l-2.606,0l0,2.625l2.606,0l0,-2.625Zm10.418,0l-2.606,0l0,2.625l2.606,0l0,-2.625Zm5.211,0l-2.606,0l0,2.625l2.606,0l0,-2.625Zm5.211,0l-2.606,0l0,2.625l2.606,0l0,-2.625Zm2.605,0l-2.605,0l0,2.625l2.605,0l0,-2.625Zm2.602,0l-2.602,0l0,2.625l2.602,0l0,-2.625Zm13.027,0l-2.606,0l0,2.625l2.606,0l0,-2.625Zm-135.461,2.625l-2.606,0l0,2.625l2.606,0l0,-2.625Zm5.211,0l-2.606,0l0,2.625l2.606,0l0,-2.625Zm2.605,0l-2.605,0l0,2.625l2.605,0l0,-2.625Zm7.813,0l-2.606,0l0,2.625l2.606,0l0,-2.625Zm2.605,0l-2.605,0l0,2.625l2.605,0l0,-2.625Zm13.028,0l-2.606,0l0,2.625l2.606,0l0,-2.625Zm2.601,0l-2.601,0l0,2.625l2.601,0l0,-2.625Zm2.606,0l-2.606,0l0,2.625l2.606,0l0,-2.625Zm2.605,0l-2.605,0l0,2.625l2.605,0l0,-2.625Zm2.606,0l-2.606,0l0,2.625l2.606,0l0,-2.625Zm2.605,0l-2.605,0l0,2.625l2.605,0l0,-2.625Zm7.817,0l-2.606,0l0,2.625l2.606,0l0,-2.625Zm5.207,0l-2.606,0l0,2.625l2.606,0l0,-2.625Zm5.21,0l-2.605,0l0,2.625l2.605,0l0,-2.625Zm2.606,0l-2.606,0l0,2.625l2.606,0l0,-2.625Zm5.211,0l-2.606,0l0,2.625l2.606,0l0,-2.625Zm13.023,0l-2.605,0l0,2.625l2.605,0l0,-2.625Zm5.211,0l-2.605,0l0,2.625l2.605,0l0,-2.625Zm2.606,0l-2.606,0l0,2.625l2.606,0l0,-2.625Zm2.605,0l-2.605,0l0,2.625l2.605,0l0,-2.625Zm2.606,0l-2.606,0l0,2.625l2.606,0l0,-2.625Zm2.601,0l-2.601,0l0,2.625l2.601,0l0,-2.625Zm2.606,0l-2.606,0l0,2.625l2.606,0l0,-2.625Zm2.605,0l-2.605,0l0,2.625l2.605,0l0,-2.625Zm7.817,0l-2.606,0l0,2.625l2.606,0l0,-2.625Zm2.605,0l-2.605,0l0,2.625l2.605,0l0,-2.625Zm2.606,0l-2.606,0l0,2.625l2.606,0l0,-2.625Zm7.812,0l-2.605,0l0,2.625l2.605,0l0,-2.625Zm7.816,0l-2.605,0l0,2.625l2.605,0l0,-2.625Zm2.606,0l-2.606,0l0,2.625l2.606,0l0,-2.625Zm-130.25,2.625l-2.606,0l0,2.625l2.606,0l0,-2.625Zm15.629,0l-2.606,0l0,2.625l2.606,0l0,-2.625Zm5.211,0l-2.606,0l0,2.625l2.606,0l0,-2.625Zm7.812,0l-2.601,0l0,2.625l2.601,0l0,-2.625Zm5.211,0l-2.605,0l0,2.625l2.605,0l0,-2.625Zm2.606,0l-2.606,0l0,2.625l2.606,0l0,-2.625Zm10.422,0l-2.606,0l0,2.625l2.606,0l0,-2.625Zm2.601,0l-2.601,0l0,2.625l2.601,0l0,-2.625Zm5.211,0l-2.605,0l0,2.625l2.605,0l0,-2.625Zm7.816,0l-2.605,0l0,2.625l2.605,0l0,-2.625Zm2.606,0l-2.606,0l0,2.625l2.606,0l0,-2.625Zm7.812,0l-2.601,0l0,2.625l2.601,0l0,-2.625Zm5.211,0l-2.605,0l0,2.625l2.605,0l0,-2.625Zm2.606,0l-2.606,0l0,2.625l2.606,0l0,-2.625Zm2.605,0l-2.605,0l0,2.625l2.605,0l0,-2.625Zm2.606,0l-2.606,0l0,2.625l2.606,0l0,-2.625Zm2.605,0l-2.605,0l0,2.625l2.605,0l0,-2.625Zm2.606,0l-2.606,0l0,2.625l2.606,0l0,-2.625Zm2.601,0l-2.601,0l0,2.625l2.601,0l0,-2.625Zm7.817,0l-2.606,0l0,2.625l2.606,0l0,-2.625Zm7.816,0l-2.605,0l0,2.625l2.605,0l0,-2.625Zm2.606,0l-2.606,0l0,2.625l2.606,0l0,-2.625Zm5.207,0l-2.602,0l0,2.625l2.602,0l0,-2.625Zm2.605,0l-2.605,0l0,2.625l2.605,0l0,-2.625Zm2.605,0l-2.605,0l0,2.625l2.605,0l0,-2.625Zm2.606,0l-2.606,0l0,2.625l2.606,0l0,-2.625Zm2.605,0l-2.605,0l0,2.625l2.605,0l0,-2.625Zm-132.855,2.625l-2.606,0l0,2.622l2.606,0l0,-2.622Zm2.605,0l-2.605,0l0,2.622l2.605,0l0,-2.622Zm2.606,0l-2.606,0l0,2.622l2.606,0l0,-2.622Zm10.418,0l-2.606,0l0,2.622l2.606,0l0,-2.622Zm5.211,0l-2.606,0l0,2.622l2.606,0l0,-2.622Zm2.605,0l-2.605,0l0,2.622l2.605,0l0,-2.622Zm2.606,0l-2.606,0l0,2.622l2.606,0l0,-2.622Zm5.211,0l-2.606,0l0,2.622l2.606,0l0,-2.622Zm5.207,0l-2.606,0l0,2.622l2.606,0l0,-2.622Zm7.816,0l-2.605,0l0,2.622l2.605,0l0,-2.622Zm7.817,0l-2.606,0l0,2.622l2.606,0l0,-2.622Zm2.601,0l-2.601,0l0,2.622l2.601,0l0,-2.622Zm5.211,0l-2.605,0l0,2.622l2.605,0l0,-2.622Zm10.422,0l-2.606,0l0,2.622l2.606,0l0,-2.622Zm7.812,0l-2.601,0l0,2.622l2.601,0l0,-2.622Zm10.422,0l-2.605,0l0,2.622l2.605,0l0,-2.622Zm2.606,0l-2.606,0l0,2.622l2.606,0l0,-2.622Zm2.605,0l-2.605,0l0,2.622l2.605,0l0,-2.622Zm5.207,0l-2.601,0l0,2.622l2.601,0l0,-2.622Zm5.211,0l-2.605,0l0,2.622l2.605,0l0,-2.622Zm7.817,0l-2.606,0l0,2.622l2.606,0l0,-2.622Zm5.211,0l-2.606,0l0,2.622l2.606,0l0,-2.622Zm2.605,0l-2.605,0l0,2.622l2.605,0l0,-2.622Zm2.602,0l-2.602,0l0,2.622l2.602,0l0,-2.622Zm2.605,0l-2.605,0l0,2.622l2.605,0l0,-2.622Zm10.422,0l-2.606,0l0,2.622l2.606,0l0,-2.622Zm-135.461,2.622l-2.606,0l0,2.625l2.606,0l0,-2.625Zm2.605,0l-2.605,0l0,2.625l2.605,0l0,-2.625Zm5.211,0l-2.605,0l0,2.625l2.605,0l0,-2.625Zm13.024,0l-2.606,0l0,2.625l2.606,0l0,-2.625Zm2.605,0l-2.605,0l0,2.625l2.605,0l0,-2.625Zm2.606,0l-2.606,0l0,2.625l2.606,0l0,-2.625Zm7.812,0l-2.601,0l0,2.625l2.601,0l0,-2.625Zm2.606,0l-2.606,0l0,2.625l2.606,0l0,-2.625Zm2.605,0l-2.605,0l0,2.625l2.605,0l0,-2.625Zm2.606,0l-2.606,0l0,2.625l2.606,0l0,-2.625Zm13.023,0l-2.601,0l0,2.625l2.601,0l0,-2.625Zm5.211,0l-2.605,0l0,2.625l2.605,0l0,-2.625Zm5.211,0l-2.606,0l0,2.625l2.606,0l0,-2.625Zm2.605,0l-2.605,0l0,2.625l2.605,0l0,-2.625Zm2.606,0l-2.606,0l0,2.625l2.606,0l0,-2.625Zm5.211,0l-2.606,0l0,2.625l2.606,0l0,-2.625Zm2.601,0l-2.601,0l0,2.625l2.601,0l0,-2.625Zm7.817,0l-2.606,0l0,2.625l2.606,0l0,-2.625Zm10.422,0l-2.606,0l0,2.625l2.606,0l0,-2.625Zm2.601,0l-2.601,0l0,2.625l2.601,0l0,-2.625Zm13.028,0l-2.606,0l0,2.625l2.606,0l0,-2.625Zm5.211,0l-2.606,0l0,2.625l2.606,0l0,-2.625Zm2.605,0l-2.605,0l0,2.625l2.605,0l0,-2.625Zm2.602,0l-2.602,0l0,2.625l2.602,0l0,-2.625Zm7.816,0l-2.606,0l0,2.625l2.606,0l0,-2.625Zm-125.039,2.625l-2.606,0l0,2.625l2.606,0l0,-2.625Zm7.812,0l-2.605,0l0,2.625l2.605,0l0,-2.625Zm2.606,0l-2.606,0l0,2.625l2.606,0l0,-2.625Zm2.605,0l-2.605,0l0,2.625l2.605,0l0,-2.625Zm2.606,0l-2.606,0l0,2.625l2.606,0l0,-2.625Zm5.211,0l-2.606,0l0,2.625l2.606,0l0,-2.625Zm7.812,0l-2.601,0l0,2.625l2.601,0l0,-2.625Zm5.211,0l-2.605,0l0,2.625l2.605,0l0,-2.625Zm2.606,0l-2.606,0l0,2.625l2.606,0l0,-2.625Zm2.605,0l-2.605,0l0,2.625l2.605,0l0,-2.625Zm2.606,0l-2.606,0l0,2.625l2.606,0l0,-2.625Zm5.211,0l-2.606,0l0,2.625l2.606,0l0,-2.625Zm5.207,0l-2.606,0l0,2.625l2.606,0l0,-2.625Zm2.605,0l-2.605,0l0,2.625l2.605,0l0,-2.625Zm10.422,0l-2.606,0l0,2.625l2.606,0l0,-2.625Zm2.605,0l-2.605,0l0,2.625l2.605,0l0,-2.625Zm5.207,0l-2.601,0l0,2.625l2.601,0l0,-2.625Zm13.028,0l-2.606,0l0,2.625l2.606,0l0,-2.625Zm2.605,0l-2.605,0l0,2.625l2.605,0l0,-2.625Zm5.207,0l-2.601,0l0,2.625l2.601,0l0,-2.625Zm2.606,0l-2.606,0l0,2.625l2.606,0l0,-2.625Zm2.605,0l-2.605,0l0,2.625l2.605,0l0,-2.625Zm2.606,0l-2.606,0l0,2.625l2.606,0l0,-2.625Zm2.605,0l-2.605,0l0,2.625l2.605,0l0,-2.625Zm2.606,0l-2.606,0l0,2.625l2.606,0l0,-2.625Zm5.211,0l-2.606,0l0,2.625l2.606,0l0,-2.625Zm5.207,0l-2.602,0l0,2.625l2.602,0l0,-2.625Zm5.21,0l-2.605,0l0,2.625l2.605,0l0,-2.625Zm-127.644,2.625l-2.606,0l0,2.625l2.606,0l0,-2.625Zm23.445,0l-2.605,0l0,2.625l2.605,0l0,-2.625Zm2.606,0l-2.606,0l0,2.625l2.606,0l0,-2.625Zm2.605,0l-2.605,0l0,2.625l2.605,0l0,-2.625Zm2.606,0l-2.606,0l0,2.625l2.606,0l0,-2.625Zm7.812,0l-2.605,0l0,2.625l2.605,0l0,-2.625Zm2.606,0l-2.606,0l0,2.625l2.606,0l0,-2.625Zm7.816,0l-2.605,0l0,2.625l2.605,0l0,-2.625Zm2.606,0l-2.606,0l0,2.625l2.606,0l0,-2.625Zm5.207,0l-2.606,0l0,2.625l2.606,0l0,-2.625Zm15.632,0l-2.605,0l0,2.625l2.605,0l0,-2.625Zm5.207,0l-2.601,0l0,2.625l2.601,0l0,-2.625Zm5.211,0l-2.605,0l0,2.625l2.605,0l0,-2.625Zm7.817,0l-2.606,0l0,2.625l2.606,0l0,-2.625Zm5.211,0l-2.606,0l0,2.625l2.606,0l0,-2.625Zm2.601,0l-2.601,0l0,2.625l2.601,0l0,-2.625Zm2.606,0l-2.606,0l0,2.625l2.606,0l0,-2.625Zm5.211,0l-2.606,0l0,2.625l2.606,0l0,-2.625Zm5.211,0l-2.606,0l0,2.625l2.606,0l0,-2.625Zm7.816,0l-2.605,0l0,2.625l2.605,0l0,-2.625Zm2.602,0l-2.602,0l0,2.625l2.602,0l0,-2.625Zm2.605,0l-2.605,0l0,2.625l2.605,0l0,-2.625Zm2.605,0l-2.605,0l0,2.625l2.605,0l0,-2.625Zm2.606,0l-2.606,0l0,2.625l2.606,0l0,-2.625Zm2.605,0l-2.605,0l0,2.625l2.605,0l0,-2.625Zm2.606,0l-2.606,0l0,2.625l2.606,0l0,-2.625Zm-132.856,2.625l-2.605,0l0,2.625l2.605,0l0,-2.625Zm2.606,0l-2.606,0l0,2.625l2.606,0l0,-2.625Zm2.605,0l-2.605,0l0,2.625l2.605,0l0,-2.625Zm2.602,0l-2.602,0l0,2.625l2.602,0l0,-2.625Zm5.211,0l-2.606,0l0,2.625l2.606,0l0,-2.625Zm7.816,0l-2.605,0l0,2.625l2.605,0l0,-2.625Zm2.606,0l-2.606,0l0,2.625l2.606,0l0,-2.625Zm2.605,0l-2.605,0l0,2.625l2.605,0l0,-2.625Zm2.606,0l-2.606,0l0,2.625l2.606,0l0,-2.625Zm10.418,0l-2.606,0l0,2.625l2.606,0l0,-2.625Zm5.211,0l-2.606,0l0,2.625l2.606,0l0,-2.625Zm5.211,0l-2.606,0l0,2.625l2.606,0l0,-2.625Zm7.812,0l-2.605,0l0,2.625l2.605,0l0,-2.625Zm2.605,0l-2.605,0l0,2.625l2.605,0l0,-2.625Zm2.606,0l-2.606,0l0,2.625l2.606,0l0,-2.625Zm2.605,0l-2.605,0l0,2.625l2.605,0l0,-2.625Zm2.606,0l-2.606,0l0,2.625l2.606,0l0,-2.625Zm2.605,0l-2.605,0l0,2.625l2.605,0l0,-2.625Zm2.606,0l-2.606,0l0,2.625l2.606,0l0,-2.625Zm7.812,0l-2.605,0l0,2.625l2.605,0l0,-2.625Zm5.211,0l-2.605,0l0,2.625l2.605,0l0,-2.625Zm5.211,0l-2.605,0l0,2.625l2.605,0l0,-2.625Zm10.418,0l-2.605,0l0,2.625l2.605,0l0,-2.625Zm10.422,0l-2.605,0l0,2.625l2.605,0l0,-2.625Zm5.211,0l-2.605,0l0,2.625l2.605,0l0,-2.625Zm2.602,0l-2.602,0l0,2.625l2.602,0l0,-2.625Zm5.21,0l-2.605,0l0,2.625l2.605,0l0,-2.625Zm2.606,0l-2.606,0l0,2.625l2.606,0l0,-2.625Zm2.605,0l-2.605,0l0,2.625l2.605,0l0,-2.625Zm2.606,0l-2.606,0l0,2.625l2.606,0l0,-2.625Zm-130.25,2.625l-2.606,0l0,2.625l2.606,0l0,-2.625Zm2.605,0l-2.605,0l0,2.625l2.605,0l0,-2.625Zm10.418,0l-2.605,0l0,2.625l2.605,0l0,-2.625Zm26.051,0l-2.605,0l0,2.625l2.605,0l0,-2.625Zm5.211,0l-2.605,0l0,2.625l2.605,0l0,-2.625Zm5.207,0l-2.601,0l0,2.625l2.601,0l0,-2.625Zm2.606,0l-2.606,0l0,2.625l2.606,0l0,-2.625Zm18.238,0l-2.606,0l0,2.625l2.606,0l0,-2.625Zm5.207,0l-2.606,0l0,2.625l2.606,0l0,-2.625Zm2.605,0l-2.605,0l0,2.625l2.605,0l0,-2.625Zm2.606,0l-2.606,0l0,2.625l2.606,0l0,-2.625Zm5.211,0l-2.606,0l0,2.625l2.606,0l0,-2.625Zm7.812,0l-2.601,0l0,2.625l2.601,0l0,-2.625Zm2.606,0l-2.606,0l0,2.625l2.606,0l0,-2.625Zm2.605,0l-2.605,0l0,2.625l2.605,0l0,-2.625Zm5.211,0l-2.605,0l0,2.625l2.605,0l0,-2.625Zm2.606,0l-2.606,0l0,2.625l2.606,0l0,-2.625Zm5.211,0l-2.606,0l0,2.625l2.606,0l0,-2.625Zm2.605,0l-2.605,0l0,2.625l2.605,0l0,-2.625Zm2.602,0l-2.602,0l0,2.625l2.602,0l0,-2.625Zm2.605,0l-2.605,0l0,2.625l2.605,0l0,-2.625Zm2.605,0l-2.605,0l0,2.625l2.605,0l0,-2.625Zm-127.644,2.625l-2.606,0l0,2.625l2.606,0l0,-2.625Zm2.605,0l-2.605,0l0,2.625l2.605,0l0,-2.625Zm7.813,0l-2.602,0l0,2.625l2.602,0l0,-2.625Zm5.211,0l-2.606,0l0,2.625l2.606,0l0,-2.625Zm7.816,0l-2.605,0l0,2.625l2.605,0l0,-2.625Zm2.606,0l-2.606,0l0,2.625l2.606,0l0,-2.625Zm2.605,0l-2.605,0l0,2.625l2.605,0l0,-2.625Zm7.813,0l-2.606,0l0,2.625l2.606,0l0,-2.625Zm10.422,0l-2.606,0l0,2.625l2.606,0l0,-2.625Zm10.418,0l-2.606,0l0,2.625l2.606,0l0,-2.625Zm2.605,0l-2.605,0l0,2.625l2.605,0l0,-2.625Zm5.211,0l-2.606,0l0,2.625l2.606,0l0,-2.625Zm2.605,0l-2.605,0l0,2.625l2.605,0l0,-2.625Zm5.211,0l-2.605,0l0,2.625l2.605,0l0,-2.625Zm2.606,0l-2.606,0l0,2.625l2.606,0l0,-2.625Zm13.023,0l-2.605,0l0,2.625l2.605,0l0,-2.625Zm7.817,0l-2.606,0l0,2.625l2.606,0l0,-2.625Zm5.207,0l-2.606,0l0,2.625l2.606,0l0,-2.625Zm2.605,0l-2.605,0l0,2.625l2.605,0l0,-2.625Zm5.211,0l-2.605,0l0,2.625l2.605,0l0,-2.625Zm2.606,0l-2.606,0l0,2.625l2.606,0l0,-2.625Zm10.418,0l-2.602,0l0,2.625l2.602,0l0,-2.625Zm2.605,0l-2.605,0l0,2.625l2.605,0l0,-2.625Zm2.605,0l-2.605,0l0,2.625l2.605,0l0,-2.625Zm2.606,0l-2.606,0l0,2.625l2.606,0l0,-2.625Zm2.605,0l-2.605,0l0,2.625l2.605,0l0,-2.625Zm2.606,0l-2.606,0l0,2.625l2.606,0l0,-2.625Zm-125.043,2.625l-2.602,0l0,2.621l2.602,0l0,-2.621Zm7.816,0l-2.605,0l0,2.621l2.605,0l0,-2.621Zm2.606,0l-2.606,0l0,2.621l2.606,0l0,-2.621Zm2.605,0l-2.605,0l0,2.621l2.605,0l0,-2.621Zm2.606,0l-2.606,0l0,2.621l2.606,0l0,-2.621Zm10.418,0l-2.606,0l0,2.621l2.606,0l0,-2.621Zm5.211,0l-2.606,0l0,2.621l2.606,0l0,-2.621Zm2.605,0l-2.605,0l0,2.621l2.605,0l0,-2.621Zm2.606,0l-2.606,0l0,2.621l2.606,0l0,-2.621Zm2.605,0l-2.605,0l0,2.621l2.605,0l0,-2.621Zm13.023,0l-2.605,0l0,2.621l2.605,0l0,-2.621Zm7.817,0l-2.606,0l0,2.621l2.606,0l0,-2.621Zm5.211,0l-2.606,0l0,2.621l2.606,0l0,-2.621Zm5.207,0l-2.606,0l0,2.621l2.606,0l0,-2.621Zm2.605,0l-2.605,0l0,2.621l2.605,0l0,-2.621Zm7.817,0l-2.606,0l0,2.621l2.606,0l0,-2.621Zm2.605,0l-2.605,0l0,2.621l2.605,0l0,-2.621Zm2.606,0l-2.606,0l0,2.621l2.606,0l0,-2.621Zm2.601,0l-2.601,0l0,2.621l2.601,0l0,-2.621Zm2.606,0l-2.606,0l0,2.621l2.606,0l0,-2.621Zm2.605,0l-2.605,0l0,2.621l2.605,0l0,-2.621Zm2.606,0l-2.606,0l0,2.621l2.606,0l0,-2.621Zm13.027,0l-2.605,0l0,2.621l2.605,0l0,-2.621Zm2.602,0l-2.602,0l0,2.621l2.602,0l0,-2.621Zm2.605,0l-2.605,0l0,2.621l2.605,0l0,-2.621Zm2.605,0l-2.605,0l0,2.621l2.605,0l0,-2.621Zm2.606,0l-2.606,0l0,2.621l2.606,0l0,-2.621Zm2.605,0l-2.605,0l0,2.621l2.605,0l0,-2.621Zm2.606,0l-2.606,0l0,2.621l2.606,0l0,-2.621Zm-132.856,2.621l-2.605,0l0,2.625l2.605,0l0,-2.625Zm10.418,0l-2.605,0l0,2.625l2.605,0l0,-2.625Zm2.606,0l-2.606,0l0,2.625l2.606,0l0,-2.625Zm2.605,0l-2.605,0l0,2.625l2.605,0l0,-2.625Zm10.422,0l-2.605,0l0,2.625l2.605,0l0,-2.625Zm2.606,0l-2.606,0l0,2.625l2.606,0l0,-2.625Zm5.207,0l-2.606,0l0,2.625l2.606,0l0,-2.625Zm13.027,0l-2.605,0l0,2.625l2.605,0l0,-2.625Zm2.606,0l-2.606,0l0,2.625l2.606,0l0,-2.625Zm2.601,0l-2.601,0l0,2.625l2.601,0l0,-2.625Zm7.816,0l-2.605,0l0,2.625l2.605,0l0,-2.625Zm2.606,0l-2.606,0l0,2.625l2.606,0l0,-2.625Zm5.211,0l-2.606,0l0,2.625l2.606,0l0,-2.625Zm2.605,0l-2.605,0l0,2.625l2.605,0l0,-2.625Zm2.606,0l-2.606,0l0,2.625l2.606,0l0,-2.625Zm5.207,0l-2.606,0l0,2.625l2.606,0l0,-2.625Zm2.605,0l-2.605,0l0,2.625l2.605,0l0,-2.625Zm7.817,0l-2.606,0l0,2.625l2.606,0l0,-2.625Zm2.605,0l-2.605,0l0,2.625l2.605,0l0,-2.625Zm2.606,0l-2.606,0l0,2.625l2.606,0l0,-2.625Zm5.207,0l-2.606,0l0,2.625l2.606,0l0,-2.625Zm5.211,0l-2.606,0l0,2.625l2.606,0l0,-2.625Zm5.211,0l-2.606,0l0,2.625l2.606,0l0,-2.625Zm2.605,0l-2.605,0l0,2.625l2.605,0l0,-2.625Zm2.606,0l-2.606,0l0,2.625l2.606,0l0,-2.625Zm2.605,0l-2.605,0l0,2.625l2.605,0l0,-2.625Zm13.023,0l-2.605,0l0,2.625l2.605,0l0,-2.625Zm2.606,0l-2.606,0l0,2.625l2.606,0l0,-2.625Zm-132.856,2.625l-2.605,0l0,2.625l2.605,0l0,-2.625Zm5.211,0l-2.605,0l0,2.625l2.605,0l0,-2.625Zm5.207,0l-2.605,0l0,2.625l2.605,0l0,-2.625Zm7.817,0l-2.606,0l0,2.625l2.606,0l0,-2.625Zm7.816,0l-2.605,0l0,2.625l2.605,0l0,-2.625Zm5.207,0l-2.601,0l0,2.625l2.601,0l0,-2.625Zm2.606,0l-2.606,0l0,2.625l2.606,0l0,-2.625Zm5.211,0l-2.606,0l0,2.625l2.606,0l0,-2.625Zm7.816,0l-2.605,0l0,2.625l2.605,0l0,-2.625Zm5.207,0l-2.601,0l0,2.625l2.601,0l0,-2.625Zm2.606,0l-2.606,0l0,2.625l2.606,0l0,-2.625Zm2.605,0l-2.605,0l0,2.625l2.605,0l0,-2.625Zm2.605,0l-2.605,0l0,2.625l2.605,0l0,-2.625Zm5.211,0l-2.605,0l0,2.625l2.605,0l0,-2.625Zm5.211,0l-2.605,0l0,2.625l2.605,0l0,-2.625Zm5.207,0l-2.601,0l0,2.625l2.601,0l0,-2.625Zm2.606,0l-2.606,0l0,2.625l2.606,0l0,-2.625Zm2.605,0l-2.605,0l0,2.625l2.605,0l0,-2.625Zm5.211,0l-2.605,0l0,2.625l2.605,0l0,-2.625Zm5.211,0l-2.605,0l0,2.625l2.605,0l0,-2.625Zm5.207,0l-2.601,0l0,2.625l2.601,0l0,-2.625Zm5.211,0l-2.605,0l0,2.625l2.605,0l0,-2.625Zm5.211,0l-2.605,0l0,2.625l2.605,0l0,-2.625Zm5.211,0l-2.605,0l0,2.625l2.605,0l0,-2.625Zm7.813,0l-2.602,0l0,2.625l2.602,0l0,-2.625Zm5.21,0l-2.605,0l0,2.625l2.605,0l0,-2.625Zm5.211,0l-2.605,0l0,2.625l2.605,0l0,-2.625Zm2.606,0l-2.606,0l0,2.625l2.606,0l0,-2.625Zm-132.856,2.625l-2.605,0l0,2.625l2.605,0l0,-2.625Zm7.813,0l-2.602,0l0,2.625l2.602,0l0,-2.625Zm5.211,0l-2.606,0l0,2.625l2.606,0l0,-2.625Zm7.816,0l-2.605,0l0,2.625l2.605,0l0,-2.625Zm2.606,0l-2.606,0l0,2.625l2.606,0l0,-2.625Zm2.605,0l-2.605,0l0,2.625l2.605,0l0,-2.625Zm5.207,0l-2.601,0l0,2.625l2.601,0l0,-2.625Zm2.606,0l-2.606,0l0,2.625l2.606,0l0,-2.625Zm7.816,0l-2.605,0l0,2.625l2.605,0l0,-2.625Zm2.606,0l-2.606,0l0,2.625l2.606,0l0,-2.625Zm2.605,0l-2.605,0l0,2.625l2.605,0l0,-2.625Zm2.606,0l-2.606,0l0,2.625l2.606,0l0,-2.625Zm13.023,0l-2.606,0l0,2.625l2.606,0l0,-2.625Zm10.422,0l-2.606,0l0,2.625l2.606,0l0,-2.625Zm2.601,0l-2.601,0l0,2.625l2.601,0l0,-2.625Zm7.817,0l-2.606,0l0,2.625l2.606,0l0,-2.625Zm2.605,0l-2.605,0l0,2.625l2.605,0l0,-2.625Zm7.817,0l-2.606,0l0,2.625l2.606,0l0,-2.625Zm20.84,0l-2.606,0l0,2.625l2.606,0l0,-2.625Zm2.605,0l-2.605,0l0,2.625l2.605,0l0,-2.625Zm2.602,0l-2.602,0l0,2.625l2.602,0l0,-2.625Zm2.605,0l-2.605,0l0,2.625l2.605,0l0,-2.625Zm10.422,0l-2.606,0l0,2.625l2.606,0l0,-2.625Zm-132.856,2.625l-2.605,0l0,2.625l2.605,0l0,-2.625Zm5.211,0l-2.605,0l0,2.625l2.605,0l0,-2.625Zm10.418,0l-2.605,0l0,2.625l2.605,0l0,-2.625Zm2.606,0l-2.606,0l0,2.625l2.606,0l0,-2.625Zm2.605,0l-2.605,0l0,2.625l2.605,0l0,-2.625Zm5.211,0l-2.605,0l0,2.625l2.605,0l0,-2.625Zm2.606,0l-2.606,0l0,2.625l2.606,0l0,-2.625Zm2.601,0l-2.601,0l0,2.625l2.601,0l0,-2.625Zm2.606,0l-2.606,0l0,2.625l2.606,0l0,-2.625Zm10.422,0l-2.606,0l0,2.625l2.606,0l0,-2.625Zm13.023,0l-2.605,0l0,2.625l2.605,0l0,-2.625Zm5.211,0l-2.606,0l0,2.625l2.606,0l0,-2.625Zm2.605,0l-2.605,0l0,2.625l2.605,0l0,-2.625Zm2.606,0l-2.606,0l0,2.625l2.606,0l0,-2.625Zm2.605,0l-2.605,0l0,2.625l2.605,0l0,-2.625Zm2.606,0l-2.606,0l0,2.625l2.606,0l0,-2.625Zm5.207,0l-2.606,0l0,2.625l2.606,0l0,-2.625Zm5.211,0l-2.606,0l0,2.625l2.606,0l0,-2.625Zm10.422,0l-2.606,0l0,2.625l2.606,0l0,-2.625Zm10.418,0l-2.606,0l0,2.625l2.606,0l0,-2.625Zm10.422,0l-2.606,0l0,2.625l2.606,0l0,-2.625Zm10.417,0l-2.605,0l0,2.625l2.605,0l0,-2.625Zm5.211,0l-2.605,0l0,2.625l2.605,0l0,-2.625Zm-132.855,2.625l-2.606,0l0,2.625l2.606,0l0,-2.625Zm2.605,0l-2.605,0l0,2.625l2.605,0l0,-2.625Zm2.606,0l-2.606,0l0,2.625l2.606,0l0,-2.625Zm5.207,0l-2.602,0l0,2.625l2.602,0l0,-2.625Zm2.605,0l-2.605,0l0,2.625l2.605,0l0,-2.625Zm2.606,0l-2.606,0l0,2.625l2.606,0l0,-2.625Zm2.605,0l-2.605,0l0,2.625l2.605,0l0,-2.625Zm2.606,0l-2.606,0l0,2.625l2.606,0l0,-2.625Zm2.605,0l-2.605,0l0,2.625l2.605,0l0,-2.625Zm5.211,0l-2.605,0l0,2.625l2.605,0l0,-2.625Zm2.606,0l-2.606,0l0,2.625l2.606,0l0,-2.625Zm2.601,0l-2.601,0l0,2.625l2.601,0l0,-2.625Zm5.211,0l-2.605,0l0,2.625l2.605,0l0,-2.625Zm2.606,0l-2.606,0l0,2.625l2.606,0l0,-2.625Zm2.605,0l-2.605,0l0,2.625l2.605,0l0,-2.625Zm5.211,0l-2.605,0l0,2.625l2.605,0l0,-2.625Zm2.606,0l-2.606,0l0,2.625l2.606,0l0,-2.625Zm2.601,0l-2.601,0l0,2.625l2.601,0l0,-2.625Zm2.606,0l-2.606,0l0,2.625l2.606,0l0,-2.625Zm5.21,0l-2.605,0l0,2.625l2.605,0l0,-2.625Zm2.606,0l-2.606,0l0,2.625l2.606,0l0,-2.625Zm2.605,0l-2.605,0l0,2.625l2.605,0l0,-2.625Zm2.606,0l-2.606,0l0,2.625l2.606,0l0,-2.625Zm2.605,0l-2.605,0l0,2.625l2.605,0l0,-2.625Zm2.606,0l-2.606,0l0,2.625l2.606,0l0,-2.625Zm2.601,0l-2.601,0l0,2.625l2.601,0l0,-2.625Zm5.211,0l-2.605,0l0,2.625l2.605,0l0,-2.625Zm5.211,0l-2.605,0l0,2.625l2.605,0l0,-2.625Zm2.606,0l-2.606,0l0,2.625l2.606,0l0,-2.625Zm5.211,0l-2.606,0l0,2.625l2.606,0l0,-2.625Zm2.601,0l-2.601,0l0,2.625l2.601,0l0,-2.625Zm7.817,0l-2.606,0l0,2.625l2.606,0l0,-2.625Zm5.211,0l-2.606,0l0,2.625l2.606,0l0,-2.625Zm2.605,0l-2.605,0l0,2.625l2.605,0l0,-2.625Zm2.606,0l-2.606,0l0,2.625l2.606,0l0,-2.625Zm2.605,0l-2.605,0l0,2.625l2.605,0l0,-2.625Zm2.602,0l-2.602,0l0,2.625l2.602,0l0,-2.625Zm2.605,0l-2.605,0l0,2.625l2.605,0l0,-2.625Zm2.605,0l-2.605,0l0,2.625l2.605,0l0,-2.625Zm2.606,0l-2.606,0l0,2.625l2.606,0l0,-2.625Zm5.211,0l-2.606,0l0,2.625l2.606,0l0,-2.625Zm-132.856,2.625l-2.605,0l0,2.625l2.605,0l0,-2.625Zm5.211,0l-2.605,0l0,2.625l2.605,0l0,-2.625Zm2.602,0l-2.602,0l0,2.625l2.602,0l0,-2.625Zm10.422,0l-2.606,0l0,2.625l2.606,0l0,-2.625Zm10.422,0l-2.606,0l0,2.625l2.606,0l0,-2.625Zm10.418,0l-2.606,0l0,2.625l2.606,0l0,-2.625Zm2.605,0l-2.605,0l0,2.625l2.605,0l0,-2.625Zm2.606,0l-2.606,0l0,2.625l2.606,0l0,-2.625Zm15.628,0l-2.605,0l0,2.625l2.605,0l0,-2.625Zm10.422,0l-2.605,0l0,2.625l2.605,0l0,-2.625Zm2.606,0l-2.606,0l0,2.625l2.606,0l0,-2.625Zm2.601,0l-2.601,0l0,2.625l2.601,0l0,-2.625Zm5.211,0l-2.605,0l0,2.625l2.605,0l0,-2.625Zm13.028,0l-2.606,0l0,2.625l2.606,0l0,-2.625Zm2.601,0l-2.601,0l0,2.625l2.601,0l0,-2.625Zm2.606,0l-2.606,0l0,2.625l2.606,0l0,-2.625Zm5.211,0l-2.606,0l0,2.625l2.606,0l0,-2.625Zm7.816,0l-2.605,0l0,2.625l2.605,0l0,-2.625Zm10.418,0l-2.605,0l0,2.625l2.605,0l0,-2.625Zm2.605,0l-2.605,0l0,2.625l2.605,0l0,-2.625Zm2.606,0l-2.606,0l0,2.625l2.606,0l0,-2.625Zm2.605,0l-2.605,0l0,2.625l2.605,0l0,-2.625Zm-122.437,2.625l-2.602,0l0,2.621l2.602,0l0,-2.621Zm5.211,0l-2.606,0l0,2.621l2.606,0l0,-2.621Zm5.211,0l-2.606,0l0,2.621l2.606,0l0,-2.621Zm5.211,0l-2.606,0l0,2.621l2.606,0l0,-2.621Zm5.211,0l-2.606,0l0,2.621l2.606,0l0,-2.621Zm10.418,0l-2.606,0l0,2.621l2.606,0l0,-2.621Zm2.605,0l-2.605,0l0,2.621l2.605,0l0,-2.621Zm7.817,0l-2.606,0l0,2.621l2.606,0l0,-2.621Zm2.601,0l-2.601,0l0,2.621l2.601,0l0,-2.621Zm7.816,0l-2.605,0l0,2.621l2.605,0l0,-2.621Zm5.211,0l-2.605,0l0,2.621l2.605,0l0,-2.621Zm5.211,0l-2.605,0l0,2.621l2.605,0l0,-2.621Zm2.606,0l-2.606,0l0,2.621l2.606,0l0,-2.621Zm2.601,0l-2.601,0l0,2.621l2.601,0l0,-2.621Zm2.606,0l-2.606,0l0,2.621l2.606,0l0,-2.621Zm2.605,0l-2.605,0l0,2.621l2.605,0l0,-2.621Zm13.028,0l-2.606,0l0,2.621l2.606,0l0,-2.621Zm10.418,0l-2.606,0l0,2.621l2.606,0l0,-2.621Zm7.816,0l-2.605,0l0,2.621l2.605,0l0,-2.621Zm5.211,0l-2.605,0l0,2.621l2.605,0l0,-2.621Zm5.207,0l-2.605,0l0,2.621l2.605,0l0,-2.621Zm10.422,0l-2.606,0l0,2.621l2.606,0l0,-2.621Zm-132.856,2.621l-2.605,0l0,2.625l2.605,0l0,-2.625Zm2.606,0l-2.606,0l0,2.625l2.606,0l0,-2.625Zm2.605,0l-2.605,0l0,2.625l2.605,0l0,-2.625Zm2.602,0l-2.602,0l0,2.625l2.602,0l0,-2.625Zm10.422,0l-2.606,0l0,2.625l2.606,0l0,-2.625Zm2.605,0l-2.605,0l0,2.625l2.605,0l0,-2.625Zm13.024,0l-2.606,0l0,2.625l2.606,0l0,-2.625Zm2.605,0l-2.605,0l0,2.625l2.605,0l0,-2.625Zm5.211,0l-2.605,0l0,2.625l2.605,0l0,-2.625Zm5.211,0l-2.605,0l0,2.625l2.605,0l0,-2.625Zm5.207,0l-2.601,0l0,2.625l2.601,0l0,-2.625Zm5.211,0l-2.605,0l0,2.625l2.605,0l0,-2.625Zm2.605,0l-2.605,0l0,2.625l2.605,0l0,-2.625Zm10.422,0l-2.605,0l0,2.625l2.605,0l0,-2.625Zm7.813,0l-2.606,0l0,2.625l2.606,0l0,-2.625Zm2.605,0l-2.605,0l0,2.625l2.605,0l0,-2.625Zm2.606,0l-2.606,0l0,2.625l2.606,0l0,-2.625Zm2.605,0l-2.605,0l0,2.625l2.605,0l0,-2.625Zm5.211,0l-2.605,0l0,2.625l2.605,0l0,-2.625Zm7.813,0l-2.606,0l0,2.625l2.606,0l0,-2.625Zm2.605,0l-2.605,0l0,2.625l2.605,0l0,-2.625Zm2.606,0l-2.606,0l0,2.625l2.606,0l0,-2.625Zm7.816,0l-2.605,0l0,2.625l2.605,0l0,-2.625Zm10.418,0l-2.605,0l0,2.625l2.605,0l0,-2.625Zm10.422,0l-2.606,0l0,2.625l2.606,0l0,-2.625Zm-135.461,2.625l-2.606,0l0,2.625l2.606,0l0,-2.625Zm10.418,0l-2.602,0l0,2.625l2.602,0l0,-2.625Zm2.605,0l-2.605,0l0,2.625l2.605,0l0,-2.625Zm2.606,0l-2.606,0l0,2.625l2.606,0l0,-2.625Zm2.605,0l-2.605,0l0,2.625l2.605,0l0,-2.625Zm2.606,0l-2.606,0l0,2.625l2.606,0l0,-2.625Zm2.605,0l-2.605,0l0,2.625l2.605,0l0,-2.625Zm5.211,0l-2.605,0l0,2.625l2.605,0l0,-2.625Zm2.606,0l-2.606,0l0,2.625l2.606,0l0,-2.625Zm2.601,0l-2.601,0l0,2.625l2.601,0l0,-2.625Zm10.422,0l-2.605,0l0,2.625l2.605,0l0,-2.625Zm5.211,0l-2.605,0l0,2.625l2.605,0l0,-2.625Zm7.813,0l-2.606,0l0,2.625l2.606,0l0,-2.625Zm2.605,0l-2.605,0l0,2.625l2.605,0l0,-2.625Zm2.605,0l-2.605,0l0,2.625l2.605,0l0,-2.625Zm2.606,0l-2.606,0l0,2.625l2.606,0l0,-2.625Zm2.605,0l-2.605,0l0,2.625l2.605,0l0,-2.625Zm2.606,0l-2.606,0l0,2.625l2.606,0l0,-2.625Zm2.605,0l-2.605,0l0,2.625l2.605,0l0,-2.625Zm2.606,0l-2.606,0l0,2.625l2.606,0l0,-2.625Zm2.601,0l-2.601,0l0,2.625l2.601,0l0,-2.625Zm10.422,0l-2.605,0l0,2.625l2.605,0l0,-2.625Zm5.211,0l-2.605,0l0,2.625l2.605,0l0,-2.625Zm2.606,0l-2.606,0l0,2.625l2.606,0l0,-2.625Zm2.601,0l-2.601,0l0,2.625l2.601,0l0,-2.625Zm7.817,0l-2.606,0l0,2.625l2.606,0l0,-2.625Zm2.605,0l-2.605,0l0,2.625l2.605,0l0,-2.625Zm5.211,0l-2.605,0l0,2.625l2.605,0l0,-2.625Zm2.606,0l-2.606,0l0,2.625l2.606,0l0,-2.625Zm2.605,0l-2.605,0l0,2.625l2.605,0l0,-2.625Zm2.602,0l-2.602,0l0,2.625l2.602,0l0,-2.625Zm2.605,0l-2.605,0l0,2.625l2.605,0l0,-2.625Zm-122.434,2.625l-2.605,0l0,2.625l2.605,0l0,-2.625Zm7.813,0l-2.602,0l0,2.625l2.602,0l0,-2.625Zm2.605,0l-2.605,0l0,2.625l2.605,0l0,-2.625Zm10.422,0l-2.605,0l0,2.625l2.605,0l0,-2.625Zm7.817,0l-2.606,0l0,2.625l2.606,0l0,-2.625Zm13.023,0l-2.605,0l0,2.625l2.605,0l0,-2.625Zm13.024,0l-2.606,0l0,2.625l2.606,0l0,-2.625Zm7.816,0l-2.606,0l0,2.625l2.606,0l0,-2.625Zm7.816,0l-2.605,0l0,2.625l2.605,0l0,-2.625Zm5.207,0l-2.601,0l0,2.625l2.601,0l0,-2.625Zm2.606,0l-2.606,0l0,2.625l2.606,0l0,-2.625Zm5.211,0l-2.606,0l0,2.625l2.606,0l0,-2.625Zm5.211,0l-2.606,0l0,2.625l2.606,0l0,-2.625Zm5.211,0l-2.606,0l0,2.625l2.606,0l0,-2.625Zm7.812,0l-2.605,0l0,2.625l2.605,0l0,-2.625Zm5.211,0l-2.605,0l0,2.625l2.605,0l0,-2.625Zm7.817,0l-2.606,0l0,2.625l2.606,0l0,-2.625Zm5.207,0l-2.602,0l0,2.625l2.602,0l0,-2.625Zm7.816,0l-2.606,0l0,2.625l2.606,0l0,-2.625Zm5.211,0l-2.606,0l0,2.625l2.606,0l0,-2.625Zm-135.461,2.625l-2.606,0l0,2.625l2.606,0l0,-2.625Zm5.211,0l-2.606,0l0,2.625l2.606,0l0,-2.625Zm2.605,0l-2.605,0l0,2.625l2.605,0l0,-2.625Zm2.602,0l-2.602,0l0,2.625l2.602,0l0,-2.625Zm2.605,0l-2.605,0l0,2.625l2.605,0l0,-2.625Zm2.606,0l-2.606,0l0,2.625l2.606,0l0,-2.625Zm5.211,0l-2.606,0l0,2.625l2.606,0l0,-2.625Zm2.605,0l-2.605,0l0,2.625l2.605,0l0,-2.625Zm2.606,0l-2.606,0l0,2.625l2.606,0l0,-2.625Zm2.605,0l-2.605,0l0,2.625l2.605,0l0,-2.625Zm5.207,0l-2.601,0l0,2.625l2.601,0l0,-2.625Zm2.606,0l-2.606,0l0,2.625l2.606,0l0,-2.625Zm2.605,0l-2.605,0l0,2.625l2.605,0l0,-2.625Zm2.606,0l-2.606,0l0,2.625l2.606,0l0,-2.625Zm2.605,0l-2.605,0l0,2.625l2.605,0l0,-2.625Zm5.211,0l-2.605,0l0,2.625l2.605,0l0,-2.625Zm2.606,0l-2.606,0l0,2.625l2.606,0l0,-2.625Zm2.601,0l-2.601,0l0,2.625l2.601,0l0,-2.625Zm5.211,0l-2.605,0l0,2.625l2.605,0l0,-2.625Zm2.605,0l-2.605,0l0,2.625l2.605,0l0,-2.625Zm2.606,0l-2.606,0l0,2.625l2.606,0l0,-2.625Zm5.211,0l-2.606,0l0,2.625l2.606,0l0,-2.625Zm2.605,0l-2.605,0l0,2.625l2.605,0l0,-2.625Zm2.606,0l-2.606,0l0,2.625l2.606,0l0,-2.625Zm13.023,0l-2.605,0l0,2.625l2.605,0l0,-2.625Zm2.606,0l-2.606,0l0,2.625l2.606,0l0,-2.625Zm2.605,0l-2.605,0l0,2.625l2.605,0l0,-2.625Zm2.606,0l-2.606,0l0,2.625l2.606,0l0,-2.625Zm5.207,0l-2.606,0l0,2.625l2.606,0l0,-2.625Zm5.211,0l-2.606,0l0,2.625l2.606,0l0,-2.625Zm7.816,0l-2.605,0l0,2.625l2.605,0l0,-2.625Zm2.606,0l-2.606,0l0,2.625l2.606,0l0,-2.625Zm5.207,0l-2.602,0l0,2.625l2.602,0l0,-2.625Zm5.21,0l-2.605,0l0,2.625l2.605,0l0,-2.625Zm5.211,0l-2.605,0l0,2.625l2.605,0l0,-2.625Zm2.606,0l-2.606,0l0,2.625l2.606,0l0,-2.625Zm-135.461,2.625l-2.606,0l0,2.625l2.606,0l0,-2.625Zm7.816,0l-2.605,0l0,2.625l2.605,0l0,-2.625Zm13.024,0l-2.606,0l0,2.625l2.606,0l0,-2.625Zm2.605,0l-2.605,0l0,2.625l2.605,0l0,-2.625Zm2.606,0l-2.606,0l0,2.625l2.606,0l0,-2.625Zm2.605,0l-2.605,0l0,2.625l2.605,0l0,-2.625Zm10.418,0l-2.605,0l0,2.625l2.605,0l0,-2.625Zm5.211,0l-2.605,0l0,2.625l2.605,0l0,-2.625Zm5.211,0l-2.605,0l0,2.625l2.605,0l0,-2.625Zm5.207,0l-2.601,0l0,2.625l2.601,0l0,-2.625Zm2.606,0l-2.606,0l0,2.625l2.606,0l0,-2.625Zm5.21,0l-2.605,0l0,2.625l2.605,0l0,-2.625Zm2.606,0l-2.606,0l0,2.625l2.606,0l0,-2.625Zm5.211,0l-2.606,0l0,2.625l2.606,0l0,-2.625Zm5.211,0l-2.606,0l0,2.625l2.606,0l0,-2.625Zm2.601,0l-2.601,0l0,2.625l2.601,0l0,-2.625Zm2.606,0l-2.606,0l0,2.625l2.606,0l0,-2.625Zm5.211,0l-2.606,0l0,2.625l2.606,0l0,-2.625Zm2.605,0l-2.605,0l0,2.625l2.605,0l0,-2.625Zm2.606,0l-2.606,0l0,2.625l2.606,0l0,-2.625Zm10.418,0l-2.606,0l0,2.625l2.606,0l0,-2.625Zm5.211,0l-2.606,0l0,2.625l2.606,0l0,-2.625Zm7.816,0l-2.605,0l0,2.625l2.605,0l0,-2.625Zm10.418,0l-2.605,0l0,2.625l2.605,0l0,-2.625Zm2.605,0l-2.605,0l0,2.625l2.605,0l0,-2.625Zm5.211,0l-2.605,0l0,2.625l2.605,0l0,-2.625Zm-132.855,2.625l-2.606,0l0,2.625l2.606,0l0,-2.625Zm10.418,0l-2.602,0l0,2.625l2.602,0l0,-2.625Zm5.211,0l-2.606,0l0,2.625l2.606,0l0,-2.625Zm7.816,0l-2.605,0l0,2.625l2.605,0l0,-2.625Zm5.211,0l-2.605,0l0,2.625l2.605,0l0,-2.625Zm10.418,0l-2.605,0l0,2.625l2.605,0l0,-2.625Zm10.422,0l-2.605,0l0,2.625l2.605,0l0,-2.625Zm10.418,0l-2.605,0l0,2.625l2.605,0l0,-2.625Zm5.211,0l-2.606,0l0,2.625l2.606,0l0,-2.625Zm5.211,0l-2.606,0l0,2.625l2.606,0l0,-2.625Zm10.418,0l-2.606,0l0,2.625l2.606,0l0,-2.625Zm5.211,0l-2.606,0l0,2.625l2.606,0l0,-2.625Zm5.211,0l-2.606,0l0,2.625l2.606,0l0,-2.625Zm10.418,0l-2.606,0l0,2.625l2.606,0l0,-2.625Zm7.816,0l-2.605,0l0,2.625l2.605,0l0,-2.625Zm2.606,0l-2.606,0l0,2.625l2.606,0l0,-2.625Zm5.211,0l-2.606,0l0,2.625l2.606,0l0,-2.625Zm10.417,0l-2.605,0l0,2.625l2.605,0l0,-2.625Zm5.211,0l-2.605,0l0,2.625l2.605,0l0,-2.625Zm-132.855,2.625l-2.606,0l0,2.621l2.606,0l0,-2.621Zm10.418,0l-2.602,0l0,2.621l2.602,0l0,-2.621Zm10.422,0l-2.606,0l0,2.621l2.606,0l0,-2.621Zm5.211,0l-2.606,0l0,2.621l2.606,0l0,-2.621Zm2.605,0l-2.605,0l0,2.621l2.605,0l0,-2.621Zm2.606,0l-2.606,0l0,2.621l2.606,0l0,-2.621Zm2.601,0l-2.601,0l0,2.621l2.601,0l0,-2.621Zm5.211,0l-2.605,0l0,2.621l2.605,0l0,-2.621Zm2.606,0l-2.606,0l0,2.621l2.606,0l0,-2.621Zm2.605,0l-2.605,0l0,2.621l2.605,0l0,-2.621Zm5.211,0l-2.605,0l0,2.621l2.605,0l0,-2.621Zm7.813,0l-2.606,0l0,2.621l2.606,0l0,-2.621Zm2.605,0l-2.605,0l0,2.621l2.605,0l0,-2.621Zm5.211,0l-2.606,0l0,2.621l2.606,0l0,-2.621Zm10.422,0l-2.606,0l0,2.621l2.606,0l0,-2.621Zm5.207,0l-2.606,0l0,2.621l2.606,0l0,-2.621Zm5.211,0l-2.606,0l0,2.621l2.606,0l0,-2.621Zm7.816,0l-2.605,0l0,2.621l2.605,0l0,-2.621Zm5.207,0l-2.601,0l0,2.621l2.601,0l0,-2.621Zm5.211,0l-2.605,0l0,2.621l2.605,0l0,-2.621Zm5.211,0l-2.605,0l0,2.621l2.605,0l0,-2.621Zm2.606,0l-2.606,0l0,2.621l2.606,0l0,-2.621Zm5.211,0l-2.606,0l0,2.621l2.606,0l0,-2.621Zm7.812,0l-2.605,0l0,2.621l2.605,0l0,-2.621Zm2.605,0l-2.605,0l0,2.621l2.605,0l0,-2.621Zm5.211,0l-2.605,0l0,2.621l2.605,0l0,-2.621Zm2.606,0l-2.606,0l0,2.621l2.606,0l0,-2.621Zm-132.856,2.621l-2.605,0l0,2.625l2.605,0l0,-2.625Zm10.418,0l-2.605,0l0,2.625l2.605,0l0,-2.625Zm2.606,0l-2.606,0l0,2.625l2.606,0l0,-2.625Zm2.605,0l-2.605,0l0,2.625l2.605,0l0,-2.625Zm2.606,0l-2.606,0l0,2.625l2.606,0l0,-2.625Zm5.211,0l-2.606,0l0,2.625l2.606,0l0,-2.625Zm10.418,0l-2.606,0l0,2.625l2.606,0l0,-2.625Zm10.422,0l-2.606,0l0,2.625l2.606,0l0,-2.625Zm2.605,0l-2.605,0l0,2.625l2.605,0l0,-2.625Zm7.813,0l-2.606,0l0,2.625l2.606,0l0,-2.625Zm2.605,0l-2.605,0l0,2.625l2.605,0l0,-2.625Zm7.816,0l-2.605,0l0,2.625l2.605,0l0,-2.625Zm5.211,0l-2.605,0l0,2.625l2.605,0l0,-2.625Zm5.207,0l-2.601,0l0,2.625l2.601,0l0,-2.625Zm10.422,0l-2.605,0l0,2.625l2.605,0l0,-2.625Zm13.024,0l-2.606,0l0,2.625l2.606,0l0,-2.625Zm2.605,0l-2.605,0l0,2.625l2.605,0l0,-2.625Zm5.211,0l-2.605,0l0,2.625l2.605,0l0,-2.625Zm2.606,0l-2.606,0l0,2.625l2.606,0l0,-2.625Zm7.816,0l-2.605,0l0,2.625l2.605,0l0,-2.625Zm5.207,0l-2.605,0l0,2.625l2.605,0l0,-2.625Zm5.211,0l-2.606,0l0,2.625l2.606,0l0,-2.625Zm-125.039,2.625l-2.606,0l0,2.625l2.606,0l0,-2.625Zm5.207,0l-2.602,0l0,2.625l2.602,0l0,-2.625Zm7.816,0l-2.605,0l0,2.625l2.605,0l0,-2.625Zm13.028,0l-2.606,0l0,2.625l2.606,0l0,-2.625Zm2.601,0l-2.601,0l0,2.625l2.601,0l0,-2.625Zm5.211,0l-2.605,0l0,2.625l2.605,0l0,-2.625Zm7.817,0l-2.606,0l0,2.625l2.606,0l0,-2.625Zm2.605,0l-2.605,0l0,2.625l2.605,0l0,-2.625Zm10.418,0l-2.605,0l0,2.625l2.605,0l0,-2.625Zm7.816,0l-2.605,0l0,2.625l2.605,0l0,-2.625Zm2.606,0l-2.606,0l0,2.625l2.606,0l0,-2.625Zm5.211,0l-2.606,0l0,2.625l2.606,0l0,-2.625Zm2.601,0l-2.601,0l0,2.625l2.601,0l0,-2.625Zm5.211,0l-2.605,0l0,2.625l2.605,0l0,-2.625Zm5.211,0l-2.605,0l0,2.625l2.605,0l0,-2.625Zm2.606,0l-2.606,0l0,2.625l2.606,0l0,-2.625Zm10.418,0l-2.606,0l0,2.625l2.606,0l0,-2.625Zm10.422,0l-2.606,0l0,2.625l2.606,0l0,-2.625Zm5.211,0l-2.606,0l0,2.625l2.606,0l0,-2.625Zm2.605,0l-2.605,0l0,2.625l2.605,0l0,-2.625Zm5.207,0l-2.605,0l0,2.625l2.605,0l0,-2.625Zm5.211,0l-2.606,0l0,2.625l2.606,0l0,-2.625Zm5.211,0l-2.606,0l0,2.625l2.606,0l0,-2.625Zm-135.461,2.625l-2.606,0l0,2.625l2.606,0l0,-2.625Zm2.605,0l-2.605,0l0,2.625l2.605,0l0,-2.625Zm5.211,0l-2.605,0l0,2.625l2.605,0l0,-2.625Zm5.207,0l-2.605,0l0,2.625l2.605,0l0,-2.625Zm2.606,0l-2.606,0l0,2.625l2.606,0l0,-2.625Zm5.211,0l-2.606,0l0,2.625l2.606,0l0,-2.625Zm2.605,0l-2.605,0l0,2.625l2.605,0l0,-2.625Zm2.606,0l-2.606,0l0,2.625l2.606,0l0,-2.625Zm5.211,0l-2.606,0l0,2.625l2.606,0l0,-2.625Zm2.601,0l-2.601,0l0,2.625l2.601,0l0,-2.625Zm2.606,0l-2.606,0l0,2.625l2.606,0l0,-2.625Zm5.211,0l-2.606,0l0,2.625l2.606,0l0,-2.625Zm2.605,0l-2.605,0l0,2.625l2.605,0l0,-2.625Zm2.606,0l-2.606,0l0,2.625l2.606,0l0,-2.625Zm5.211,0l-2.606,0l0,2.625l2.606,0l0,-2.625Zm2.601,0l-2.601,0l0,2.625l2.601,0l0,-2.625Zm2.606,0l-2.606,0l0,2.625l2.606,0l0,-2.625Zm5.21,0l-2.605,0l0,2.625l2.605,0l0,-2.625Zm5.211,0l-2.605,0l0,2.625l2.605,0l0,-2.625Zm5.211,0l-2.605,0l0,2.625l2.605,0l0,-2.625Zm5.207,0l-2.601,0l0,2.625l2.601,0l0,-2.625Zm5.211,0l-2.605,0l0,2.625l2.605,0l0,-2.625Zm2.606,0l-2.606,0l0,2.625l2.606,0l0,-2.625Zm7.816,0l-2.605,0l0,2.625l2.605,0l0,-2.625Zm2.606,0l-2.606,0l0,2.625l2.606,0l0,-2.625Zm2.601,0l-2.601,0l0,2.625l2.601,0l0,-2.625Zm5.211,0l-2.605,0l0,2.625l2.605,0l0,-2.625Zm2.606,0l-2.606,0l0,2.625l2.606,0l0,-2.625Zm2.605,0l-2.605,0l0,2.625l2.605,0l0,-2.625Zm5.211,0l-2.605,0l0,2.625l2.605,0l0,-2.625Zm2.606,0l-2.606,0l0,2.625l2.606,0l0,-2.625Zm2.605,0l-2.605,0l0,2.625l2.605,0l0,-2.625Zm5.207,0l-2.605,0l0,2.625l2.605,0l0,-2.625Zm10.422,0l-2.606,0l0,2.625l2.606,0l0,-2.625Zm-132.856,2.625l-2.605,0l0,2.625l2.605,0l0,-2.625Zm10.418,0l-2.605,0l0,2.625l2.605,0l0,-2.625Zm13.028,0l-2.606,0l0,2.625l2.606,0l0,-2.625Zm2.605,0l-2.605,0l0,2.625l2.605,0l0,-2.625Zm2.606,0l-2.606,0l0,2.625l2.606,0l0,-2.625Zm7.812,0l-2.605,0l0,2.625l2.605,0l0,-2.625Zm5.211,0l-2.605,0l0,2.625l2.605,0l0,-2.625Zm13.024,0l-2.606,0l0,2.625l2.606,0l0,-2.625Zm5.21,0l-2.605,0l0,2.625l2.605,0l0,-2.625Zm5.211,0l-2.605,0l0,2.625l2.605,0l0,-2.625Zm2.606,0l-2.606,0l0,2.625l2.606,0l0,-2.625Zm2.605,0l-2.605,0l0,2.625l2.605,0l0,-2.625Zm5.207,0l-2.601,0l0,2.625l2.601,0l0,-2.625Zm7.817,0l-2.606,0l0,2.625l2.606,0l0,-2.625Zm7.816,0l-2.605,0l0,2.625l2.605,0l0,-2.625Zm2.606,0l-2.606,0l0,2.625l2.606,0l0,-2.625Zm5.207,0l-2.606,0l0,2.625l2.606,0l0,-2.625Zm2.605,0l-2.605,0l0,2.625l2.605,0l0,-2.625Zm5.211,0l-2.605,0l0,2.625l2.605,0l0,-2.625Zm2.606,0l-2.606,0l0,2.625l2.606,0l0,-2.625Zm7.816,0l-2.605,0l0,2.625l2.605,0l0,-2.625Zm10.418,0l-2.606,0l0,2.625l2.606,0l0,-2.625Zm5.211,0l-2.606,0l0,2.625l2.606,0l0,-2.625Zm-132.856,2.625l-2.605,0l0,2.625l2.605,0l0,-2.625Zm10.418,0l-2.605,0l0,2.625l2.605,0l0,-2.625Zm2.606,0l-2.606,0l0,2.625l2.606,0l0,-2.625Zm5.211,0l-2.606,0l0,2.625l2.606,0l0,-2.625Zm5.211,0l-2.606,0l0,2.625l2.606,0l0,-2.625Zm10.418,0l-2.606,0l0,2.625l2.606,0l0,-2.625Zm2.605,0l-2.605,0l0,2.625l2.605,0l0,-2.625Zm7.817,0l-2.606,0l0,2.625l2.606,0l0,-2.625Zm5.211,0l-2.606,0l0,2.625l2.606,0l0,-2.625Zm5.207,0l-2.606,0l0,2.625l2.606,0l0,-2.625Zm5.21,0l-2.605,0l0,2.625l2.605,0l0,-2.625Zm5.211,0l-2.605,0l0,2.625l2.605,0l0,-2.625Zm10.418,0l-2.601,0l0,2.625l2.601,0l0,-2.625Zm20.84,0l-2.601,0l0,2.625l2.601,0l0,-2.625Zm5.211,0l-2.605,0l0,2.625l2.605,0l0,-2.625Zm5.211,0l-2.605,0l0,2.625l2.605,0l0,-2.625Zm10.422,0l-2.605,0l0,2.625l2.605,0l0,-2.625Zm5.207,0l-2.605,0l0,2.625l2.605,0l0,-2.625Zm5.211,0l-2.606,0l0,2.625l2.606,0l0,-2.625Zm2.605,0l-2.605,0l0,2.625l2.605,0l0,-2.625Zm2.606,0l-2.606,0l0,2.625l2.606,0l0,-2.625Zm-135.461,2.625l-2.606,0l0,2.625l2.606,0l0,-2.625Zm2.605,0l-2.605,0l0,2.625l2.605,0l0,-2.625Zm2.606,0l-2.606,0l0,2.625l2.606,0l0,-2.625Zm7.812,0l-2.605,0l0,2.625l2.605,0l0,-2.625Zm5.211,0l-2.605,0l0,2.625l2.605,0l0,-2.625Zm10.422,0l-2.605,0l0,2.625l2.605,0l0,-2.625Zm5.207,0l-2.601,0l0,2.625l2.601,0l0,-2.625Zm7.817,0l-2.606,0l0,2.625l2.606,0l0,-2.625Zm5.211,0l-2.606,0l0,2.625l2.606,0l0,-2.625Zm5.211,0l-2.606,0l0,2.625l2.606,0l0,-2.625Zm2.601,0l-2.601,0l0,2.625l2.601,0l0,-2.625Zm2.606,0l-2.606,0l0,2.625l2.606,0l0,-2.625Zm2.605,0l-2.605,0l0,2.625l2.605,0l0,-2.625Zm5.211,0l-2.606,0l0,2.625l2.606,0l0,-2.625Zm2.605,0l-2.605,0l0,2.625l2.605,0l0,-2.625Zm2.606,0l-2.606,0l0,2.625l2.606,0l0,-2.625Zm5.211,0l-2.606,0l0,2.625l2.606,0l0,-2.625Zm18.234,0l-2.605,0l0,2.625l2.605,0l0,-2.625Zm2.606,0l-2.606,0l0,2.625l2.606,0l0,-2.625Zm2.601,0l-2.601,0l0,2.625l2.601,0l0,-2.625Zm5.211,0l-2.605,0l0,2.625l2.605,0l0,-2.625Zm2.606,0l-2.606,0l0,2.625l2.606,0l0,-2.625Zm5.211,0l-2.606,0l0,2.625l2.606,0l0,-2.625Zm2.605,0l-2.605,0l0,2.625l2.605,0l0,-2.625Zm7.813,0l-2.602,0l0,2.625l2.602,0l0,-2.625Zm5.21,0l-2.605,0l0,2.625l2.605,0l0,-2.625Zm5.211,0l-2.605,0l0,2.625l2.605,0l0,-2.625Zm-130.25,2.625l-2.605,0l0,2.625l2.605,0l0,-2.625Zm2.606,0l-2.606,0l0,2.625l2.606,0l0,-2.625Zm5.207,0l-2.602,0l0,2.625l2.602,0l0,-2.625Zm2.605,0l-2.605,0l0,2.625l2.605,0l0,-2.625Zm2.606,0l-2.606,0l0,2.625l2.606,0l0,-2.625Zm2.605,0l-2.605,0l0,2.625l2.605,0l0,-2.625Zm15.629,0l-2.601,0l0,2.625l2.601,0l0,-2.625Zm5.211,0l-2.605,0l0,2.625l2.605,0l0,-2.625Zm5.211,0l-2.605,0l0,2.625l2.605,0l0,-2.625Zm5.211,0l-2.605,0l0,2.625l2.605,0l0,-2.625Zm7.813,0l-2.606,0l0,2.625l2.606,0l0,-2.625Zm13.027,0l-2.606,0l0,2.625l2.606,0l0,-2.625Zm5.211,0l-2.606,0l0,2.625l2.606,0l0,-2.625Zm15.629,0l-2.606,0l0,2.625l2.606,0l0,-2.625Zm5.211,0l-2.606,0l0,2.625l2.606,0l0,-2.625Zm5.207,0l-2.606,0l0,2.625l2.606,0l0,-2.625Zm5.211,0l-2.606,0l0,2.625l2.606,0l0,-2.625Zm5.211,0l-2.606,0l0,2.625l2.606,0l0,-2.625Zm10.418,0l-2.602,0l0,2.625l2.602,0l0,-2.625Zm5.21,0l-2.605,0l0,2.625l2.605,0l0,-2.625Zm-117.226,2.625l-2.602,0l0,2.621l2.602,0l0,-2.621Zm2.605,0l-2.605,0l0,2.621l2.605,0l0,-2.621Zm13.028,0l-2.606,0l0,2.621l2.606,0l0,-2.621Zm10.418,0l-2.606,0l0,2.621l2.606,0l0,-2.621Zm5.211,0l-2.606,0l0,2.621l2.606,0l0,-2.621Zm2.605,0l-2.605,0l0,2.621l2.605,0l0,-2.621Zm5.211,0l-2.605,0l0,2.621l2.605,0l0,-2.621Zm5.207,0l-2.601,0l0,2.621l2.601,0l0,-2.621Zm13.027,0l-2.605,0l0,2.621l2.605,0l0,-2.621Zm10.418,0l-2.601,0l0,2.621l2.601,0l0,-2.621Zm2.606,0l-2.606,0l0,2.621l2.606,0l0,-2.621Zm5.211,0l-2.606,0l0,2.621l2.606,0l0,-2.621Zm5.211,0l-2.606,0l0,2.621l2.606,0l0,-2.621Zm2.605,0l-2.605,0l0,2.621l2.605,0l0,-2.621Zm2.606,0l-2.606,0l0,2.621l2.606,0l0,-2.621Zm5.207,0l-2.606,0l0,2.621l2.606,0l0,-2.621Zm5.211,0l-2.606,0l0,2.621l2.606,0l0,-2.621Zm5.211,0l-2.606,0l0,2.621l2.606,0l0,-2.621Zm2.605,0l-2.605,0l0,2.621l2.605,0l0,-2.621Zm5.211,0l-2.605,0l0,2.621l2.605,0l0,-2.621Zm5.207,0l-2.605,0l0,2.621l2.605,0l0,-2.621Zm5.211,0l-2.606,0l0,2.621l2.606,0l0,-2.621Zm2.605,0l-2.605,0l0,2.621l2.605,0l0,-2.621Zm-132.855,2.621l-2.606,0l0,2.625l2.606,0l0,-2.625Zm2.605,0l-2.605,0l0,2.625l2.605,0l0,-2.625Zm5.211,0l-2.605,0l0,2.625l2.605,0l0,-2.625Zm2.602,0l-2.602,0l0,2.625l2.602,0l0,-2.625Zm2.605,0l-2.605,0l0,2.625l2.605,0l0,-2.625Zm2.606,0l-2.606,0l0,2.625l2.606,0l0,-2.625Zm2.605,0l-2.605,0l0,2.625l2.605,0l0,-2.625Zm2.606,0l-2.606,0l0,2.625l2.606,0l0,-2.625Zm2.605,0l-2.605,0l0,2.625l2.605,0l0,-2.625Zm5.211,0l-2.605,0l0,2.625l2.605,0l0,-2.625Zm2.606,0l-2.606,0l0,2.625l2.606,0l0,-2.625Zm2.601,0l-2.601,0l0,2.625l2.601,0l0,-2.625Zm5.211,0l-2.605,0l0,2.625l2.605,0l0,-2.625Zm5.211,0l-2.605,0l0,2.625l2.605,0l0,-2.625Zm5.211,0l-2.605,0l0,2.625l2.605,0l0,-2.625Zm5.207,0l-2.601,0l0,2.625l2.601,0l0,-2.625Zm7.816,0l-2.605,0l0,2.625l2.605,0l0,-2.625Zm2.606,0l-2.606,0l0,2.625l2.606,0l0,-2.625Zm5.211,0l-2.606,0l0,2.625l2.606,0l0,-2.625Zm5.211,0l-2.606,0l0,2.625l2.606,0l0,-2.625Zm5.207,0l-2.606,0l0,2.625l2.606,0l0,-2.625Zm2.605,0l-2.605,0l0,2.625l2.605,0l0,-2.625Zm2.606,0l-2.606,0l0,2.625l2.606,0l0,-2.625Zm2.605,0l-2.605,0l0,2.625l2.605,0l0,-2.625Zm7.817,0l-2.606,0l0,2.625l2.606,0l0,-2.625Zm5.207,0l-2.606,0l0,2.625l2.606,0l0,-2.625Zm5.211,0l-2.606,0l0,2.625l2.606,0l0,-2.625Zm5.211,0l-2.606,0l0,2.625l2.606,0l0,-2.625Zm5.211,0l-2.606,0l0,2.625l2.606,0l0,-2.625Zm5.207,0l-2.602,0l0,2.625l2.602,0l0,-2.625Zm2.605,0l-2.605,0l0,2.625l2.605,0l0,-2.625Zm2.605,0l-2.605,0l0,2.625l2.605,0l0,-2.625Zm5.211,0l-2.605,0l0,2.625l2.605,0l0,-2.625Zm2.606,0l-2.606,0l0,2.625l2.606,0l0,-2.625Zm-132.856,2.625l-2.605,0l0,2.625l2.605,0l0,-2.625Zm2.606,0l-2.606,0l0,2.625l2.606,0l0,-2.625Zm18.234,0l-2.605,0l0,2.625l2.605,0l0,-2.625Zm2.606,0l-2.606,0l0,2.625l2.606,0l0,-2.625Zm2.605,0l-2.605,0l0,2.625l2.605,0l0,-2.625Zm5.207,0l-2.601,0l0,2.625l2.601,0l0,-2.625Zm7.817,0l-2.606,0l0,2.625l2.606,0l0,-2.625Zm10.422,0l-2.606,0l0,2.625l2.606,0l0,-2.625Zm5.207,0l-2.606,0l0,2.625l2.606,0l0,-2.625Zm5.21,0l-2.605,0l0,2.625l2.605,0l0,-2.625Zm2.606,0l-2.606,0l0,2.625l2.606,0l0,-2.625Zm7.816,0l-2.605,0l0,2.625l2.605,0l0,-2.625Zm7.813,0l-2.606,0l0,2.625l2.606,0l0,-2.625Zm5.211,0l-2.606,0l0,2.625l2.606,0l0,-2.625Zm5.211,0l-2.606,0l0,2.625l2.606,0l0,-2.625Zm10.418,0l-2.606,0l0,2.625l2.606,0l0,-2.625Zm10.422,0l-2.606,0l0,2.625l2.606,0l0,-2.625Zm15.628,0l-2.605,0l0,2.625l2.605,0l0,-2.625Zm7.817,0l-2.606,0l0,2.625l2.606,0l0,-2.625Zm-127.645,2.625l-2.605,0l0,2.625l2.605,0l0,-2.625Zm7.813,0l-2.606,0l0,2.625l2.606,0l0,-2.625Zm2.605,0l-2.605,0l0,2.625l2.605,0l0,-2.625Zm2.606,0l-2.606,0l0,2.625l2.606,0l0,-2.625Zm5.211,0l-2.606,0l0,2.625l2.606,0l0,-2.625Zm2.605,0l-2.605,0l0,2.625l2.605,0l0,-2.625Zm7.813,0l-2.606,0l0,2.625l2.606,0l0,-2.625Zm5.211,0l-2.606,0l0,2.625l2.606,0l0,-2.625Zm5.211,0l-2.606,0l0,2.625l2.606,0l0,-2.625Zm5.211,0l-2.606,0l0,2.625l2.606,0l0,-2.625Zm10.417,0l-2.605,0l0,2.625l2.605,0l0,-2.625Zm2.606,0l-2.606,0l0,2.625l2.606,0l0,-2.625Zm2.605,0l-2.605,0l0,2.625l2.605,0l0,-2.625Zm2.606,0l-2.606,0l0,2.625l2.606,0l0,-2.625Zm2.605,0l-2.605,0l0,2.625l2.605,0l0,-2.625Zm7.813,0l-2.606,0l0,2.625l2.606,0l0,-2.625Zm2.605,0l-2.605,0l0,2.625l2.605,0l0,-2.625Zm5.211,0l-2.605,0l0,2.625l2.605,0l0,-2.625Zm5.211,0l-2.605,0l0,2.625l2.605,0l0,-2.625Zm5.207,0l-2.601,0l0,2.625l2.601,0l0,-2.625Zm10.422,0l-2.605,0l0,2.625l2.605,0l0,-2.625Zm5.211,0l-2.605,0l0,2.625l2.605,0l0,-2.625Zm2.606,0l-2.606,0l0,2.625l2.606,0l0,-2.625Zm2.605,0l-2.605,0l0,2.625l2.605,0l0,-2.625Zm2.602,0l-2.602,0l0,2.625l2.602,0l0,-2.625Zm2.605,0l-2.605,0l0,2.625l2.605,0l0,-2.625Zm2.605,0l-2.605,0l0,2.625l2.605,0l0,-2.625Zm-104.199,2.625l-2.605,0l0,2.625l2.605,0l0,-2.625Zm5.211,0l-2.605,0l0,2.625l2.605,0l0,-2.625Zm2.606,0l-2.606,0l0,2.625l2.606,0l0,-2.625Zm2.601,0l-2.601,0l0,2.625l2.601,0l0,-2.625Zm10.422,0l-2.605,0l0,2.625l2.605,0l0,-2.625Zm5.211,0l-2.605,0l0,2.625l2.605,0l0,-2.625Zm5.207,0l-2.601,0l0,2.625l2.601,0l0,-2.625Zm7.816,0l-2.605,0l0,2.625l2.605,0l0,-2.625Zm10.422,0l-2.605,0l0,2.625l2.605,0l0,-2.625Zm2.606,0l-2.606,0l0,2.625l2.606,0l0,-2.625Zm2.601,0l-2.601,0l0,2.625l2.601,0l0,-2.625Zm5.211,0l-2.605,0l0,2.625l2.605,0l0,-2.625Zm5.211,0l-2.605,0l0,2.625l2.605,0l0,-2.625Zm5.211,0l-2.605,0l0,2.625l2.605,0l0,-2.625Zm5.207,0l-2.601,0l0,2.625l2.601,0l0,-2.625Zm5.211,0l-2.605,0l0,2.625l2.605,0l0,-2.625Zm5.211,0l-2.605,0l0,2.625l2.605,0l0,-2.625Zm5.211,0l-2.605,0l0,2.625l2.605,0l0,-2.625Zm10.418,0l-2.605,0l0,2.625l2.605,0l0,-2.625Zm5.211,0l-2.606,0l0,2.625l2.606,0l0,-2.625Zm5.211,0l-2.606,0l0,2.625l2.606,0l0,-2.625Zm-135.461,2.625l-2.606,0l0,2.625l2.606,0l0,-2.625Zm2.605,0l-2.605,0l0,2.625l2.605,0l0,-2.625Zm2.606,0l-2.606,0l0,2.625l2.606,0l0,-2.625Zm2.605,0l-2.605,0l0,2.625l2.605,0l0,-2.625Zm2.602,0l-2.602,0l0,2.625l2.602,0l0,-2.625Zm2.605,0l-2.605,0l0,2.625l2.605,0l0,-2.625Zm2.606,0l-2.606,0l0,2.625l2.606,0l0,-2.625Zm5.211,0l-2.606,0l0,2.625l2.606,0l0,-2.625Zm5.211,0l-2.606,0l0,2.625l2.606,0l0,-2.625Zm5.211,0l-2.606,0l0,2.625l2.606,0l0,-2.625Zm5.207,0l-2.606,0l0,2.625l2.606,0l0,-2.625Zm10.422,0l-2.606,0l0,2.625l2.606,0l0,-2.625Zm10.418,0l-2.606,0l0,2.625l2.606,0l0,-2.625Zm5.21,0l-2.605,0l0,2.625l2.605,0l0,-2.625Zm5.211,0l-2.605,0l0,2.625l2.605,0l0,-2.625Zm5.211,0l-2.605,0l0,2.625l2.605,0l0,-2.625Zm2.606,0l-2.606,0l0,2.625l2.606,0l0,-2.625Zm5.207,0l-2.606,0l0,2.625l2.606,0l0,-2.625Zm10.422,0l-2.606,0l0,2.625l2.606,0l0,-2.625Zm5.211,0l-2.606,0l0,2.625l2.606,0l0,-2.625Zm5.207,0l-2.606,0l0,2.625l2.606,0l0,-2.625Zm2.605,0l-2.605,0l0,2.625l2.605,0l0,-2.625Zm7.817,0l-2.606,0l0,2.625l2.606,0l0,-2.625Zm2.605,0l-2.605,0l0,2.625l2.605,0l0,-2.625Zm5.211,0l-2.605,0l0,2.625l2.605,0l0,-2.625Zm5.207,0l-2.605,0l0,2.625l2.605,0l0,-2.625Zm-125.039,2.625l-2.606,0l0,2.625l2.606,0l0,-2.625Zm15.629,0l-2.606,0l0,2.625l2.606,0l0,-2.625Zm5.211,0l-2.606,0l0,2.625l2.606,0l0,-2.625Zm7.816,0l-2.605,0l0,2.625l2.605,0l0,-2.625Zm5.207,0l-2.601,0l0,2.625l2.601,0l0,-2.625Zm5.211,0l-2.605,0l0,2.625l2.605,0l0,-2.625Zm5.211,0l-2.605,0l0,2.625l2.605,0l0,-2.625Zm5.211,0l-2.605,0l0,2.625l2.605,0l0,-2.625Zm10.418,0l-2.605,0l0,2.625l2.605,0l0,-2.625Zm2.605,0l-2.605,0l0,2.625l2.605,0l0,-2.625Zm10.422,0l-2.605,0l0,2.625l2.605,0l0,-2.625Zm5.207,0l-2.601,0l0,2.625l2.601,0l0,-2.625Zm5.211,0l-2.605,0l0,2.625l2.605,0l0,-2.625Zm10.422,0l-2.605,0l0,2.625l2.605,0l0,-2.625Zm5.207,0l-2.601,0l0,2.625l2.601,0l0,-2.625Zm5.211,0l-2.605,0l0,2.625l2.605,0l0,-2.625Zm10.422,0l-2.605,0l0,2.625l2.605,0l0,-2.625Zm10.418,0l-2.605,0l0,2.625l2.605,0l0,-2.625Zm5.211,0l-2.606,0l0,2.625l2.606,0l0,-2.625Zm2.605,0l-2.605,0l0,2.625l2.605,0l0,-2.625Zm-132.855,2.625l-2.606,0l0,2.621l2.606,0l0,-2.621Zm5.211,0l-2.606,0l0,2.621l2.606,0l0,-2.621Zm2.605,0l-2.605,0l0,2.621l2.605,0l0,-2.621Zm2.602,0l-2.602,0l0,2.621l2.602,0l0,-2.621Zm5.211,0l-2.606,0l0,2.621l2.606,0l0,-2.621Zm5.211,0l-2.606,0l0,2.621l2.606,0l0,-2.621Zm2.605,0l-2.605,0l0,2.621l2.605,0l0,-2.621Zm2.606,0l-2.606,0l0,2.621l2.606,0l0,-2.621Zm5.211,0l-2.606,0l0,2.621l2.606,0l0,-2.621Zm2.601,0l-2.601,0l0,2.621l2.601,0l0,-2.621Zm2.606,0l-2.606,0l0,2.621l2.606,0l0,-2.621Zm5.211,0l-2.606,0l0,2.621l2.606,0l0,-2.621Zm5.211,0l-2.606,0l0,2.621l2.606,0l0,-2.621Zm5.211,0l-2.606,0l0,2.621l2.606,0l0,-2.621Zm2.601,0l-2.601,0l0,2.621l2.601,0l0,-2.621Zm7.816,0l-2.605,0l0,2.621l2.605,0l0,-2.621Zm2.606,0l-2.606,0l0,2.621l2.606,0l0,-2.621Zm2.605,0l-2.605,0l0,2.621l2.605,0l0,-2.621Zm2.606,0l-2.606,0l0,2.621l2.606,0l0,-2.621Zm2.605,0l-2.605,0l0,2.621l2.605,0l0,-2.621Zm2.606,0l-2.606,0l0,2.621l2.606,0l0,-2.621Zm2.601,0l-2.601,0l0,2.621l2.601,0l0,-2.621Zm2.606,0l-2.606,0l0,2.621l2.606,0l0,-2.621Zm5.211,0l-2.606,0l0,2.621l2.606,0l0,-2.621Zm5.211,0l-2.606,0l0,2.621l2.606,0l0,-2.621Zm5.211,0l-2.606,0l0,2.621l2.606,0l0,-2.621Zm5.207,0l-2.606,0l0,2.621l2.606,0l0,-2.621Zm5.211,0l-2.606,0l0,2.621l2.606,0l0,-2.621Zm2.605,0l-2.605,0l0,2.621l2.605,0l0,-2.621Zm2.606,0l-2.606,0l0,2.621l2.606,0l0,-2.621Zm2.605,0l-2.605,0l0,2.621l2.605,0l0,-2.621Zm2.606,0l-2.606,0l0,2.621l2.606,0l0,-2.621Zm2.605,0l-2.605,0l0,2.621l2.605,0l0,-2.621Zm2.602,0l-2.602,0l0,2.621l2.602,0l0,-2.621Zm2.605,0l-2.605,0l0,2.621l2.605,0l0,-2.621Zm2.605,0l-2.605,0l0,2.621l2.605,0l0,-2.621Zm2.606,0l-2.606,0l0,2.621l2.606,0l0,-2.621Zm-130.25,2.621l-2.606,0l0,2.625l2.606,0l0,-2.625Zm5.211,0l-2.606,0l0,2.625l2.606,0l0,-2.625Zm2.605,0l-2.605,0l0,2.625l2.605,0l0,-2.625Zm2.602,0l-2.602,0l0,2.625l2.602,0l0,-2.625Zm5.211,0l-2.606,0l0,2.625l2.606,0l0,-2.625Zm5.211,0l-2.606,0l0,2.625l2.606,0l0,-2.625Zm10.422,0l-2.606,0l0,2.625l2.606,0l0,-2.625Zm10.418,0l-2.606,0l0,2.625l2.606,0l0,-2.625Zm5.211,0l-2.606,0l0,2.625l2.606,0l0,-2.625Zm5.211,0l-2.606,0l0,2.625l2.606,0l0,-2.625Zm10.417,0l-2.605,0l0,2.625l2.605,0l0,-2.625Zm10.422,0l-2.605,0l0,2.625l2.605,0l0,-2.625Zm10.418,0l-2.605,0l0,2.625l2.605,0l0,-2.625Zm7.817,0l-2.606,0l0,2.625l2.606,0l0,-2.625Zm13.023,0l-2.605,0l0,2.625l2.605,0l0,-2.625Zm5.211,0l-2.605,0l0,2.625l2.605,0l0,-2.625Zm5.211,0l-2.605,0l0,2.625l2.605,0l0,-2.625Zm10.418,0l-2.605,0l0,2.625l2.605,0l0,-2.625Zm10.422,0l-2.606,0l0,2.625l2.606,0l0,-2.625Zm-135.461,2.625l-2.606,0l0,2.625l2.606,0l0,-2.625Zm5.211,0l-2.606,0l0,2.625l2.606,0l0,-2.625Zm2.605,0l-2.605,0l0,2.625l2.605,0l0,-2.625Zm2.602,0l-2.602,0l0,2.625l2.602,0l0,-2.625Zm5.211,0l-2.606,0l0,2.625l2.606,0l0,-2.625Zm5.211,0l-2.606,0l0,2.625l2.606,0l0,-2.625Zm10.422,0l-2.606,0l0,2.625l2.606,0l0,-2.625Zm10.418,0l-2.606,0l0,2.625l2.606,0l0,-2.625Zm5.211,0l-2.606,0l0,2.625l2.606,0l0,-2.625Zm5.211,0l-2.606,0l0,2.625l2.606,0l0,-2.625Zm10.417,0l-2.605,0l0,2.625l2.605,0l0,-2.625Zm10.422,0l-2.605,0l0,2.625l2.605,0l0,-2.625Zm10.418,0l-2.605,0l0,2.625l2.605,0l0,-2.625Zm5.211,0l-2.605,0l0,2.625l2.605,0l0,-2.625Zm15.629,0l-2.605,0l0,2.625l2.605,0l0,-2.625Zm10.422,0l-2.605,0l0,2.625l2.605,0l0,-2.625Zm10.418,0l-2.605,0l0,2.625l2.605,0l0,-2.625Zm10.422,0l-2.606,0l0,2.625l2.606,0l0,-2.625Zm-135.461,2.625l-2.606,0l0,2.625l2.606,0l0,-2.625Zm15.629,0l-2.606,0l0,2.625l2.606,0l0,-2.625Zm10.422,0l-2.606,0l0,2.625l2.606,0l0,-2.625Zm2.605,0l-2.605,0l0,2.625l2.605,0l0,-2.625Zm2.606,0l-2.606,0l0,2.625l2.606,0l0,-2.625Zm5.207,0l-2.606,0l0,2.625l2.606,0l0,-2.625Zm2.605,0l-2.605,0l0,2.625l2.605,0l0,-2.625Zm2.606,0l-2.606,0l0,2.625l2.606,0l0,-2.625Zm5.211,0l-2.606,0l0,2.625l2.606,0l0,-2.625Zm2.605,0l-2.605,0l0,2.625l2.605,0l0,-2.625Zm2.606,0l-2.606,0l0,2.625l2.606,0l0,-2.625Zm5.207,0l-2.606,0l0,2.625l2.606,0l0,-2.625Zm2.605,0l-2.605,0l0,2.625l2.605,0l0,-2.625Zm2.605,0l-2.605,0l0,2.625l2.605,0l0,-2.625Zm5.211,0l-2.605,0l0,2.625l2.605,0l0,-2.625Zm2.606,0l-2.606,0l0,2.625l2.606,0l0,-2.625Zm2.605,0l-2.605,0l0,2.625l2.605,0l0,-2.625Zm5.207,0l-2.601,0l0,2.625l2.601,0l0,-2.625Zm5.211,0l-2.605,0l0,2.625l2.605,0l0,-2.625Zm5.211,0l-2.605,0l0,2.625l2.605,0l0,-2.625Zm10.418,0l-2.601,0l0,2.625l2.601,0l0,-2.625Zm2.606,0l-2.606,0l0,2.625l2.606,0l0,-2.625Zm7.816,0l-2.605,0l0,2.625l2.605,0l0,-2.625Zm10.422,0l-2.605,0l0,2.625l2.605,0l0,-2.625Zm2.602,0l-2.602,0l0,2.625l2.602,0l0,-2.625Zm2.605,0l-2.605,0l0,2.625l2.605,0l0,-2.625Zm2.605,0l-2.605,0l0,2.625l2.605,0l0,-2.625Zm2.606,0l-2.606,0l0,2.625l2.606,0l0,-2.625Zm2.605,0l-2.605,0l0,2.625l2.605,0l0,-2.625Zm-132.855,2.625l-2.606,0l0,2.625l2.606,0l0,-2.625Zm2.605,0l-2.605,0l0,2.625l2.605,0l0,-2.625Zm2.606,0l-2.606,0l0,2.625l2.606,0l0,-2.625Zm2.605,0l-2.605,0l0,2.625l2.605,0l0,-2.625Zm2.602,0l-2.602,0l0,2.625l2.602,0l0,-2.625Zm2.605,0l-2.605,0l0,2.625l2.605,0l0,-2.625Zm2.606,0l-2.606,0l0,2.625l2.606,0l0,-2.625Zm7.816,0l-2.605,0l0,2.625l2.605,0l0,-2.625Zm10.418,0l-2.601,0l0,2.625l2.601,0l0,-2.625Zm10.422,0l-2.605,0l0,2.625l2.605,0l0,-2.625Zm5.211,0l-2.605,0l0,2.625l2.605,0l0,-2.625Zm5.207,0l-2.601,0l0,2.625l2.601,0l0,-2.625Zm7.816,0l-2.605,0l0,2.625l2.605,0l0,-2.625Zm2.606,0l-2.606,0l0,2.625l2.606,0l0,-2.625Zm10.422,0l-2.606,0l0,2.625l2.606,0l0,-2.625Zm7.812,0l-2.605,0l0,2.625l2.605,0l0,-2.625Zm2.606,0l-2.606,0l0,2.625l2.606,0l0,-2.625Zm5.211,0l-2.606,0l0,2.625l2.606,0l0,-2.625Zm5.211,0l-2.606,0l0,2.625l2.606,0l0,-2.625Zm5.207,0l-2.606,0l0,2.625l2.606,0l0,-2.625Zm5.211,0l-2.606,0l0,2.625l2.606,0l0,-2.625Zm10.422,0l-2.606,0l0,2.625l2.606,0l0,-2.625Zm10.417,0l-2.605,0l0,2.625l2.605,0l0,-2.625Zm2.606,0l-2.606,0l0,2.625l2.606,0l0,-2.625" style="fill-rule:nonzero;"/>
        </g>
        <g transform="matrix(3.999429,0,0,3.999429,29429.321215,27375.978434)">
            <path d="M383.707,468.769c1.336,-2.625 3.465,-4.754 6.09,-6.09c1.57,-0.8 3.32,-1.167 5.496,-1.343c2.16,-0.176 4.859,-0.176 8.344,-0.176l17.093,0l0,2.812l-17.093,0c-3.532,0 -6.094,0 -8.114,0.168c-2,0.161 -3.343,0.481 -4.453,1.043c-2.09,1.067 -3.793,2.77 -4.859,4.864c-0.563,1.105 -0.883,2.449 -1.047,4.449c-0.164,2.019 -0.164,4.582 -0.164,8.113l0,17.098l-2.812,0l0,-17.098c0,-3.484 0,-6.183 0.175,-8.344c0.176,-2.175 0.543,-3.925 1.344,-5.496Zm-1.519,131.594l0,-17.098l2.812,0l0,17.098c0,3.531 0,6.094 0.164,8.113c0.164,2 0.484,3.344 1.047,4.45c1.066,2.093 2.769,3.796 4.859,4.859c1.11,0.566 2.453,0.883 4.453,1.047c2.02,0.164 4.582,0.168 8.114,0.168l17.093,0l0,2.812l-17.093,0c-3.485,0 -6.184,0 -8.344,-0.175c-2.176,-0.18 -3.926,-0.543 -5.496,-1.344c-2.625,-1.336 -4.754,-3.469 -6.09,-6.09c-0.801,-1.57 -1.168,-3.324 -1.344,-5.5c-0.175,-2.156 -0.175,-4.856 -0.175,-8.34Zm139.199,-136.391l-17.094,0l0,-2.812l17.094,0c3.484,0 6.183,0 8.343,0.176c2.176,0.176 3.93,0.543 5.5,1.343c2.622,1.336 4.754,3.465 6.086,6.09c0.801,1.571 1.168,3.321 1.344,5.5c0.18,2.157 0.176,4.856 0.176,8.34l0,17.098l-2.813,0l0,-17.098c0,-3.531 0,-6.094 -0.164,-8.113c-0.164,-2 -0.48,-3.344 -1.046,-4.449c-1.067,-2.094 -2.766,-3.797 -4.86,-4.864c-1.109,-0.562 -2.449,-0.882 -4.453,-1.043c-2.016,-0.168 -4.582,-0.168 -8.113,-0.168Zm0,155.028c3.531,0 6.097,-0.004 8.113,-0.168c2.004,-0.164 3.344,-0.481 4.453,-1.047c2.094,-1.063 3.793,-2.766 4.86,-4.859c0.566,-1.106 0.882,-2.45 1.046,-4.45c0.164,-2.019 0.164,-4.582 0.164,-8.113l0,-17.098l2.813,0l0,17.098c0,3.484 0.004,6.184 -0.176,8.34c-0.176,2.176 -0.543,3.93 -1.344,5.5c-1.332,2.621 -3.464,4.754 -6.086,6.09c-1.57,0.801 -3.324,1.164 -5.5,1.344c-2.16,0.175 -4.859,0.175 -8.343,0.175l-17.094,0l0,-2.812l17.094,0Z" style="fill:#080605;"/>
        </g>
        <g transform="matrix(-3.642791,-0,-0,3.642791,32965.832768,28014.777514)">
            <path d="M462.641,400.898c-10.106,0 -18.301,8.196 -18.301,18.301c0,10.106 8.195,18.301 18.301,18.301c10.105,0 18.3,-8.195 18.3,-18.301c0,-10.105 -8.195,-18.301 -18.3,-18.301" style="fill:#fff;fill-rule:nonzero;"/>
        </g>
        <g transform="matrix(0.109733,0,0,0.109732,31224.343864,29485.540986)">
            <circle cx="512.028" cy="512.028" r="512.028" style="fill:#080605;"/>
        </g>
        <g transform="matrix(0.109733,0,0,0.109732,31224.343864,29485.540986)">
            <path d="M206.763,513.905c6.946,6.804 13.891,13.195 20.632,19.999c23.696,24.122 47.188,48.656 70.884,72.778c2.247,2.474 3.268,5.773 2.86,8.865l0,125.971c0,3.917 1.021,4.948 4.902,4.948c41.672,-0.206 83.344,-0.207 125.017,-0.207c2.247,0.207 4.289,1.444 5.719,3.093c12.257,12.37 24.718,25.153 36.77,37.729c17.772,18.349 35.544,36.905 53.724,55.666l12.257,-12.37c26.147,-27.008 52.294,-54.223 78.85,-81.025c2.247,-1.855 5.107,-3.093 7.967,-3.093c41.059,-0.206 82.119,-0.206 123.178,0c3.881,0 4.494,-1.237 4.494,-4.948c0,-42.058 0,-84.323 -0.204,-126.382c-0.205,-3.711 1.225,-7.216 3.881,-9.69l57.605,-58.759c1.43,-1.443 3.473,-2.474 5.516,-2.68c19.202,-0.206 38.404,0 57.606,0c0.817,0 1.634,0.206 2.451,0.412c-0.613,0.825 -1.021,1.65 -1.839,2.474c-25.534,26.184 -50.864,52.368 -76.399,78.551c-2.247,2.268 -3.677,5.361 -3.472,8.66l0,151.947c0,7.216 0,7.216 -7.15,7.216l-148.304,0c-2.451,0 -4.698,1.031 -6.537,2.68c-24.308,24.947 -48.413,49.894 -72.722,74.84c-11.439,11.958 -23.083,23.71 -34.522,35.668c-2.247,2.268 -3.677,1.855 -5.72,-0.206c-12.256,-12.783 -24.513,-25.153 -36.769,-37.936c-23.696,-24.328 -47.392,-48.862 -71.088,-73.19c-1.43,-1.237 -3.064,-1.856 -4.903,-1.856l-149.734,0c-6.741,0 -6.741,0 -6.741,-6.803l0,-152.773c0.205,-2.886 -1.021,-5.773 -3.064,-7.834l-67.411,-69.274c-13.278,-13.813 -26.76,-27.626 -40.038,-41.44c-0.612,-0.618 -1.021,-1.237 -1.634,-1.855c1.634,-1.856 3.064,-3.711 4.494,-5.361c23.492,-24.122 46.779,-48.244 70.271,-72.366c11.439,-11.751 22.879,-23.503 34.114,-35.461c1.838,-2.062 2.86,-4.536 2.86,-7.422c0.204,-51.13 0.204,-102.467 0.204,-153.597c0,-5.979 0,-5.979 6.128,-5.979l148.304,0c3.269,0.206 6.333,-1.237 8.375,-3.505c33.91,-35.049 68.024,-70.098 102.138,-104.941c2.247,-2.268 4.29,-4.742 6.741,-7.628c7.15,7.216 13.891,14.019 20.428,20.823c30.028,30.926 59.852,61.645 89.881,92.364c1.838,1.65 4.29,2.681 6.741,2.887c49.843,0.206 99.482,0.206 149.325,0.206c6.128,0 6.128,0 6.128,6.391l0,152.773c-0.204,3.092 1.022,6.185 3.269,8.246c24.921,25.359 49.843,50.925 74.56,76.49c1.635,1.649 3.065,3.505 4.494,5.154l-0.408,1.237l-14.095,0c-14.708,0 -29.211,0 -43.919,-0.206c-2.86,-0.206 -5.516,-1.237 -7.559,-3.093c-19.61,-19.998 -39.22,-39.997 -58.626,-60.201c-1.839,-2.062 -3.065,-4.536 -3.065,-7.216c-0.204,-42.472 -0.204,-84.943 0,-127.414c0,-4.329 -1.225,-5.566 -5.311,-5.566l-123.586,0c-2.452,-0.207 -4.903,-1.237 -6.741,-2.887c-29.212,-29.895 -58.423,-59.789 -87.43,-89.684c-2.452,-2.68 -4.086,-3.093 -6.946,-0.206c-17.567,18.349 -35.544,36.698 -53.315,54.841c-11.44,11.752 -22.675,23.71 -34.319,35.255c-2.043,1.856 -4.494,2.681 -7.149,2.887c-40.651,0.206 -81.302,0 -121.953,0l-5.924,0c0,2.474 -0.408,4.535 -0.408,6.597l0,123.29c0.204,4.33 -1.43,8.659 -4.699,11.752c-29.007,29.688 -58.014,59.377 -86.817,89.272c0,0.412 -0.612,1.237 -2.247,3.092Zm479.23,30.72c-3.676,11.133 -7.149,21.648 -10.622,32.369c-1.225,3.711 -2.043,7.628 -2.247,11.751c-0.204,23.298 -0.204,46.595 0,69.892c0,4.33 -1.634,4.948 -5.107,4.948c-22.47,-0.206 -45.145,0 -67.615,-0.206c-6.741,0.619 -13.278,2.68 -19.406,5.773c-29.62,10.927 -61.691,12.576 -92.128,4.742c-8.375,-2.062 -16.546,-5.773 -24.922,-8.659c-2.655,-1.031 -5.515,-1.65 -8.375,-1.65c-22.879,-0.206 -45.758,-0.206 -68.637,0c-4.494,0 -5.515,-1.237 -5.515,-5.773c0.204,-23.503 0.204,-47.006 0,-70.51c0,-2.886 -0.613,-5.773 -1.634,-8.453c-14.095,-33.399 -16.955,-70.51 -8.171,-105.559c2.043,-8.041 5.311,-15.669 7.762,-23.71c1.226,-3.505 1.839,-7.009 2.247,-10.721c0.205,-23.297 0,-46.388 0,-69.891c0,-5.773 0,-5.773 5.72,-5.773l68.432,0c3.064,0 5.924,-0.619 8.784,-1.856c37.178,-16.7 79.463,-17.73 117.458,-2.886c8.58,3.505 17.568,5.154 26.76,4.948c19.815,-0.619 39.221,-0.206 59.036,-0.412c3.881,0 5.311,1.237 5.107,5.36c-0.204,23.297 -0.204,46.595 0,69.892c0.204,3.917 0.817,7.834 2.247,11.752c2.86,9.896 6.128,19.792 9.192,29.688c1.022,3.093 0,4.33 -3.268,4.33l-39.425,0c-1.634,-0.413 -3.064,-1.443 -3.881,-3.093c-3.269,-7.628 -6.333,-15.256 -9.193,-23.091c-0.817,-2.886 -1.43,-5.773 -1.226,-8.659c-0.204,-11.339 -0.204,-22.679 0,-33.812c0,-3.505 -1.021,-4.742 -4.494,-4.536c-11.235,0.206 -22.47,0.413 -33.909,0c-4.29,-0.412 -8.376,-1.649 -12.257,-3.505c-32.888,-16.287 -71.292,-15.462 -103.567,2.062c-2.452,1.031 -5.107,1.649 -7.967,1.649c-11.44,0.207 -22.879,0.207 -34.318,0c-3.473,0 -4.494,1.031 -4.494,4.536c0.204,11.546 0.204,22.885 0,34.431c0,3.711 -1.022,7.628 -2.452,11.133c-16.546,33.399 -16.546,72.572 -0.204,105.765c1.634,3.918 2.656,8.247 2.86,12.371c0.408,11.133 0.204,22.472 0,33.399c0,3.505 0.817,4.948 4.494,4.948c11.644,-0.206 23.492,-0.206 35.135,0c2.452,0 4.903,0.619 6.946,1.65c32.684,17.73 71.7,18.143 104.793,1.237c3.677,-1.856 7.762,-2.681 11.848,-2.887c11.031,-0.412 22.062,-0.206 32.888,0c3.269,0 4.29,-1.237 4.29,-4.329c-0.204,-11.958 -0.204,-23.916 0,-35.668c0.408,-3.299 1.226,-6.597 2.451,-9.69c2.247,-6.391 4.699,-12.782 7.354,-18.968c0.613,-1.443 2.451,-3.504 3.881,-3.711c13.687,-0.206 27.578,-0.206 41.264,0c1.021,0.207 2.043,0.413 3.064,0.825l1.021,-1.443Z" style="fill:#fff;"/>
        </g>
        <g transform="matrix(1.066667,0,0,1.015376,30617.685592,28796.818355)">
            <rect x="0" y="0" width="1240.157" height="1754.13" style="fill:none;"/>
        </g>
    </g>
</svg>
